<svg version="1.0" xmlns="http://www.w3.org/2000/svg" width="512" height="512" viewBox="0 0 5120 5120"><path d="M435 5101c-203-58-367-226-419-428-14-54-16-281-16-2115C0 284-5 459 66 318c49-98 154-202 250-251C460-5 282 0 2560 0s2100-5 2244 67c96 48 201 153 249 249 72 144 67-34 67 2244s5 2100-67 2244c-48 96-153 201-249 249-144 72 35 67-2250 66-1919 0-2063-2-2119-18zm2325-1196v-815h-600v-620h600v-274c0-286 6-345 48-466 89-256 306-473 562-562 120-42 181-48 456-48h264v620h-192c-279 0-342 13-421 89-82 77-97 145-97 439v202h720v23c-1 12-22 150-48 307l-47 285-313 3-312 2v1631l593-3c583-3 593-3 632-24 46-25 65-45 91-94 18-34 19-100 19-2040s-1-2006-19-2040c-26-49-45-69-91-94l-40-21H2560c-1940 0-2006 1-2040 19-49 26-69 45-94 91l-21 40v2005c0 1940 1 2006 19 2040 35 66 76 96 146 111 19 4 520 7 1113 8l1077 1v-815z" fill="#0f0"/></svg>