<!DOCTYPE svg PUBLIC "-//W3C//DTD SVG 20010904//EN" "http://www.w3.org/TR/2001/REC-SVG-20010904/DTD/svg10.dtd">
<svg version="1.0" xmlns="http://www.w3.org/2000/svg" width="512px" height="512px" viewBox="0 0 5120 5120" preserveAspectRatio="xMidYMid meet">
<g id="layer101" fill="#00ff00" stroke="none">
 <path d="M1497 5109 c-481 -27 -804 -156 -1074 -427 -220 -222 -350 -520 -392 -902 -31 -273 -38 -1783 -11 -2270 26 -457 135 -771 351 -1014 284 -318 612 -456 1154 -486 239 -13 1840 -13 2075 0 376 21 623 84 848 217 206 121 398 327 501 537 58 118 114 296 142 446 l23 125 4 1130 c2 780 0 1170 -8 1260 -35 410 -156 704 -391 949 -234 245 -536 381 -949 427 -127 14 -2045 21 -2273 8z m2069 -469 c220 -11 332 -29 459 -71 126 -42 225 -101 322 -192 204 -193 280 -398 303 -816 13 -229 13 -1763 0 -1996 -6 -99 -17 -219 -25 -266 -72 -425 -312 -685 -714 -774 -181 -41 -299 -46 -1136 -52 -838 -6 -1250 4 -1445 33 -120 17 -289 71 -370 116 -145 81 -274 216 -345 363 -120 246 -135 420 -135 1570 0 1007 12 1232 77 1440 52 165 116 268 241 386 154 146 323 215 613 250 199 24 1718 30 2155 9z"/>
 <path d="M2430 3874 c-14 -2 -56 -9 -95 -15 -394 -63 -773 -348 -951 -716 -93 -192 -128 -350 -129 -578 0 -189 9 -254 61 -415 65 -203 158 -353 319 -516 195 -197 408 -312 685 -371 118 -25 382 -25 500 0 539 114 933 508 1047 1047 25 118 25 382 0 500 -38 181 -109 349 -210 500 -63 95 -249 280 -345 343 -143 95 -312 166 -482 203 -71 15 -345 28 -400 18z m260 -474 c340 -54 611 -299 701 -635 17 -62 22 -109 22 -205 0 -96 -5 -143 -22 -205 -82 -307 -309 -534 -616 -616 -62 -17 -109 -22 -205 -22 -144 0 -237 21 -359 78 -186 89 -322 227 -411 418 -57 123 -74 201 -74 347 0 130 12 199 56 310 142 360 534 589 908 530z"/>
 <path d="M3840 1491 c-70 -22 -147 -86 -181 -153 -65 -126 -27 -301 83 -389 63 -49 107 -64 198 -64 62 0 85 5 132 28 65 32 121 90 152 156 30 65 29 188 -1 251 -35 72 -79 116 -145 149 -53 27 -71 31 -137 30 -42 0 -87 -4 -101 -8z"/>
 </g>

</svg>