<!DOCTYPE svg PUBLIC "-//W3C//DTD SVG 20010904//EN" "http://www.w3.org/TR/2001/REC-SVG-20010904/DTD/svg10.dtd">
<svg version="1.0" xmlns="http://www.w3.org/2000/svg" width="512px" height="512px" viewBox="0 0 5120 5120" preserveAspectRatio="xMidYMid meet">
<g id="layer101" fill="#00ff00" stroke="none">
 <path d="M2226 5104 c-544 -70 -1047 -313 -1445 -699 -422 -409 -672 -897 -763 -1485 -21 -136 -18 -617 5 -753 78 -462 260 -872 542 -1221 86 -106 299 -318 402 -399 371 -293 841 -486 1305 -536 143 -16 463 -13 608 4 442 55 867 227 1229 498 109 82 380 347 464 454 287 366 475 816 532 1273 20 163 20 477 0 640 -43 350 -169 714 -350 1010 -141 232 -373 497 -585 667 -377 302 -818 490 -1290 548 -155 19 -502 18 -654 -1z m489 -335 c282 -81 551 -404 731 -876 l24 -62 -68 -20 c-299 -88 -532 -122 -842 -122 -307 0 -562 37 -841 122 l-68 21 23 61 c170 450 432 773 702 868 115 40 218 42 339 8z m-1094 -247 c-95 -142 -241 -435 -266 -534 -4 -16 -12 -28 -19 -28 -23 0 -336 179 -336 192 0 20 238 212 365 294 60 38 294 163 307 164 4 0 -19 -39 -51 -88z m1931 37 c121 -61 229 -127 332 -203 86 -63 236 -193 236 -204 0 -19 -328 -198 -340 -186 -4 5 -29 61 -55 124 -58 145 -148 317 -225 431 -32 49 -57 89 -54 89 2 0 50 -23 106 -51z m-2444 -856 c124 -63 133 -70 128 -93 -3 -14 -17 -80 -31 -148 -36 -171 -63 -368 -77 -569 l-12 -173 -394 0 -393 0 6 48 c54 417 159 714 365 1025 l70 106 102 -65 c57 -35 163 -94 236 -131z m3312 91 c204 -309 318 -630 364 -1021 l7 -53 -394 0 -393 0 -12 173 c-14 195 -41 395 -78 572 -14 66 -27 131 -30 145 -5 23 4 30 128 93 73 37 178 96 233 131 55 35 101 64 102 65 1 1 34 -47 73 -105z m-2752 -314 c127 -37 300 -73 457 -97 96 -14 183 -18 435 -18 252 0 339 4 435 18 157 24 328 60 460 98 59 17 108 29 110 27 6 -7 55 -269 69 -373 18 -128 36 -311 36 -372 l0 -43 -1110 0 -1110 0 0 43 c0 60 19 255 35 372 20 135 67 375 74 375 3 0 52 -13 109 -30z m-548 -1133 c0 -142 43 -486 86 -692 13 -66 27 -131 30 -145 5 -23 -4 -30 -128 -93 -73 -37 -179 -96 -236 -131 l-102 -65 -70 107 c-204 308 -318 627 -364 1020 l-7 52 396 0 395 0 0 -53z m2550 11 c0 -62 -18 -245 -36 -373 -14 -104 -63 -366 -69 -373 -2 -2 -50 10 -107 26 -288 83 -494 113 -823 119 -371 8 -627 -23 -949 -113 -70 -19 -129 -34 -131 -32 -6 7 -55 269 -69 373 -18 128 -36 311 -36 373 l0 42 1110 0 1110 0 0 -42z m1114 -10 c-46 -392 -160 -713 -364 -1021 l-70 -106 -102 65 c-57 35 -163 95 -236 132 -124 63 -133 69 -128 92 3 14 16 79 30 145 37 177 64 377 78 572 l12 173 393 0 394 0 -7 -52z m-1940 -929 c185 -17 371 -54 558 -111 l67 -20 -23 -61 c-162 -425 -406 -741 -659 -851 -204 -89 -417 -55 -617 99 -185 143 -375 430 -494 747 l-25 66 67 20 c369 112 740 148 1126 111z m-1467 -350 c54 -137 168 -359 237 -463 36 -53 63 -96 60 -96 -12 0 -217 108 -287 151 -136 85 -387 284 -387 308 0 14 319 193 334 188 5 -2 25 -41 43 -88z m2523 33 c141 -77 220 -125 220 -133 0 -24 -248 -222 -380 -303 -76 -48 -281 -156 -294 -156 -3 0 22 40 54 89 77 114 166 286 225 431 53 129 53 130 63 130 4 0 54 -26 112 -58z"/>
 </g>

</svg>