<!DOCTYPE svg PUBLIC "-//W3C//DTD SVG 20010904//EN" "http://www.w3.org/TR/2001/REC-SVG-20010904/DTD/svg10.dtd">
<svg version="1.0" xmlns="http://www.w3.org/2000/svg" width="512px" height="512px" viewBox="0 0 5120 5120" preserveAspectRatio="xMidYMid meet">
<g id="layer101" fill="#00ff00" stroke="none">
 <path d="M350 5097 c-163 -55 -285 -182 -334 -346 -14 -50 -16 -255 -16 -2191 0 -2343 -4 -2173 58 -2295 32 -64 143 -175 207 -207 122 -62 -48 -58 2295 -58 2343 0 2173 -4 2295 58 64 32 175 143 207 207 62 122 58 -48 58 2295 0 2343 4 2173 -58 2295 -32 64 -143 175 -207 207 -122 62 49 58 -2299 58 l-2141 -1 -65 -22z m1180 -1897 l0 -1150 -380 0 -380 0 0 1150 0 1150 380 0 380 0 0 -1150z m1282 428 l3 -723 31 -66 c38 -81 113 -157 191 -196 53 -25 68 -28 163 -28 95 0 110 3 163 28 77 38 148 111 189 194 l33 68 3 722 3 723 380 0 380 0 -3 -792 c-4 -907 1 -855 -98 -1053 -142 -284 -423 -475 -739 -501 -225 -19 -495 110 -664 316 l-37 45 0 -157 0 -158 -380 0 -380 0 0 1150 0 1150 380 0 379 0 3 -722z m-1581 -2028 c85 -16 188 -72 248 -135 215 -227 148 -587 -136 -723 -76 -36 -81 -37 -193 -37 -112 0 -117 1 -190 37 -96 47 -178 130 -223 225 -29 64 -31 75 -32 183 0 112 1 117 37 192 61 128 165 215 298 250 76 20 118 22 191 8z"/>
 </g>

</svg>