<!DOCTYPE svg PUBLIC "-//W3C//DTD SVG 20010904//EN" "http://www.w3.org/TR/2001/REC-SVG-20010904/DTD/svg10.dtd">
<svg version="1.0" xmlns="http://www.w3.org/2000/svg" width="1200px" height="265px" viewBox="0 0 12000 2650" preserveAspectRatio="xMidYMid meet">
<g id="layer101" fill="#000000" stroke="none">
<path d="M2507 2322 l-27 -28 0 -148 0 -147 -32 -27 c-93 -78 -418 -364 -418 -368 0 -2 82 -4 183 -4 l182 0 111 94 111 94 79 -67 c43 -36 92 -78 109 -93 l30 -28 183 0 184 0 19 23 c10 12 18 25 19 29 0 4 -101 95 -225 203 l-225 196 0 150 0 149 -128 0 -128 0 -27 -28z"/>
<path d="M3287 2320 l-27 -30 0 -210 0 -210 133 0 134 0 21 23 22 23 0 87 0 87 230 0 230 0 0 -120 0 -120 -357 0 -358 -1 -27 -24 -28 -24 0 -101 0 -100 518 0 519 0 21 23 22 23 0 352 0 352 -513 0 -514 0 -26 -30z"/>
<path d="M6807 2322 l-27 -28 0 -207 0 -207 350 0 350 0 0 -15 0 -15 -328 0 -328 0 -22 -25 -22 -25 0 -100 0 -101 438 3 439 3 37 29 c21 15 51 46 67 69 l29 40 0 133 0 133 -9 24 -10 25 -35 27 -35 27 -41 5 -42 6 89 86 c49 47 100 98 113 114 l23 27 -164 0 -164 -1 -113 -109 -112 -110 -100 0 -100 0 0 110 0 110 -128 0 -128 0 -27 -28z"/>
<path d="M7883 2323 l-23 -26 0 -104 0 -103 17 0 16 0 -16 -18 -17 -19 0 -180 0 -180 21 -27 21 -27 39 -19 38 -20 433 0 433 0 23 24 22 24 0 106 0 106 -17 0 -16 0 16 18 17 19 0 177 0 178 -20 28 -20 29 -34 20 -33 21 -439 -1 -439 0 -22 -26z"/>
<path d="M8992 2327 l-22 -23 0 -107 0 -107 17 0 16 0 -16 -18 -17 -19 0 -101 0 -102 22 0 21 0 -21 -23 -22 -23 0 -102 0 -102 453 0 454 0 21 23 22 23 0 102 0 102 -132 0 -131 0 21 23 22 23 0 97 0 97 88 0 89 0 21 23 22 23 0 107 0 107 -453 0 -454 0 -21 -23z"/>
<path d="M10017 2322 l-27 -28 0 -347 0 -347 133 0 134 0 21 23 22 23 0 227 0 227 268 0 268 0 17 20 17 20 0 105 0 105 -413 0 -413 0 -27 -28z"/>
<path d="M10967 2322 l-27 -28 0 -222 0 -222 22 0 21 0 -21 -23 -22 -23 0 -102 0 -102 458 0 459 0 21 23 22 23 0 102 0 102 -137 0 -136 0 21 23 22 23 0 102 0 102 -210 0 -210 0 0 125 0 125 -128 0 -128 0 -27 -28z"/>
<path d="M252 1095 c-17 -8 -53 -31 -78 -52 l-46 -38 -14 -27 -14 -27 0 -296 0 -295 463 0 464 0 21 23 22 23 0 107 0 107 -330 0 -330 0 0 120 0 120 308 0 309 0 21 23 22 23 0 102 0 102 -392 0 -393 -1 -33 -14z"/>
<path d="M1162 1087 l-22 -23 0 -217 0 -217 130 0 131 0 24 28 24 27 1 88 0 87 230 0 230 0 0 -120 0 -120 -357 0 -357 0 -28 -27 -28 -27 0 -103 0 -103 513 0 514 0 21 23 22 23 0 352 0 352 -513 0 -514 0 -21 -23z"/>
<path d="M2308 1087 l-28 -23 0 -352 0 -352 105 0 105 0 167 145 c92 80 169 145 173 145 3 0 80 -65 172 -145 l166 -145 99 0 99 0 27 28 27 28 0 347 0 347 -133 0 -134 0 -21 -23 -21 -23 -3 -116 -3 -116 -113 99 -114 100 -16 -13 c-9 -7 -73 -62 -142 -122 l-125 -109 -3 162 -2 161 -128 0 -127 -1 -27 -22z"/>
<path d="M3508 1085 l-28 -24 0 -211 0 -210 355 0 355 0 0 -10 0 -10 -328 0 -329 0 -26 -30 -27 -30 0 -100 0 -100 413 0 412 0 40 10 40 9 53 55 52 54 0 149 0 148 -24 36 -25 36 -34 17 -35 16 -291 0 -291 0 0 110 0 110 -127 0 -128 -1 -27 -24z"/>
<path d="M7102 1087 l-22 -23 0 -222 0 -222 -157 0 -157 0 -28 -27 -28 -27 0 -103 0 -103 498 0 499 0 21 23 22 23 0 107 0 107 -180 0 -180 0 0 245 0 245 -133 0 -134 0 -21 -23z"/>
</g>
<g id="layer102" fill="#00fe00" stroke="none">
<path d="M5489 2593 c-1 -5 -1 -19 0 -33 l2 -25 -10 15 -10 15 -18 0 c-10 0 -24 4 -30 8 l-13 8 -10 -6 -10 -6 0 9 0 9 -15 0 -15 0 0 -9 c0 -4 4 -8 9 -8 l9 0 7 -36 6 -37 -12 -8 c-8 -4 -11 -9 -9 -11 22 -14 51 -28 60 -28 l9 0 -6 18 -7 17 25 -27 25 -27 20 4 c10 2 21 4 23 4 2 1 -3 9 -12 19 l-16 18 18 1 19 2 5 -25 4 -24 -14 0 -14 0 7 -12 7 -11 -16 6 -17 6 0 -14 0 -15 11 0 11 0 -13 -16 -12 -15 -13 28 -12 28 -1 -13 c-1 -7 -8 -20 -16 -28 l-15 -15 0 15 0 16 -20 0 -20 0 0 -11 0 -10 12 7 11 7 -5 -15 -6 -15 11 -1 c7 -1 30 -3 52 -5 l40 -4 12 16 12 16 13 -14 13 -14 -14 8 -14 8 5 -14 6 -14 11 3 c6 1 29 3 51 4 l40 1 -11 14 -12 13 -11 -9 -11 -9 -30 25 c-16 14 -24 22 -17 19 l12 -7 0 23 0 23 8 -10 7 -11 20 1 20 0 0 -15 0 -15 19 -3 19 -4 -6 21 -5 21 16 1 17 1 -12 5 -13 5 0 14 0 14 -9 0 -10 0 -5 -17 -5 -18 2 19 2 19 22 8 22 8 -5 -13 -5 -12 26 -28 c14 -15 25 -31 25 -37 0 -5 4 -9 9 -9 l10 0 -2 -19 -1 -20 -7 5 -8 4 -6 -10 -6 -10 29 0 30 0 6 16 c9 24 7 28 -7 16 l-13 -11 1 37 0 37 -28 3 -27 3 5 9 6 9 14 -5 15 -6 6 18 c3 11 11 29 16 41 l11 22 -7 16 -6 17 12 -4 11 -4 4 -20 c3 -10 4 -28 3 -39 -1 -11 -3 -30 -4 -42 l-1 -21 -7 5 -8 4 0 -10 0 -11 15 0 15 0 1 -22 c1 -13 2 -32 3 -43 l1 -20 20 -3 20 -4 -7 7 -8 8 11 14 11 13 22 -1 21 -1 -12 -5 c-19 -7 -16 -21 8 -34 l22 -11 -5 27 -6 27 14 5 14 5 -2 23 -2 23 -12 -5 -12 -4 -6 9 -6 10 15 6 15 5 -9 24 -9 23 24 2 23 2 5 -8 5 -8 -11 -14 -10 -15 6 18 5 17 -8 0 c-5 0 -11 -6 -14 -13 l-5 -14 7 -11 7 -12 20 14 19 14 0 14 c1 7 -4 17 -10 21 l-10 9 15 -5 15 -4 1 -11 c1 -7 2 -16 3 -22 0 -5 5 -10 11 -10 l9 0 -5 15 -6 15 11 0 12 0 9 23 9 22 0 -17 1 -18 15 0 15 0 0 -10 0 -10 26 0 25 0 -6 -10 -6 -10 15 6 c9 3 16 10 16 15 l0 9 -22 1 -23 1 18 5 17 4 0 11 0 10 -15 -6 -15 -5 3 11 2 12 -49 13 c-28 7 -52 11 -54 9 -2 -3 1 -14 8 -25 l11 -21 -11 0 -10 0 0 11 c0 6 -7 17 -15 25 l-15 15 0 -13 0 -13 -8 11 c-4 6 -16 16 -27 22 l-21 10 1 -26 0 -27 -12 2 -13 3 0 -20 0 -20 -11 0 -11 0 11 -14 12 -14 -13 -5 -13 -4 17 -20 17 -19 -19 -17 -20 -17 0 10 0 10 -14 0 -14 0 3 18 c2 9 4 22 4 27 l1 10 10 -15 10 -15 0 18 c0 20 -4 21 -29 7 l-18 -9 -1 32 -1 31 8 -13 9 -13 4 8 c3 5 4 19 3 32 l-2 22 8 0 c4 0 9 -5 11 -11 l4 -11 12 15 13 15 -38 23 c-21 13 -41 25 -45 27 l-8 4 0 -14 0 -15 -15 0 -15 0 -6 19 -6 19 -12 -17 -13 -17 -17 6 -16 6 0 -15 0 -15 10 6 10 6 0 -15 0 -16 13 0 12 0 -15 -10 -15 -10 11 0 12 0 5 -19 5 -20 -14 -5 -13 -5 6 15 5 15 -13 -3 -14 -3 0 22 c0 12 -4 25 -8 29 l-7 7 0 -16 0 -17 -11 3 -11 2 -5 -13 -5 -12 19 6 18 6 -14 -10 -14 -10 -11 4 -11 4 0 24 0 24 6 -4 c4 -2 12 3 19 11 l13 15 -16 -5 -15 -6 -7 20 -6 21 -22 0 -22 -1 19 -14 20 -15 -17 0 -18 0 -5 15 -6 15 -14 0 -14 0 0 -10 0 -10 12 0 11 0 -6 -6 -5 -6 -21 7 -21 6 0 15 0 14 -10 0 c-5 0 -10 -3 -11 -7z m-41 -59 c6 -1 18 -2 26 -2 l14 -2 6 -17 7 -16 -13 -9 c-7 -4 -17 -7 -23 -7 l-10 1 13 5 c18 7 15 21 -10 34 l-21 11 7 -17 6 -18 -15 13 -15 12 0 17 0 16 8 -10 c4 -5 13 -10 20 -11z m152 -6 c0 -4 -5 -10 -11 -13 l-10 -7 5 -14 5 -14 -7 0 c-4 0 -14 5 -22 10 l-15 10 12 0 11 0 -5 18 -4 18 20 0 21 0 0 -8z m-15 -68 l-6 -10 15 0 16 0 0 -9 0 -9 -20 5 -20 5 0 14 0 14 11 0 10 0 -6 -10z"/>
<path d="M5320 2559 l0 -19 -26 0 -25 0 6 9 5 10 -8 5 -9 5 -17 -12 -17 -13 6 -27 7 -27 11 7 10 6 -7 -11 -7 -12 23 4 c13 3 26 5 31 5 4 1 12 13 17 27 l10 25 7 -4 8 -5 12 14 13 13 -13 8 c-6 4 -18 8 -24 9 l-13 2 0 -19z"/>
<path d="M5840 2570 l0 -10 28 0 27 0 -15 10 c-8 5 -21 10 -27 10 l-13 0 0 -10z"/>
<path d="M5160 2511 c0 -5 -3 -16 -6 -25 l-6 -16 17 0 16 0 -7 12 -7 11 12 -7 11 -7 -5 -10 -6 -9 -30 0 -29 0 0 11 0 10 13 -7 12 -8 -12 16 -13 15 7 6 6 7 -11 0 -12 0 -1 -47 -1 -48 -5 15 c-3 8 -13 23 -21 33 l-16 18 17 -7 17 -6 0 23 0 24 -9 -14 -9 -14 -16 6 -16 6 0 -11 0 -10 -12 10 -13 10 -12 -13 -13 -14 16 -15 c8 -9 20 -16 25 -16 l9 0 0 -16 0 -15 10 6 10 6 -5 9 -5 8 15 6 14 5 -6 -29 -5 -30 16 0 17 0 -7 12 -7 11 16 -6 16 -6 -6 15 -5 14 7 0 c3 0 15 -4 25 -10 l19 -10 -9 -30 -9 -30 9 5 8 5 5 -14 6 -15 -12 -4 -11 -3 -27 13 -27 13 -6 15 -5 15 -11 0 -11 0 5 -8 5 -8 -9 -14 -9 -15 -7 32 -6 32 -13 -6 -13 -5 2 27 3 26 -9 -9 -9 -9 -25 5 -24 4 -1 17 -1 16 -14 -32 c-16 -38 -21 -40 -41 -15 l-15 17 5 -16 6 -17 -21 6 -20 5 18 -29 c11 -15 18 -29 17 -31 -2 -2 -3 -10 -3 -18 l0 -15 15 0 15 0 0 -9 c0 -5 3 -16 6 -25 l6 -16 -11 0 c-6 0 -10 3 -10 8 1 4 1 13 0 20 l-1 12 -11 0 -10 0 5 -9 6 -9 -16 -6 c-22 -9 -22 -9 -40 25 l-16 32 14 8 c7 5 16 9 19 9 3 0 6 7 6 15 l0 15 -11 0 c-6 -1 -26 -14 -44 -29 l-34 -29 11 -6 10 -6 -4 -20 -4 -20 9 0 9 0 -4 -20 -4 -20 23 0 22 0 14 13 14 12 -14 -18 -13 -18 11 -11 12 -12 0 12 0 12 16 0 16 0 -6 16 -6 15 10 -6 c6 -3 10 -13 10 -21 l0 -14 21 0 21 0 -5 -13 -5 -13 12 -15 11 -16 30 19 c17 10 26 18 20 18 l-10 0 14 9 14 9 -14 31 -14 31 -6 -17 -6 -17 -5 26 -5 27 8 -5 9 -5 0 12 0 13 13 -16 c6 -8 21 -18 31 -22 l20 -7 -20 23 -19 23 17 -13 17 -13 10 20 c6 11 11 27 11 36 l0 16 10 -6 10 -6 -3 -33 -2 -33 -11 4 -11 4 -8 -18 c-5 -10 -9 -23 -10 -28 l-3 -11 19 -1 19 -2 6 11 7 10 -14 10 -14 10 19 -6 18 -6 -6 24 -6 24 16 13 16 13 9 -15 c5 -8 9 -19 9 -26 l0 -12 -15 5 -15 6 1 -23 1 -24 5 13 5 12 19 0 20 0 -7 11 -7 12 14 -5 14 -5 13 16 13 16 -6 -12 -6 -13 15 0 16 0 0 14 0 15 -26 20 c-15 12 -24 21 -20 21 l7 0 -11 20 -11 20 16 2 c8 0 21 1 28 2 6 1 17 8 24 16 l12 15 -6 -22 -5 -23 -12 -1 c-6 -1 -14 -1 -18 0 l-7 1 2 -21 1 -20 21 5 c11 3 24 6 28 6 l8 0 -6 23 -7 22 13 -12 c7 -7 17 -13 22 -13 l8 0 -15 22 c-9 12 -16 26 -16 31 l0 8 9 -6 10 -5 5 9 6 9 -6 17 -7 17 -7 -13 -8 -12 -19 18 c-10 10 -18 23 -18 29 l0 10 -32 3 -33 4 0 -10z m-172 -136 c12 -14 19 -25 16 -25 l-5 0 6 -10 7 -11 14 12 14 12 -6 -17 c-7 -18 -7 -18 -28 -10 l-16 6 0 14 0 14 -9 0 -8 0 3 -26 2 -26 -15 6 c-8 3 -19 6 -25 6 l-10 0 11 14 12 14 -18 11 -18 11 23 6 24 7 -14 8 -13 9 16 0 15 0 22 -25z m-12 -117 l-1 -23 13 3 12 2 0 -25 0 -25 -20 12 -20 13 2 10 c1 5 -3 20 -10 33 l-13 22 19 0 19 0 -1 -22z"/>
<path d="M6139 2478 c-1 -13 0 -34 1 -47 l2 -23 -13 7 -12 8 7 -12 8 -12 -12 -15 -13 -14 -12 17 -12 16 4 17 5 17 -17 17 -16 16 -20 0 -19 0 0 -10 0 -10 26 0 26 0 -6 -16 c-3 -9 -6 -18 -6 -20 0 -2 -7 -4 -15 -4 -8 0 -15 -3 -15 -7 0 -5 -7 -16 -14 -26 l-14 -18 -31 16 -31 16 0 -11 0 -10 11 0 10 0 -7 -12 -7 -11 10 6 11 7 6 -15 5 -15 16 7 17 6 10 26 9 26 15 -20 14 -19 -5 -14 -5 -13 10 6 10 6 0 -16 0 -16 -17 9 c-10 4 -24 8 -32 8 l-14 -1 -8 -23 -9 -23 9 6 10 5 6 -10 6 -10 9 5 9 6 -6 17 -7 17 17 -14 17 -13 -7 -11 -6 -10 11 7 10 6 5 -12 5 -13 1 19 1 18 15 -12 15 -12 0 8 c1 5 8 -3 16 -18 l15 -28 9 0 10 0 1 20 c1 11 3 25 4 30 1 6 3 15 4 21 l1 10 9 -5 c4 -3 11 -20 15 -37 l6 -31 15 12 15 12 0 -15 0 -16 35 6 35 6 0 -18 0 -17 16 6 c9 3 20 6 25 6 l9 0 -4 26 c-3 14 -10 32 -17 40 l-11 14 22 0 23 0 -7 7 c-8 8 -32 14 -63 17 l-21 1 1 10 c1 6 7 13 12 17 l10 8 -14 0 -13 0 5 23 6 22 -14 25 c-8 14 -14 21 -15 16 l0 -10 -14 19 -13 18 -19 -7 -19 -7 25 -19 24 -18 8 4 8 5 0 -9 c0 -5 -8 -19 -19 -30 l-18 -22 -6 6 -6 6 12 19 11 18 -7 8 -8 7 -8 -13 -9 -14 -9 6 -9 6 0 -30 0 -30 12 5 12 5 5 -13 5 -13 -9 -14 -9 -14 0 18 0 18 -10 -6 -10 -6 5 -9 5 -9 -32 10 c-42 12 -42 12 -23 -7 l16 -16 -4 -11 c-2 -6 -10 -11 -19 -13 l-16 -2 -5 19 -5 19 5 20 5 21 18 -6 17 -5 10 12 9 13 -1 27 c0 15 2 26 5 26 3 0 9 0 14 1 l10 1 -20 15 -19 15 19 11 18 11 -13 9 c-8 5 -17 9 -21 9 l-8 0 -1 -22z m109 -148 l-3 -9 -13 8 -13 8 7 17 7 18 9 -16 c5 -9 8 -21 6 -26z m62 -32 l0 -23 -9 14 -9 14 -3 -18 -4 -17 -25 22 c-14 12 -20 19 -15 16 l11 -5 14 10 c8 5 21 9 28 9 l12 0 0 -22z"/>
<path d="M5319 2460 l-11 -30 -8 5 -9 5 -6 -9 -6 -10 22 -43 22 -42 -12 -4 c-6 -2 -11 -8 -11 -13 l0 -9 25 12 25 11 0 10 c0 6 8 19 17 29 9 11 18 25 19 33 l2 15 -9 0 -9 0 0 14 c0 7 -7 19 -15 26 l-15 12 6 9 5 9 -11 0 -11 0 -10 -30z m32 -27 l14 -17 -13 8 -12 7 -8 -19 -7 -20 -14 15 -13 14 21 6 21 5 -6 9 c-9 16 3 10 17 -8z"/>
<path d="M5394 2434 c3 -9 6 -20 6 -26 l0 -10 15 12 15 13 -11 13 c-6 8 -16 14 -21 14 l-10 0 6 -16z"/>
<path d="M5970 2430 l0 -11 -22 -9 -23 -9 45 2 45 2 7 10 7 9 -5 8 -5 8 -25 0 -24 0 0 -10z"/>
<path d="M5670 2390 l0 -20 9 0 c6 0 12 3 14 8 l5 7 -14 13 -14 13 0 -21z"/>
<path d="M6298 2381 l4 -31 14 0 c19 0 17 10 -5 39 l-18 23 5 -31z"/>
<path d="M5665 2351 l-5 -10 9 -5 9 -6 12 15 12 15 -15 0 c-9 0 -18 -4 -22 -9z"/>
<path d="M2507 2322 l-27 -28 0 -148 0 -147 -32 -27 c-93 -78 -418 -364 -418 -368 0 -2 82 -4 183 -4 l182 0 111 94 111 94 79 -67 c43 -36 92 -78 109 -93 l30 -28 183 0 184 0 19 23 c10 12 18 25 19 29 0 4 -101 95 -225 203 l-225 196 0 150 0 149 -128 0 -128 0 -27 -28z m223 -184 l0 -153 157 -135 c86 -74 181 -156 210 -182 l53 -48 -151 0 -152 0 -41 38 c-56 50 -155 134 -176 149 l-16 12 -115 -100 -114 -99 -147 0 c-82 0 -148 2 -148 4 0 2 92 83 205 181 l205 178 0 154 0 153 115 0 115 0 0 -152z"/>
<path d="M3287 2320 l-27 -30 0 -210 0 -210 133 0 134 0 21 23 22 23 0 87 0 87 230 0 230 0 0 -120 0 -120 -357 0 -358 -1 -27 -24 -28 -24 0 -101 0 -100 518 0 519 0 21 23 22 23 0 352 0 352 -513 0 -514 0 -26 -30z m993 -365 l0 -335 -495 0 -495 0 0 85 0 85 380 0 380 0 0 160 0 160 -270 0 -270 0 0 -110 0 -110 -110 0 -110 0 0 200 0 200 495 0 495 0 0 -335z"/>
<path d="M4864 2325 l0 -24 8 5 c4 3 8 11 8 19 0 8 -4 16 -8 19 l-8 5 0 -24z"/>
<path d="M6807 2322 l-27 -28 0 -207 0 -207 350 0 350 0 0 -15 0 -15 -328 0 -328 0 -22 -25 -22 -25 0 -100 0 -101 438 3 439 3 37 29 c21 15 51 46 67 69 l29 40 0 133 0 133 -9 24 -10 25 -35 27 -35 27 -41 5 -42 6 89 86 c49 47 100 98 113 114 l23 27 -164 0 -164 -1 -113 -109 -112 -110 -100 0 -100 0 0 110 0 110 -128 0 -128 0 -27 -28z m223 -142 l0 -110 116 0 116 0 112 110 113 110 131 0 c73 0 132 -2 132 -4 0 -2 -51 -54 -112 -115 l-113 -111 40 0 41 0 44 -22 45 -23 17 -35 18 -35 0 -110 0 -110 -18 -35 -17 -35 -35 -17 -35 -18 -412 0 -413 0 0 85 0 85 350 0 350 0 0 55 0 55 -350 0 -350 0 0 188 0 189 7 6 6 7 109 0 108 0 0 -110z"/>
<path d="M7883 2323 l-23 -26 0 -104 0 -103 17 0 16 0 -16 -18 -17 -19 0 -180 0 -180 21 -27 21 -27 39 -19 38 -20 433 0 433 0 23 24 22 24 0 106 0 106 -17 0 -16 0 16 18 17 19 0 177 0 178 -20 28 -20 29 -34 20 -33 21 -439 -1 -439 0 -22 -26z m877 -58 l35 -21 17 -34 18 -35 0 -152 0 -153 -365 0 -365 0 0 -40 0 -40 365 0 365 0 0 -85 0 -85 -421 0 -421 0 -34 16 -35 17 -19 25 -20 25 0 168 0 169 360 0 360 0 0 35 0 35 -360 0 -360 0 0 90 0 91 423 -3 422 -3 35 -20z"/>
<path d="M8992 2327 l-22 -23 0 -107 0 -107 17 0 16 0 -16 -18 -17 -19 0 -101 0 -102 22 0 21 0 -21 -23 -22 -23 0 -102 0 -102 453 0 454 0 21 23 22 23 0 102 0 102 -132 0 -131 0 21 23 22 23 0 97 0 97 88 0 89 0 21 23 22 23 0 107 0 107 -453 0 -454 0 -21 -23z m868 -127 l0 -90 -435 0 -435 0 0 90 0 90 435 0 435 0 0 -90z m-220 -245 l0 -85 -325 0 -325 0 0 85 0 85 325 0 325 0 0 -85z m220 -250 l0 -85 -435 0 -435 0 0 85 0 85 435 0 435 0 0 -85z"/>
<path d="M10017 2322 l-27 -28 0 -347 0 -347 133 0 134 0 21 23 22 23 0 227 0 227 268 0 268 0 17 20 17 20 0 105 0 105 -413 0 -413 0 -27 -28z m793 -117 l0 -85 -285 0 -285 0 0 -250 0 -250 -115 0 -115 0 0 335 0 335 400 0 400 0 0 -85z"/>
<path d="M10967 2322 l-27 -28 0 -222 0 -222 22 0 21 0 -21 -23 -22 -23 0 -102 0 -102 458 0 459 0 21 23 22 23 0 102 0 102 -137 0 -136 0 21 23 22 23 0 102 0 102 -210 0 -210 0 0 125 0 125 -128 0 -128 0 -27 -28z m223 -157 l0 -125 210 0 210 0 0 -85 0 -85 -325 0 -325 0 0 210 0 210 115 0 115 0 0 -125z m650 -460 l0 -85 -440 0 -440 0 0 85 0 85 440 0 440 0 0 -85z"/>
<path d="M4737 2294 l-6 -7 10 -20 11 -20 -12 -7 -12 -7 16 -6 c9 -4 16 -11 16 -16 l0 -9 -17 2 -18 1 3 -18 3 -17 -14 -6 -15 -5 5 -20 5 -19 9 0 c5 0 8 3 8 8 -3 18 2 32 17 47 l16 16 15 -12 14 -12 -5 -13 -5 -13 32 4 c18 2 41 5 51 7 l19 3 2 -22 c1 -13 5 -26 8 -30 l7 -6 6 6 7 7 -13 15 -12 15 10 0 11 0 -5 15 -6 15 11 0 11 0 0 -15 0 -15 26 0 26 0 -12 15 -12 15 -8 -5 -7 -4 3 24 2 25 -21 -4 c-12 -3 -26 -5 -30 -5 l-8 -1 6 -10 6 -10 -10 0 -11 0 0 11 0 11 -12 -5 -13 -4 3 -18 3 -17 -11 7 -11 7 5 15 6 16 -11 13 c-6 8 -16 14 -21 14 l-10 0 5 -19 5 -20 -14 6 -13 5 -8 21 c-4 12 -8 28 -9 35 l-2 12 11 -7 10 -6 -6 17 c-4 10 -7 20 -7 22 0 6 -26 5 -33 -2z"/>
<path d="M4685 2221 l-6 -21 -11 6 -11 7 6 -17 7 -17 -9 6 -10 5 -26 -26 -26 -26 12 -14 11 -14 -18 0 -19 0 -13 -20 -13 -21 7 -10 7 -11 7 12 7 12 6 -16 6 -16 -12 -1 c-7 -1 -20 0 -30 1 l-18 1 7 -25 6 -26 -12 0 -12 0 12 -15 c7 -8 18 -15 24 -14 6 1 17 1 25 0 l13 -1 -12 -15 -13 -15 8 -8 8 -7 4 13 5 12 26 -1 27 -1 -27 -9 -27 -10 6 -15 5 -14 -9 0 c-5 0 -16 12 -23 26 l-14 26 -29 20 -29 21 7 -22 7 -22 -19 -14 -18 -14 22 2 22 1 -5 7 -4 7 15 5 14 6 -5 -13 -5 -13 19 -5 19 -5 -5 -32 -4 -31 -12 0 -11 0 15 -10 c8 -5 19 -10 23 -10 l8 0 -6 19 -6 19 11 7 10 6 0 -23 0 -24 -11 -11 -12 -12 24 6 c25 7 39 20 39 40 l0 12 -17 4 -18 5 18 1 17 1 0 14 0 15 20 -4 20 -4 0 12 c0 7 -7 21 -15 31 l-14 19 5 8 c3 5 12 9 20 9 l14 0 0 -16 0 -15 -10 6 -10 6 0 -6 c0 -4 8 -14 17 -23 l17 -17 -7 17 -6 17 10 6 9 6 -6 11 -7 11 11 -7 12 -7 0 10 0 10 -22 7 -22 7 17 11 16 12 -2 15 c-2 8 -7 20 -11 28 l-9 14 10 -6 10 -6 11 24 12 25 -25 -6 -25 -6 7 48 c3 27 9 51 12 54 8 6 8 26 -1 35 l-6 7 -7 -21z m-21 -62 l-7 -11 14 -9 14 -8 -22 2 -22 1 2 11 c1 5 7 13 12 17 14 11 17 10 9 -3z m21 -118 c-2 -2 -12 0 -22 4 -10 5 -22 7 -26 6 l-8 -1 5 9 6 9 24 -11 c14 -7 23 -14 21 -16z m-50 -11 l6 -10 -10 0 -11 0 0 -20 0 -20 10 0 11 0 8 22 8 21 6 -17 7 -18 -6 -9 -5 -9 -10 5 -9 6 0 -18 -1 -18 -10 18 -10 17 -16 0 -17 0 12 12 12 12 0 18 0 18 9 0 c6 0 13 -4 16 -10z"/>
<path d="M4761 2163 c0 -12 4 -34 9 -48 l10 -27 17 13 18 14 -17 -26 -17 -27 17 2 c20 1 32 15 32 39 l0 17 -19 0 -19 0 -10 13 c-5 6 -12 21 -15 32 l-5 20 -1 -22z"/>
<path d="M4846 2102 l-5 -8 20 -12 20 -13 -11 21 c-12 22 -16 24 -24 12z"/>
<path d="M4718 2058 l-4 -23 10 -17 10 -17 -10 -39 c-6 -21 -8 -44 -6 -50 l4 -12 14 0 14 0 0 -17 c0 -33 15 7 19 50 l1 8 9 -6 10 -5 6 10 6 10 -10 0 -11 0 0 11 c0 7 8 18 18 26 l17 13 -10 -1 c-5 -1 -14 -1 -20 0 l-10 1 15 10 15 10 -17 14 c-10 7 -18 18 -18 24 l0 10 -16 6 c-9 3 -19 6 -24 6 l-9 0 -3 -22z m51 -21 l14 -22 -16 14 -17 13 0 -11 0 -11 -10 0 -10 0 2 24 2 24 11 -4 c6 -3 17 -14 24 -27z m-9 -92 l0 -15 -11 0 -10 0 6 -10 6 -10 -11 0 -12 0 6 16 c3 9 6 20 6 25 0 5 5 9 10 9 l10 0 0 -15z"/>
<path d="M4810 2038 c0 -7 4 -19 9 -26 l8 -14 6 16 6 16 -12 0 -12 0 15 10 15 10 -17 0 -18 0 0 -12z"/>
<path d="M6210 1979 c0 -5 5 -9 10 -9 6 0 10 -4 10 -8 l0 -8 -50 6 -49 6 9 -11 9 -11 -9 -14 -10 -15 0 18 0 18 -9 -5 c-11 -7 -9 -24 7 -53 l13 -23 -8 0 c-4 0 -1 -5 7 -10 l15 -10 -10 0 -10 0 4 -51 3 -50 -18 3 -19 3 1 -17 2 -18 -8 0 c-4 0 -11 8 -14 17 l-7 16 10 7 10 6 -4 26 -5 26 15 6 15 5 0 16 0 16 -10 -6 -10 -6 5 -10 6 -9 -6 0 c-3 0 -16 9 -28 20 l-22 21 -3 -11 c-2 -6 -1 -18 3 -28 l6 -16 10 14 11 15 -6 -18 c-3 -10 -6 -25 -6 -33 l0 -13 -17 6 -18 6 16 -19 16 -19 0 -17 0 -18 -9 0 -9 0 3 18 4 17 -19 20 -18 20 3 27 4 27 -18 4 -18 5 0 -19 0 -18 -14 5 -14 5 -8 -12 -7 -12 11 7 12 7 0 -11 0 -11 11 7 11 7 -7 -22 -6 -21 11 0 11 0 -6 10 -6 10 10 0 c5 0 12 -4 15 -8 l5 -9 -22 -11 c-12 -6 -29 -10 -38 -10 l-17 1 -5 40 -5 40 -15 14 -14 14 -1 -43 c-1 -23 1 -50 4 -60 l5 -18 30 0 29 0 0 -11 0 -10 -20 6 -20 6 0 -20 0 -20 -10 -6 -10 -6 5 -10 6 -9 -10 0 -11 0 0 23 0 23 13 13 12 14 -12 -7 -13 -7 0 15 0 14 -17 -3 c-10 -2 -19 -4 -21 -4 -2 -1 4 -8 12 -17 20 -19 20 -38 1 -54 -8 -7 -15 -16 -15 -21 l0 -9 33 1 32 1 40 -15 40 -15 10 9 c5 5 13 9 18 9 l8 0 -7 -11 -7 -11 14 -10 14 -10 -28 7 -29 6 7 -11 6 -10 -10 0 c-5 0 -12 4 -15 9 l-6 9 -27 -7 -27 -7 -4 -15 -4 -14 12 15 12 15 5 -12 c2 -7 9 -13 14 -13 l10 0 -6 10 -6 10 12 0 11 0 -6 -35 -7 -35 16 -1 c29 -3 33 -4 42 -13 l8 -9 -14 8 -14 8 6 -17 c4 -10 7 -20 7 -22 0 -2 12 -4 26 -4 l26 0 -12 15 -12 15 16 0 16 0 0 -19 0 -19 -45 -4 -44 -3 5 22 6 23 -18 6 c-11 3 -25 8 -33 10 l-13 4 12 15 13 15 -7 7 -6 6 0 -13 0 -12 -14 11 -14 12 11 -36 11 -36 13 5 13 5 0 -14 c0 -24 2 -29 16 -50 16 -23 18 -35 5 -35 l-10 0 -3 18 -4 17 -2 -42 c0 -24 -4 -48 -7 -53 l-7 -11 11 -13 12 -14 -16 -6 -16 -6 6 -42 c4 -23 9 -47 12 -52 l6 -9 -11 7 -12 7 0 -10 c0 -5 5 -13 10 -16 l11 -7 -12 -14 -11 -14 20 0 20 0 5 -12 4 -13 -16 -12 -16 -12 33 9 32 9 0 -10 c0 -12 32 -49 39 -45 l6 4 2 -39 3 -39 -30 5 -30 5 0 -12 0 -13 -9 14 -9 15 -15 -13 -15 -12 -4 12 -4 12 -15 3 -16 2 -1 -37 -2 -36 -9 -3 -10 -3 6 -16 6 -16 -32 5 -33 5 -5 -15 -6 -14 14 -9 c8 -5 18 -9 22 -9 l8 0 -7 12 -7 11 20 -5 20 -5 17 9 16 9 -6 11 -7 11 11 -7 12 -7 0 18 0 18 9 -14 9 -13 -5 -18 -5 -19 -11 5 -12 4 -17 -31 -18 -30 -22 6 -23 6 18 -12 19 -11 11 11 11 11 19 0 19 0 -5 14 -5 14 24 0 24 0 0 -29 0 -29 -9 0 -9 0 -4 -24 -5 -25 16 -15 15 -16 13 22 12 23 1 -15 0 -15 11 15 11 15 -5 -22 -5 -22 24 16 24 15 0 13 c0 6 9 20 20 30 l20 18 1 -14 c3 -34 4 -39 12 -39 4 0 12 0 18 0 l11 0 -7 18 c-7 17 -9 35 -6 81 l1 23 17 -6 18 -7 -24 25 -24 26 14 1 c8 1 17 1 22 0 9 -1 9 12 1 33 l-6 16 -10 -6 -11 -7 5 9 c2 5 10 22 18 38 l15 29 -13 5 c-7 2 -17 13 -23 25 l-10 22 15 -19 16 -20 7 7 6 7 -16 18 c-10 10 -17 22 -17 26 l0 8 15 -6 15 -5 0 7 c0 5 -6 14 -12 21 l-13 12 20 -6 20 -7 -20 17 -20 16 15 10 15 9 -18 11 -17 10 20 28 19 28 -18 17 -19 18 -29 -18 c-15 -10 -34 -24 -40 -33 l-13 -15 0 11 c0 6 7 16 15 23 l16 13 -12 8 -13 7 14 17 14 16 1 33 2 33 -19 -5 -19 -5 3 14 3 14 -12 -3 -13 -2 0 11 0 11 15 -6 15 -5 1 27 c1 15 0 39 -1 53 l-1 26 15 0 15 0 -5 -9 -5 -8 10 0 10 0 11 -22 11 -23 -14 18 c-8 9 -19 17 -24 17 l-10 0 5 -30 4 -30 -12 -15 -12 -15 21 0 22 0 -6 10 -7 11 36 -4 35 -4 -3 19 -2 20 -13 7 -12 8 4 44 5 44 13 -3 14 -3 -25 23 c-14 13 -26 29 -28 36 l-2 13 9 -5 9 -6 5 19 5 19 -12 12 -11 12 23 -11 22 -12 0 7 c0 3 -10 14 -22 25 l-23 18 27 1 c14 0 33 3 42 6 l15 6 -5 11 -4 12 47 -1 c27 -1 52 1 56 3 l9 5 -27 28 -26 27 -2 22 -1 21 -11 0 -12 0 0 14 0 15 11 -2 c6 -1 14 -6 18 -12 l8 -10 0 15 0 15 10 -15 9 -14 -12 -8 -12 -8 18 -14 17 -13 0 -22 0 -21 15 0 15 0 -9 23 -9 24 13 0 14 0 -5 -9 -5 -8 10 0 11 0 0 -26 0 -25 -10 6 -10 6 0 -15 c0 -8 4 -18 10 -21 l9 -6 7 27 7 26 7 -13 8 -12 -3 -19 -4 -18 16 0 15 0 -5 -14 -5 -14 24 -11 24 -11 0 10 c0 6 -4 10 -9 10 -5 0 -12 8 -15 17 l-7 17 20 -18 19 -17 7 11 7 11 -12 14 -12 15 10 0 c5 0 15 -6 21 -14 l11 -13 -15 -13 -16 -13 16 -17 16 -18 -18 2 -18 1 0 -20 0 -20 18 -3 18 -4 14 12 14 12 -9 24 -10 24 15 0 15 0 6 -24 c3 -13 4 -35 2 -47 l-3 -24 -22 -10 -23 -10 0 -12 0 -13 13 0 12 0 -15 -11 -15 -10 30 3 29 3 7 25 7 25 1 -20 1 -20 9 15 10 14 -6 11 -6 10 13 -12 13 -12 -17 -26 -18 -27 6 -5 6 -6 15 13 15 13 7 -7 6 -6 -13 0 -13 0 6 -7 7 -6 -11 -13 -10 -12 13 -21 12 -20 -7 -7 -7 -8 -16 20 -16 19 6 -17 5 -18 -7 0 c-4 0 -14 5 -22 10 l-15 10 13 0 12 0 0 28 c0 16 -3 31 -6 35 l-6 6 -24 -27 -23 -27 16 -12 17 -13 -10 -1 c-5 -1 9 -7 31 -14 l40 -12 -3 -17 -3 -16 7 0 c4 0 17 8 28 18 l21 17 -15 -20 c-8 -11 -19 -23 -24 -27 l-10 -7 -13 17 -12 17 -1 -32 0 -33 -13 0 c-7 0 -18 5 -25 12 l-12 12 0 -25 0 -24 20 -13 20 -12 6 14 5 14 25 0 c14 -1 28 3 32 7 l7 8 -11 4 -12 4 15 29 14 30 12 0 12 0 -10 -8 -10 -7 1 -45 c1 -25 2 -50 3 -57 l1 -11 36 -21 c19 -12 38 -21 41 -21 l5 0 -4 40 -3 40 12 4 13 5 0 -9 0 -10 12 0 11 0 -6 7 -7 6 11 14 12 13 2 45 2 45 -12 0 -12 0 1 -22 1 -23 -12 2 -13 3 0 -11 0 -11 -13 10 -13 11 -11 -7 -12 -8 7 -11 c4 -6 16 -13 27 -15 l20 -5 -19 -8 -20 -9 -4 12 -4 12 -11 -7 -12 -6 7 8 8 8 -9 11 -9 11 -2 45 c-2 25 -2 51 -1 58 l1 13 10 -6 10 -6 -6 15 c-3 8 -12 17 -20 20 l-14 5 0 -9 0 -9 -15 5 c-8 4 -15 10 -15 16 l0 9 11 -7 11 -6 -11 21 -12 21 13 0 13 1 -17 13 c-10 7 -18 16 -18 19 l0 6 30 -2 30 -2 0 -7 c0 -5 -4 -8 -8 -8 l-8 0 -2 -26 -2 -25 12 7 11 7 -7 -11 -7 -12 8 0 c16 0 28 15 30 38 l3 22 -10 0 c-6 0 -10 5 -10 10 l0 10 11 0 11 0 5 -20 5 -20 15 0 14 0 -15 -16 c-20 -20 -20 -19 5 -21 l21 -2 -5 13 -5 14 11 12 12 13 -14 -8 -14 -8 6 22 6 23 -14 -6 -13 -5 4 25 4 24 -21 9 -22 8 12 7 12 8 -16 24 -15 24 7 1 c5 0 -2 4 -15 10 l-23 9 7 11 7 12 -14 -5 -14 -5 0 -11 c0 -5 -3 -13 -7 -17 l-6 -7 3 19 c2 10 4 21 4 26 1 4 8 7 16 7 l15 0 0 10 0 10 -32 -7 c-41 -7 -43 -9 -29 -27 l12 -14 -7 -41 -7 -41 11 0 10 0 -5 23 -5 22 9 -11 c4 -6 15 -13 24 -16 l16 -6 -4 26 -4 27 21 -42 21 -43 10 0 10 0 -7 -12 -7 -11 13 8 13 8 -7 -12 -8 -12 -21 7 c-12 4 -25 11 -28 16 l-6 10 -7 -17 -6 -17 -15 6 -15 5 0 -11 0 -11 -7 7 c-4 3 -8 13 -9 22 l-2 15 18 -6 18 -6 8 12 7 12 -42 -6 -42 -5 12 14 12 14 2 36 2 35 -21 -3 -21 -3 -13 15 -14 15 6 -17 5 -18 -9 0 c-5 0 -12 5 -15 10 l-7 11 12 14 c7 8 10 16 6 16 -23 5 -32 4 -43 -4 l-13 -9 0 10 c0 8 23 23 33 21 1 0 14 4 29 10 l27 10 5 -12 4 -12 1 20 1 20 -30 2 -30 2 0 -10 0 -10 -9 5 -9 6 -6 -16 -6 -15 -10 6 -11 7 11 13 12 14 -21 -2 -20 -1 5 -8 5 -8 -10 0 -10 0 -6 20 -6 20 -11 -6 -10 -6 11 21 12 21 -8 1 c-4 1 -15 1 -23 0 l-15 -1 -25 20 -25 20 22 0 21 0 4 -12 4 -11 40 0 41 0 0 -13 0 -13 -9 5 -8 5 0 -13 0 -13 31 -14 c16 -7 31 -12 33 -10 1 2 7 15 14 29 l12 25 -6 -22 -5 -23 16 0 16 0 -6 10 -6 10 10 0 11 0 0 -10 0 -10 20 0 21 0 -12 -21 -11 -21 10 -10 11 -11 18 8 c17 8 25 11 38 14 3 0 0 7 -7 15 l-13 13 -12 -4 -13 -5 0 17 0 16 13 -7 c6 -4 -1 5 -16 20 l-29 27 -16 -13 -15 -13 5 15 4 14 -19 23 -20 22 -8 -5 -9 -5 6 14 5 14 -17 14 -18 14 7 -18 7 -18 -10 6 -10 6 0 -10 c0 -6 4 -11 9 -11 5 0 11 -7 15 -15 l5 -15 -8 -22 -8 -22 -12 22 c-6 12 -9 22 -6 22 3 0 1 9 -5 21 l-12 21 -13 -6 -13 -5 -6 15 c-3 9 -6 27 -6 40 l0 24 -10 0 -10 0 0 -14 c0 -8 -5 -18 -10 -21 l-10 -6 2 8 c1 4 -3 18 -10 30 l-12 22 -24 -9 -24 -9 -5 5 c-3 3 -21 7 -41 8 l-36 3 0 -8z m90 -31 l0 -9 -10 6 -10 6 0 -6 c0 -4 10 -15 23 -25 l22 -18 -8 -8 -7 -8 -15 20 -15 19 1 -10 c3 -21 -1 -35 -10 -35 l-9 0 4 43 c1 23 3 43 3 44 2 7 31 -11 31 -19z m-91 -65 l24 -3 -13 14 -12 15 7 11 6 10 10 -6 9 -5 -5 -9 -6 -10 12 -21 11 -21 -10 6 -11 6 -6 -10 -6 -10 -20 10 -19 11 2 -10 3 -9 -10 -1 -10 -1 1 10 c1 6 2 25 3 43 l3 32 7 -24 6 -24 24 -4z m178 12 l0 -15 -14 11 c-7 6 -13 15 -13 20 l0 8 13 -5 14 -5 0 -14z m-139 -98 l3 -15 -23 6 -22 6 12 4 12 4 -6 10 -7 11 14 -5 14 -5 3 -16z m-24 -28 l-4 -7 16 -16 15 -16 -16 0 -16 0 -6 18 c-4 9 -11 20 -17 24 l-11 7 22 -2 22 -1 -5 -7z m-217 -44 l-6 -14 9 -6 10 -6 1 18 1 18 5 -18 5 -17 9 5 9 6 17 -11 18 -12 -17 6 -18 5 0 -8 0 -9 -22 6 -21 5 8 -12 7 -13 24 5 24 4 0 -14 0 -14 -10 6 -10 6 0 -9 0 -8 -30 0 c-16 0 -30 2 -31 5 0 3 -2 14 -4 23 l-3 18 8 5 8 5 -5 20 -5 20 12 0 12 0 -5 -15z m111 -86 c-1 -22 1 -42 5 -45 l6 -6 -10 -25 -9 -24 9 5 8 5 12 -27 13 -27 -20 18 -20 18 -7 -11 -8 -12 -20 31 -19 32 5 5 5 6 7 -21 6 -21 10 0 9 0 0 20 0 20 13 0 12 0 -14 9 -13 9 -8 41 c-8 44 -5 52 16 44 l14 -5 -2 -39z m-150 19 l3 -15 -14 0 -13 0 -1 19 -2 19 12 -4 c7 -2 13 -10 15 -19z m72 -108 l-15 -9 13 -13 c6 -6 12 -17 12 -22 l0 -10 -16 22 -16 23 -14 -12 -14 -11 0 7 c0 12 33 34 50 35 l15 0 -15 -10z m617 -170 l5 -15 -11 15 -11 15 0 -13 0 -13 -10 6 c-5 3 -10 11 -10 16 l0 10 17 -3 16 -3 4 -15z m-567 -39 c0 -4 -4 -12 -9 -20 l-8 -13 -7 11 c-4 6 -11 11 -15 11 l-8 0 5 -27 5 -28 15 -11 15 -11 -35 1 -35 1 4 12 5 13 9 -6 9 -5 0 10 0 11 -12 0 -13 0 13 9 13 8 -3 14 c-2 8 -6 16 -10 20 l-8 5 35 0 c19 0 35 -2 35 -5z m-80 -15 l0 -14 -20 5 -20 5 6 9 c3 5 12 9 20 9 l14 0 0 -14z m671 -76 l10 0 -7 13 -8 12 18 -15 18 -14 -11 -4 c-7 -2 -18 -1 -26 2 l-15 5 1 23 2 23 4 -22 4 -23 10 0z m-522 -13 c-2 -1 -20 -12 -39 -25 l-35 -23 34 30 c19 17 37 28 40 26 2 -3 2 -6 0 -8z m-109 -39 l0 -10 -15 6 -15 5 0 -15 0 -15 13 2 c6 1 21 1 32 0 l20 -1 -15 -10 -15 -10 13 0 12 0 0 -29 0 -29 13 -5 12 -6 -27 2 -28 1 -4 13 -5 13 14 0 15 0 0 10 c0 12 -40 35 -60 35 l-15 0 0 12 c0 6 -3 14 -7 18 l-7 7 5 12 5 12 29 -4 30 -4 0 -10z m80 -18 l0 15 9 -15 10 -14 -6 -10 c-3 -5 -7 -26 -9 -48 l-3 -39 12 7 12 7 -12 -14 c-7 -7 -13 -19 -13 -27 l0 -13 9 5 9 6 5 -14 6 -15 -10 -3 -10 -3 -2 -23 -1 -22 -8 -1 c-28 -5 -34 -5 -40 -2 l-7 3 9 30 9 30 -10 0 -10 0 6 10 6 10 11 -6 11 -7 -7 11 -6 10 10 27 c5 14 12 39 15 56 l5 29 -6 0 c-4 0 -13 -8 -20 -17 l-13 -18 2 20 c1 11 7 25 12 31 l10 12 7 -12 8 -11 0 15z m-104 -254 l24 -6 0 -16 0 -16 -15 12 -14 12 -12 -8 -12 -7 7 11 6 11 -10 6 -10 6 1 17 1 17 5 -17 4 -16 25 -6z m80 -11 l-5 -13 12 2 c7 1 19 6 27 11 l15 9 -12 -16 -13 -15 7 -6 6 -7 -19 0 -19 0 15 -10 15 -9 -17 -18 -18 -17 -5 6 c-6 6 -9 37 -6 81 l1 28 11 -6 10 -7 -5 -13z m-62 -86 l12 10 11 -18 12 -19 -22 6 c-12 2 -28 9 -34 15 l-13 9 7 12 8 11 3 -18 4 -18 12 10z m15 -71 l14 -23 -22 19 -21 19 0 -12 0 -12 -10 6 -10 6 -9 -23 -10 -23 0 19 -1 19 18 13 c24 19 35 17 51 -8z"/>
<path d="M5485 1948 l-28 -7 -11 6 -11 7 14 -17 c15 -19 9 -22 -19 -7 l-18 10 5 -19 5 -18 -29 -6 -28 -5 -11 9 -10 8 -3 -41 c-1 -23 -4 -45 -7 -50 l-5 -8 17 0 16 0 -4 30 c-3 17 -3 30 -1 30 9 0 33 -29 34 -42 l1 -13 8 30 8 30 1 -34 1 -35 14 20 15 19 22 -14 23 -14 4 12 4 12 23 -21 23 -21 6 25 6 26 16 0 15 0 -5 -9 -6 -9 25 -6 25 -6 -3 -11 -2 -12 30 -3 c17 -2 41 -4 55 -4 l25 0 -10 -8 c-5 -4 -11 -13 -12 -19 l-3 -13 12 0 11 0 -6 -6 -6 -6 14 -15 15 -14 15 15 15 15 -10 6 c-5 3 -10 10 -10 16 l0 9 15 0 16 0 -2 -12 c-1 -7 2 -28 6 -46 l8 -34 8 14 9 13 0 -12 0 -13 11 0 11 0 -6 15 -5 15 10 0 10 0 -6 10 -6 10 -9 -5 -9 -5 -6 11 -7 10 21 6 21 5 0 14 c0 16 5 17 29 5 l18 -10 0 15 0 14 -11 1 c-6 1 -21 0 -33 -1 l-23 -1 0 10 0 11 23 1 c12 1 29 1 37 0 l15 -2 -14 10 -15 9 10 14 9 14 -17 -18 -16 -18 -17 0 -17 0 11 13 11 14 -7 7 -7 7 -19 -23 -18 -23 10 22 11 21 -2 26 -2 25 -13 -11 -13 -10 -1 -52 -1 -51 -5 19 -5 20 -16 -35 -15 -34 -4 17 -4 17 11 20 c13 25 7 26 -26 5 l-24 -17 6 17 6 16 -11 0 c-6 0 -11 4 -11 9 l0 9 28 -2 c15 -2 33 -5 41 -7 l15 -4 4 19 4 18 -14 -8 -13 -8 14 17 13 17 -14 0 c-8 0 -19 -5 -26 -12 l-12 -12 0 12 0 12 11 0 10 0 -3 23 c-2 12 -7 25 -11 28 l-8 6 -24 -5 -24 -4 6 -14 c3 -8 9 -14 15 -14 l9 0 -6 10 -6 10 9 0 c5 0 15 -7 22 -16 l13 -15 -13 3 -14 3 -5 -25 -6 -25 -27 -3 -28 -3 0 21 0 21 -10 -6 -10 -6 7 17 6 17 -21 -5 -22 -6 0 7 c0 3 9 12 20 19 l20 12 0 -10 c0 -16 17 -12 24 6 l6 16 -35 -4 -35 -4 0 6 c0 8 -73 7 -105 -2z m55 -37 c0 -6 -8 -15 -18 -20 l-18 -10 -15 10 -14 9 13 0 13 0 -7 12 -7 11 11 -7 12 -7 0 21 0 21 15 -15 c8 -8 15 -19 15 -25z m85 -60 c-2 -9 -4 -18 -4 -21 -2 -6 -21 23 -21 31 0 3 6 6 14 6 l14 0 -3 -16z"/>
<path d="M6076 1934 l-7 -17 9 -9 9 -9 12 14 11 14 -14 12 -14 12 -6 -17z"/>
<path d="M6436 1925 l-5 -15 14 0 15 0 0 9 c0 6 -4 12 -9 15 l-9 6 -6 -15z"/>
<path d="M6041 1901 l-11 -19 17 2 17 3 3 10 4 11 -10 6 -10 7 -10 -20z"/>
<path d="M4513 1884 l-6 -16 10 -33 10 -32 -8 -16 -9 -15 6 -16 6 -16 14 0 c17 0 17 -4 1 -38 -11 -25 -13 -36 -8 -84 l1 -18 22 0 21 0 -5 -6 -6 -5 25 -25 24 -24 11 6 11 7 -21 8 -22 8 0 21 0 20 -24 0 -24 0 -4 12 c-2 6 -2 24 0 40 l5 30 19 -5 20 -6 -5 19 -5 19 18 6 17 5 16 -5 15 -6 -16 -40 -15 -39 -9 0 -9 0 5 9 6 9 -14 5 -14 6 -6 -16 -6 -15 6 -10 6 -10 33 4 34 4 -5 -7 -4 -7 14 -5 14 -5 11 11 12 12 -7 -18 -6 -17 16 6 16 6 -10 18 -10 18 13 5 12 5 -17 1 -16 1 -4 -9 -3 -8 -20 19 -20 20 33 -5 32 -5 1 21 c1 12 3 31 5 42 9 47 12 72 13 95 l1 24 12 -12 c7 -7 16 -12 20 -12 l9 0 -11 20 -11 20 -14 0 -15 0 3 8 c1 4 -2 7 -8 7 l-10 0 1 -13 2 -13 -18 16 -18 16 -7 -10 -6 -11 15 -6 16 -6 -6 -9 -5 -9 10 0 11 0 0 -19 0 -20 -11 -6 -10 -7 5 -14 5 -14 -11 0 -10 0 12 -15 12 -15 -7 0 -7 0 10 -13 11 -13 -8 -12 -8 -13 -13 16 -12 15 10 0 10 0 -2 16 -3 17 -16 12 c-9 7 -17 16 -17 20 l0 7 15 -12 15 -12 0 10 0 11 -19 11 c-11 5 -26 10 -33 10 l-13 0 10 -8 c6 -4 11 -14 13 -22 l3 -15 -12 13 -13 12 -18 0 -18 0 0 20 0 20 -10 0 -10 0 0 25 0 25 15 0 15 0 0 10 0 10 -21 0 -20 0 6 10 6 10 -6 0 c-3 0 -8 -7 -12 -16z"/>
<path d="M4476 1853 c-3 -3 -6 -10 -6 -15 l0 -8 15 0 15 0 0 9 c0 6 -4 12 -9 15 l-8 5 -7 -6z"/>
<path d="M5303 1853 l6 -9 -22 0 -21 1 -6 -30 -5 -30 -28 -3 -27 -3 0 -9 c0 -5 3 -15 6 -24 l6 -16 9 6 9 5 1 -8 c0 -4 2 -16 4 -26 l3 -18 -14 12 -14 11 0 -16 0 -17 -10 6 -10 6 5 9 5 9 -10 6 -10 6 0 -20 0 -19 -12 -4 -12 -4 -3 -50 c-1 -27 -3 -56 -4 -64 -1 -8 -1 -25 -1 -37 l2 -23 21 0 21 0 -12 15 -12 15 21 0 21 0 0 -14 c0 -8 -5 -18 -10 -21 l-10 -6 6 -11 7 -11 -11 7 -12 7 0 -11 0 -11 14 -5 15 -6 -6 -14 -5 -14 13 -1 c8 -1 17 -1 22 0 4 0 7 -4 7 -10 l0 -10 9 5 9 6 6 -16 6 -15 -10 6 -10 6 0 -16 0 -16 -14 13 -14 13 6 9 5 9 -13 -8 -13 -8 -14 18 -13 19 0 -13 0 -12 -17 17 -18 18 -3 -18 -4 -18 22 -16 c12 -10 30 -24 39 -33 l17 -15 18 10 19 11 4 -12 c7 -20 0 -26 -34 -28 l-31 -2 6 15 5 15 -12 -7 -12 -8 3 -21 3 -22 -20 -3 -20 -3 15 10 15 11 -17 0 -18 0 0 -15 0 -15 10 0 11 0 9 -22 9 -23 0 23 1 22 10 0 10 0 0 -11 0 -10 10 6 9 6 -14 -34 -14 -34 10 -10 10 -10 -11 -27 -10 -27 -10 6 -10 6 5 40 5 40 -10 -6 -10 -6 -1 23 c-1 13 -1 26 0 31 0 4 -2 7 -6 7 l-8 0 -1 -73 -1 -72 19 -16 c10 -9 18 -19 18 -23 l0 -7 -8 5 -8 5 -13 -21 -12 -20 10 7 11 6 0 -20 0 -21 16 0 15 0 -6 10 -6 10 15 -6 16 -6 -2 -23 -2 -23 -13 5 -13 5 0 -16 0 -15 -14 5 -14 5 5 17 4 18 -20 1 -21 2 -10 -19 -10 -18 15 -6 15 -5 0 11 0 10 15 -12 c15 -12 47 -70 39 -70 -2 0 -13 6 -25 13 l-20 12 -15 -19 c-8 -11 -14 -28 -14 -38 l0 -18 10 0 10 0 0 11 0 10 9 -5 c5 -3 12 -18 16 -33 l6 -27 17 -13 17 -12 -11 -1 c-6 0 -14 3 -18 7 -3 4 -13 8 -21 9 l-15 2 5 -8 5 -9 -10 -6 c-13 -8 -13 -25 1 -25 l10 0 -6 10 -6 10 10 0 11 0 0 -10 c0 -5 0 -13 -1 -16 -1 -7 22 -24 33 -24 l7 0 -4 20 -4 20 8 5 9 5 5 -20 5 -20 16 0 16 0 0 9 c0 4 -9 19 -19 33 l-19 24 19 1 19 2 0 -25 0 -25 10 6 10 6 6 -15 6 -16 15 0 14 0 -16 16 -16 17 12 8 c7 4 16 6 19 4 l7 -4 0 14 0 13 -29 -3 -28 -4 0 18 0 19 -16 6 c-23 9 -26 8 -19 -6 l6 -13 -13 15 -13 16 -18 -2 -17 -2 15 5 16 5 -11 13 -11 13 11 7 12 7 11 -11 11 -11 -13 0 -12 0 6 -10 c3 -5 13 -10 20 -10 l14 0 -5 18 -6 17 12 -18 12 -18 15 18 c8 10 12 13 9 6 l-6 -11 6 -16 c9 -24 18 -20 31 13 l11 29 -14 -5 -14 -5 0 25 0 25 18 8 c9 4 22 8 27 9 6 0 16 4 24 9 l14 9 -7 -11 -7 -12 10 0 11 0 0 14 0 14 -22 7 c-13 4 -31 8 -41 8 l-18 0 7 20 6 20 -9 -6 -9 -6 0 20 0 19 8 0 c4 0 8 -5 8 -11 l0 -10 16 15 c17 18 28 21 19 6 l-6 -10 15 0 16 0 0 -17 0 -18 -9 13 -8 13 -12 -14 -11 -14 12 -11 13 -10 18 23 17 24 -10 6 -10 6 0 30 0 30 11 -7 11 -6 -16 30 -16 31 10 6 10 6 0 20 0 20 -10 -6 -10 -6 5 -10 6 -9 -9 0 -10 0 -11 -30 -10 -31 10 7 11 6 -4 -18 -4 -19 -17 1 -17 2 5 -8 5 -9 -10 -6 -10 -6 0 18 0 19 -12 12 -11 11 16 7 17 6 0 22 c0 11 -4 27 -9 35 l-9 14 -22 -6 -21 -5 12 14 11 14 -10 0 -11 0 6 15 5 16 16 -22 15 -21 10 17 9 17 -13 9 -14 9 14 0 13 0 -9 13 -9 12 2 60 2 60 -10 12 -9 11 11 7 10 6 8 -5 9 -5 -5 -31 -4 -31 13 3 14 3 -1 -22 -1 -23 14 11 13 11 0 -16 0 -16 8 0 9 0 -4 38 c-1 20 -4 55 -6 77 l-3 40 10 17 10 17 -7 8 -8 7 -9 -13 -8 -14 -15 6 -15 6 5 -20 5 -19 11 7 10 6 -6 -15 -5 -16 9 -11 c5 -6 6 -9 3 -6 l-7 5 -14 -18 c-8 -9 -12 -12 -9 -5 l6 12 -9 5 -10 6 5 25 4 25 -11 0 -11 0 5 14 5 14 -11 11 c-6 6 -15 11 -19 11 l-8 0 0 -20 0 -20 -19 18 c-10 9 -18 19 -17 22 1 11 -25 50 -34 50 l-10 0 0 -15 0 -15 -10 0 -10 0 3 12 c1 7 10 21 19 32 l17 19 -6 10 -5 9 -9 -13 -9 -14 0 10 c0 6 10 21 21 35 l21 25 -5 -41 -5 -41 8 -14 8 -13 24 11 23 10 -22 12 -22 11 5 15 6 15 11 0 10 0 -6 -6 -6 -6 14 -14 c7 -8 18 -14 25 -14 l10 0 -16 28 -16 27 21 -27 c12 -15 22 -31 23 -35 0 -4 4 -16 9 -25 l10 -18 -11 0 -10 0 0 10 0 10 -15 0 -14 0 5 -15 c3 -8 9 -14 12 -13 4 0 13 0 21 -1 l13 -1 -6 -15 -5 -15 12 0 13 0 -2 29 -2 30 12 -5 11 -4 0 32 -1 33 11 18 10 18 -27 24 c-16 13 -28 29 -28 35 l0 11 16 -16 17 -16 13 5 13 5 -6 -15 -5 -14 16 0 16 0 -6 -26 -7 -27 13 8 13 8 -7 -11 -7 -12 9 0 c5 0 12 3 15 6 l6 7 -11 21 -10 21 12 -12 13 -12 26 17 c14 9 27 17 29 18 6 4 -23 44 -36 49 l-12 5 11 -21 11 -21 -11 6 -11 7 -11 -7 -11 -6 13 -9 14 -9 -10 0 c-5 0 -17 5 -25 10 l-15 10 12 0 12 0 -5 14 -5 13 15 15 15 16 -15 18 -16 19 6 -17 5 -17 -10 -6 -9 -6 1 8 c1 4 1 14 0 21 l-1 12 -10 0 -10 0 0 -19 0 -20 10 -6 c6 -3 10 -13 10 -22 l0 -15 -14 11 -13 11 -17 -6 -16 -6 6 16 6 16 -8 1 c-5 0 -25 2 -44 4 -49 3 -50 4 -50 16 l0 10 19 -6 19 -6 6 9 6 10 -15 12 c-8 7 -15 17 -15 22 l0 9 28 -3 27 -3 0 14 0 14 -14 5 -14 5 6 -10z m1 -155 l-6 -9 22 -6 21 -6 -3 -26 -3 -26 -19 -3 -19 -4 5 20 6 21 -16 -6 -15 -6 5 31 4 31 -9 -6 -10 -6 7 11 7 11 14 -5 15 -6 -6 -10z m-38 -17 l-7 -11 -17 1 -17 1 13 5 12 5 0 16 0 16 11 -11 11 -11 -6 -11z m10 -213 c-4 6 -5 12 -2 12 3 0 10 -8 15 -18 l9 -18 -26 2 -27 1 3 6 c1 4 2 12 2 18 l0 11 17 -13 17 -14 -8 13z m-3 -188 l-5 -20 -9 6 -9 5 5 9 5 8 -12 5 -13 5 22 1 21 1 -5 -20z m13 -145 l-6 -16 -9 5 -9 6 -4 -12 -4 -12 -17 7 -17 6 0 11 0 10 30 0 30 0 0 12 0 11 6 -6 6 -6 -6 -16z m-76 -77 l0 -8 -22 1 -23 1 17 5 17 4 -5 17 -6 17 11 -15 c6 -8 11 -18 11 -22z m51 -2 c1 -6 2 -23 3 -37 l2 -26 -23 0 -23 0 0 13 0 14 15 0 15 0 0 11 0 10 -10 -6 -10 -6 0 25 0 25 15 -5 c8 -4 16 -11 16 -18z m-4 -114 l-1 -19 -13 0 -13 0 0 9 0 9 -10 -6 -10 -6 6 15 6 16 18 0 19 0 -2 -18z m11 -44 l-4 -11 -30 -4 -29 -3 30 14 c38 18 37 18 33 4z"/>
<path d="M5945 1849 c-10 -14 -1 -21 19 -13 l16 6 -6 9 c-7 12 -21 11 -29 -2z"/>
<path d="M5437 1823 c-4 -3 -7 -12 -7 -20 l0 -13 18 -1 17 -1 -11 -4 -12 -5 5 -19 5 -20 18 0 18 0 5 14 6 14 15 -2 c9 -1 19 -6 23 -11 l8 -8 -11 6 -12 7 -6 -26 c-8 -31 -5 -37 18 -28 l16 6 -7 11 -6 10 15 -6 16 -6 -5 20 -5 19 10 0 c6 0 17 -3 26 -6 l16 -6 -6 -9 -5 -9 10 0 c5 0 13 4 16 10 l6 9 -20 18 -20 17 4 7 5 7 -15 12 -15 12 0 -8 0 -9 -10 15 -11 15 7 -28 6 -27 -29 3 c-16 2 -35 7 -43 12 -15 10 -20 11 -41 14 l-10 1 6 10 c7 11 2 13 -8 3z"/>
<path d="M4487 1803 l7 -18 -16 13 -16 12 -4 -18 c-3 -10 -4 -33 -3 -51 l3 -32 -14 5 -14 5 0 -9 c0 -5 7 -15 15 -23 l14 -15 -12 -10 c-7 -5 -19 -12 -27 -14 l-15 -6 55 2 55 1 0 30 1 30 -11 22 -10 23 -12 0 -13 0 0 9 0 10 21 6 20 7 -3 16 -3 15 -13 5 -12 4 7 -19z"/>
<path d="M5320 1791 c0 -3 4 -12 9 -20 l9 -14 10 7 11 7 -5 13 -5 13 -14 0 c-8 0 -15 -3 -15 -6z"/>
<path d="M6556 1721 l-6 -9 15 -12 14 -12 -2 21 -1 21 -8 0 c-4 0 -9 -4 -12 -9z"/>
<path d="M4590 1685 l0 -15 9 0 c5 0 11 7 15 15 l5 15 -14 0 -15 0 0 -15z"/>
<path d="M5891 1626 l-24 -13 27 -5 26 -5 0 18 c0 22 2 22 -29 5z"/>
<path d="M4419 1618 c0 -7 -2 -22 -5 -33 -2 -11 -2 -34 1 -52 l6 -32 31 -6 31 -7 -13 -8 -12 -7 16 -6 16 -6 0 -13 0 -13 -11 15 -10 15 7 -37 6 -37 -16 -23 -16 -22 0 11 0 11 -21 -5 -20 -6 10 -10 11 -11 30 11 30 11 0 -6 c0 -10 -20 -38 -20 -29 l0 7 -23 -15 -24 -15 -6 7 -7 6 0 -25 0 -26 27 -7 27 -6 -14 -9 -14 -9 -8 5 -8 5 0 -10 c0 -5 4 -12 9 -16 l10 -5 -6 -34 -5 -33 8 -6 9 -5 33 5 33 5 -5 14 -5 14 9 0 10 0 1 -12 c1 -7 0 -17 -1 -23 l-2 -10 7 7 7 6 27 -8 28 -8 0 14 0 13 -7 -4 c-3 -2 -12 0 -19 4 l-13 8 32 7 32 6 -13 16 -13 16 10 6 c5 4 15 18 22 32 l12 25 -5 -22 -6 -22 13 -20 c7 -12 15 -21 18 -21 l6 0 -4 35 -4 35 11 0 12 0 -5 -9 -6 -9 6 -16 c3 -9 10 -16 14 -16 l8 0 -5 23 c-3 12 -10 27 -14 33 l-9 11 6 6 6 6 13 -5 12 -5 -4 25 -5 26 -13 0 -14 0 -4 -17 -5 -18 -1 27 -1 27 -16 9 -16 9 16 6 17 7 -6 -9 -5 -10 12 -8 c7 -4 19 -8 26 -9 l13 -2 -7 21 c-3 12 -11 27 -16 34 l-10 12 7 13 6 13 -17 -20 -17 -20 7 20 c4 11 8 24 9 30 l2 10 -22 3 -23 3 0 8 0 8 21 -2 22 -1 12 -17 12 -17 6 7 c4 3 7 10 7 15 l0 9 -9 -5 -9 -6 -6 16 c-3 9 -6 20 -6 25 l0 9 15 0 15 0 -16 25 c-9 14 -20 25 -25 25 l-9 0 0 -13 0 -13 -22 -1 -22 -2 -13 11 -13 10 0 -13 -1 -14 -14 19 -15 20 -13 -19 -14 -18 -7 11 -7 12 10 0 11 0 0 15 0 15 -15 0 c-8 0 -18 -1 -22 -2 l-8 -3 3 -30 2 -30 -13 23 -13 23 -6 -7 -6 -6 -11 20 -11 20 15 5 14 6 -6 -15 -5 -14 13 5 14 5 2 31 2 32 -20 -19 -20 -18 7 17 6 17 -11 0 -11 0 -1 -12z m156 -178 l0 -45 -27 -3 -28 -3 0 16 0 16 10 -6 c16 -10 11 1 -7 16 l-17 14 8 -12 7 -13 -9 0 -10 0 -4 33 -4 34 41 -1 40 -1 0 -45z m40 -47 c-5 -10 -7 -22 -6 -28 l1 -10 -15 20 -16 20 15 3 16 3 0 11 0 11 6 -6 6 -6 -7 -18z m-1 -68 l6 -15 -23 11 c-32 17 -33 19 -10 19 l21 0 6 -15z m-113 -24 l1 14 5 -12 5 -13 20 11 20 11 -7 -12 -8 -13 20 -16 20 -16 -6 -20 -6 -21 -50 14 -50 15 12 4 11 4 -8 30 -9 31 14 -12 15 -12 1 13z"/>
<path d="M4530 1468 l0 -8 14 0 c8 0 17 4 21 9 l5 10 -20 -2 -20 -1 0 -8z"/>
<path d="M4537 1263 l-5 -8 14 -13 14 -13 0 15 c0 8 -4 17 -9 21 l-10 5 -4 -7z"/>
<path d="M4483 1623 l7 -6 -10 -12 -10 -12 13 0 c6 0 19 -3 27 -5 8 -3 12 -3 8 -1 l-7 4 6 16 6 16 -11 -7 -12 -7 0 10 0 11 -12 0 -11 0 6 -7z"/>
<path d="M5376 1622 l-5 -9 6 -21 5 -22 9 6 c5 3 9 14 9 24 l0 19 -9 6 -10 5 -5 -8z"/>
<path d="M4622 1587 l3 -22 16 -3 16 -3 6 13 5 14 -25 11 -24 12 3 -22z"/>
<path d="M4675 1579 l-7 -10 6 -6 6 -7 11 11 11 11 -10 6 -11 6 -6 -11z"/>
<path d="M4429 1483 c-1 -5 -1 -11 0 -15 0 -5 -3 -8 -9 -8 l-10 0 0 -13 0 -14 15 0 14 0 -5 9 -5 8 15 0 c18 0 19 2 10 24 -6 16 -23 22 -25 9z"/>
<path d="M5146 1482 l-4 -7 13 -25 14 -25 -2 23 -1 22 -9 0 -8 0 6 10 c3 6 4 10 1 10 -3 0 -7 -3 -10 -8z"/>
<path d="M6500 1450 l0 -24 12 12 12 12 -12 12 -12 12 0 -24z"/>
<path d="M6725 1429 l4 -21 -19 -5 -19 -5 -5 -15 -6 -14 14 -15 14 -14 5 13 5 12 1 -15 1 -16 20 0 20 0 -4 26 -3 25 -11 -2 -11 -3 6 15 5 16 14 -12 14 -11 0 11 c0 13 -31 51 -42 51 l-7 0 4 -21z"/>
<path d="M4435 1394 l-16 -25 20 10 c11 6 22 15 26 20 l5 10 -9 5 -9 6 -17 -26z"/>
<path d="M6130 1371 c0 -5 7 -12 16 -15 l15 -6 -6 -10 -7 -11 12 -14 11 -14 15 6 15 5 -17 19 -17 19 8 0 7 0 -12 15 c-7 8 -19 15 -26 15 l-14 0 0 -9z"/>
<path d="M6520 1334 c0 -7 27 -34 35 -34 3 0 1 9 -5 20 -10 18 -30 28 -30 14z"/>
<path d="M5322 1287 l16 -13 -16 -12 -17 -11 15 -10 15 -10 -19 -14 -19 -14 8 -13 7 -12 27 28 c14 16 25 32 24 36 l-3 8 10 0 10 0 0 14 c0 18 -6 21 -45 30 l-30 6 17 -13z"/>
<path d="M6125 1286 l-18 -13 11 -7 12 -7 0 11 0 11 9 -6 10 -5 5 9 6 10 -8 5 -9 5 -18 -13z"/>
<path d="M6600 1240 c0 -5 -3 -9 -7 -8 -5 0 -16 -2 -25 -6 l-18 -8 0 -19 0 -19 -15 0 -15 0 0 -35 0 -35 15 0 15 0 0 -10 0 -10 25 0 26 0 32 -17 32 -17 -18 -4 -18 -4 -14 12 -15 12 0 -13 0 -14 -9 14 c-5 8 -16 16 -25 17 l-16 2 -6 -9 -5 -9 -10 5 -9 6 0 -23 c1 -13 -2 -38 -6 -57 l-7 -34 17 6 17 7 11 -25 c6 -14 15 -25 19 -25 l8 0 -5 -15 -6 -15 -18 10 c-26 14 -28 13 -35 -20 l-7 -30 -9 0 -10 0 11 19 10 20 -8 5 -9 5 -12 -42 c-7 -23 -23 -63 -37 -89 l-24 -48 27 -1 28 -1 -20 -6 -20 -7 -2 -21 -2 -21 22 1 22 1 3 -22 3 -23 -9 0 c-6 0 -13 7 -16 16 l-6 16 -15 -6 -15 -5 1 7 c1 4 1 13 0 20 l-1 12 -9 0 -10 0 -6 -19 -6 -20 -19 -6 -18 -6 -6 -16 -7 -16 13 -10 13 -9 -22 5 -22 5 -5 -15 c-9 -22 -8 -23 14 -23 l20 0 0 -10 0 -10 -11 0 c-6 0 -19 5 -30 10 l-19 11 0 -16 0 -15 -12 -1 -13 -1 23 -6 23 -7 -16 -20 -15 -20 6 16 5 16 -21 6 -22 6 6 -16 6 -15 -15 5 -14 6 -15 -15 c-9 -8 -30 -21 -48 -29 -18 -8 -28 -14 -23 -15 l10 0 -13 -8 -13 -9 10 -26 11 -27 -8 0 c-5 0 -13 5 -20 12 l-12 12 -1 -17 c-2 -30 -4 -35 -11 -42 l-7 -7 4 31 4 32 -9 -6 -9 -5 -5 9 -6 9 17 5 18 5 -18 1 -18 1 -6 -17 -7 -17 12 -4 12 -4 0 -24 0 -24 10 0 c6 0 10 -4 10 -10 l0 -10 -25 12 -25 11 6 20 6 20 -13 -8 -14 -8 7 8 8 8 -11 14 c-6 7 -17 13 -24 13 l-12 0 -1 -15 c-1 -8 -3 -22 -4 -30 l-1 -14 -8 5 -8 4 -6 -10 -7 -11 -11 16 -12 15 -21 4 -20 4 -1 -33 -1 -33 21 6 20 5 -7 -11 -7 -12 10 0 11 0 0 10 0 10 28 0 27 -1 -19 -14 -18 -14 7 -11 8 -12 9 13 9 14 -6 -22 -6 -22 18 -10 18 -10 -20 -1 -20 0 15 -10 15 -10 -13 0 -13 0 -5 14 -6 15 -19 -4 -20 -4 7 11 7 11 -15 -5 -15 -6 -13 8 -13 8 22 7 c24 7 27 18 8 34 l-14 11 -6 -6 -6 -6 6 -14 5 -14 -6 0 c-4 0 -17 9 -29 20 l-21 20 -12 -4 -13 -5 -11 15 c-7 8 -19 14 -26 14 l-14 0 0 -25 0 -25 -10 0 -10 0 0 -15 0 -15 -10 0 -10 0 0 24 0 24 14 11 14 12 -5 19 -5 20 -9 0 c-6 0 -12 -6 -15 -13 l-5 -14 -34 0 -35 0 0 10 0 10 -7 -6 -6 -7 -11 9 -11 9 -42 3 -43 3 -12 -12 -13 -13 15 -10 15 -11 -17 6 -18 5 0 -9 0 -10 18 0 c10 0 28 -7 40 -16 l22 -15 0 -12 0 -12 -10 15 -10 15 0 -16 0 -17 -17 -6 -16 -7 -11 11 -11 11 10 -1 c6 -2 16 -2 23 -1 l12 1 0 18 0 17 -9 -14 -8 -13 -7 11 -7 11 8 1 c4 0 -3 5 -16 10 l-23 9 6 15 6 16 -18 -3 -17 -3 2 18 1 18 -5 -5 -6 -5 -20 14 -21 14 -12 -10 -12 -10 -8 12 -7 12 13 -8 13 -8 -7 11 -7 12 -15 0 -15 0 9 -16 9 -17 -4 -18 -5 -19 11 0 11 0 0 15 0 15 10 0 10 0 0 -11 0 -11 18 13 17 14 -14 -17 -13 -18 -9 6 -9 5 0 -26 0 -26 -12 7 -11 7 6 -15 6 -16 -20 5 -20 6 4 41 5 42 -13 18 -13 17 -4 -8 c-3 -4 -8 -16 -11 -25 l-6 -17 15 6 14 5 0 -9 c0 -5 -4 -13 -9 -18 -4 -6 -11 -26 -15 -45 l-6 -35 9 14 9 13 6 -11 7 -11 -14 -6 -15 -5 2 -24 3 -23 -12 4 -12 5 -1 -31 -1 -30 15 0 15 0 -7 12 -7 11 14 -9 c8 -5 25 -10 39 -12 l25 -3 3 -10 4 -9 15 0 14 0 -7 22 -7 23 16 -14 17 -13 -7 -12 -6 -11 8 7 8 7 21 -14 c11 -8 26 -15 33 -15 l12 0 -6 18 -7 17 18 -17 c9 -10 22 -18 27 -18 l10 0 8 22 8 22 7 -27 6 -27 30 0 29 0 6 10 c3 6 11 10 16 10 l10 0 -6 -10 -6 -10 15 0 16 0 0 14 0 14 13 5 12 6 -32 -3 -33 -3 6 9 6 9 11 -4 12 -4 18 9 17 9 0 -23 1 -23 10 18 11 18 -6 14 -5 14 10 3 11 4 1 27 c2 33 3 33 18 6 l11 -21 -11 6 -11 7 0 -10 0 -11 15 0 15 0 0 12 c0 6 2 9 5 6 6 -6 -18 -58 -27 -58 l-8 0 0 -18 0 -19 15 0 15 0 1 11 c1 6 0 19 -1 29 l-2 19 18 -4 17 -3 5 -15 5 -15 -15 13 -15 12 5 -25 4 -25 9 0 c6 0 12 6 15 13 l5 14 14 0 15 0 -13 -15 -12 -15 33 17 32 17 0 -11 0 -11 13 8 12 7 23 -3 22 -2 6 15 6 16 -12 15 -12 15 -9 -6 -9 -5 7 17 6 17 -13 -8 -13 -8 6 11 7 10 24 -11 24 -11 -5 -14 -5 -13 26 5 26 5 0 -10 0 -9 20 0 20 0 0 18 0 17 9 -14 9 -13 7 12 7 11 15 -6 16 -5 -13 15 -13 16 11 11 12 12 0 -17 c0 -22 8 -21 33 1 l20 17 -7 -13 -7 -12 10 0 11 0 0 15 0 15 10 0 9 0 -5 15 -6 15 15 -6 16 -6 -6 -14 -5 -14 5 0 c3 0 26 14 51 31 l46 30 0 10 0 10 -8 -5 -8 -5 1 22 0 22 -10 2 c-5 1 -12 10 -16 20 l-6 18 5 17 4 17 14 -6 15 -5 -12 -14 -12 -14 17 6 c9 3 16 10 16 15 0 5 5 9 11 9 l10 0 -7 -12 -7 -11 11 7 12 7 0 -20 0 -21 9 0 c5 0 16 3 25 6 l16 6 -11 19 -10 20 22 38 22 39 19 6 20 5 14 -6 14 -5 0 -21 0 -20 8 7 c4 4 7 13 7 19 l1 12 11 -2 12 -3 25 31 25 30 -5 14 -6 15 12 0 c6 0 18 7 27 16 l16 15 -12 25 c-14 32 -14 37 1 32 l13 -5 14 14 13 14 -18 14 -19 13 -6 -10 -7 -11 -11 7 c-6 4 -11 11 -11 17 l0 9 23 0 22 0 -13 9 c-8 4 -14 12 -15 17 l-2 9 -17 -2 -18 -3 0 11 0 11 25 -4 25 -5 6 8 c3 5 10 9 16 9 l10 0 -10 -13 -11 -13 9 -13 8 -14 -5 -14 -5 -13 12 0 c16 0 34 21 38 45 2 11 9 27 15 35 l12 15 -18 -14 -17 -14 -8 7 -7 8 18 10 18 10 -11 13 -10 12 29 6 29 6 4 36 4 36 -8 5 -9 6 -12 -10 -12 -10 -27 5 -28 5 0 19 0 19 20 0 20 0 0 16 0 15 10 -6 10 -6 -10 -18 c-12 -23 -6 -29 25 -24 l24 5 5 14 5 14 -5 15 c-4 8 -10 15 -14 15 l-8 0 2 16 3 17 19 14 19 15 -22 -6 -21 -7 -7 11 -6 10 12 0 11 0 -12 15 -12 15 15 0 15 0 5 -12 4 -13 8 7 7 7 2 83 1 83 9 6 8 7 -11 6 -11 7 0 -11 0 -11 -9 6 -10 6 -11 -21 -10 -20 6 -24 6 -25 13 -5 13 -5 -5 -20 c-3 -11 -12 -26 -20 -32 l-14 -12 6 32 5 32 -5 9 -6 9 -12 -5 -13 -4 0 -23 c0 -12 3 -24 8 -27 l8 -6 -22 -18 -21 -18 6 16 6 16 -12 1 c-7 1 -16 1 -21 0 l-9 -2 12 15 12 14 -11 7 -10 6 5 10 c4 5 12 9 18 9 l12 0 -15 -10 -15 -10 12 0 12 0 4 -17 5 -18 0 30 1 30 -12 20 -12 20 -16 3 -17 2 -5 -20 -5 -20 -16 0 -16 0 0 10 0 10 14 0 14 0 6 23 c9 33 8 35 -14 47 l-20 11 0 -11z m-6 -71 l-6 -11 -8 13 -8 12 5 15 6 14 9 -16 9 -16 -7 -11z m184 8 l3 -17 -15 6 -16 6 0 15 0 15 13 -4 12 -5 3 -16z m-139 -68 l-12 -23 -9 24 -9 23 13 8 13 8 8 -8 9 -9 -13 -23z m52 -89 c5 0 9 5 9 10 l0 10 11 0 10 0 -6 -11 -7 -10 18 -14 19 -14 -22 2 -23 1 0 8 0 8 -20 0 -20 0 0 13 c0 8 3 17 8 21 l7 8 3 -16 3 -16 10 0z m-82 -18 l16 -13 -12 6 -13 6 0 -10 0 -11 -11 0 -10 0 6 13 c4 6 -1 3 -9 -7 l-16 -20 0 18 c0 9 5 27 12 39 l11 22 5 -15 c3 -8 12 -21 21 -28z m39 14 l4 -18 -14 4 -13 5 -3 17 -4 18 14 -4 13 -5 3 -17z m-98 -6 l0 -20 -15 0 c-17 0 -18 2 -9 24 3 9 10 16 15 16 l9 0 0 -20z m100 -84 l0 -24 -14 -11 -14 -12 2 25 1 24 8 -5 7 -4 0 12 c0 6 -8 18 -17 26 l-18 14 23 -11 22 -11 0 -23z m-49 -58 l-10 -26 14 -19 14 -20 -6 -7 -6 -6 11 0 12 0 0 -23 0 -24 -31 5 -31 5 13 8 13 8 8 -5 c16 -10 8 6 -14 27 l-23 22 14 -8 13 -8 -6 30 -7 30 7 27 7 27 9 -9 9 -9 -10 -25z m-43 -29 l17 -1 -12 -5 -13 -5 0 -18 0 -18 13 -5 12 -4 -14 -14 -14 -14 7 13 7 12 -13 0 c-14 0 -59 -28 -69 -43 l-7 -9 -9 3 -8 4 12 35 12 35 0 -17 1 -18 11 0 10 0 -6 10 -6 10 15 0 16 0 1 20 c1 18 3 26 9 48 l2 7 5 -12 5 -13 16 -1z m102 6 l-12 -14 30 9 30 8 7 -6 6 -6 9 14 10 15 0 -17 0 -18 -30 0 -30 0 0 -24 0 -24 13 -5 12 -5 -12 -1 c-6 -1 -14 3 -18 9 l-6 9 -14 -6 -15 -5 0 27 0 26 -9 -5 -9 -6 -4 18 -5 17 30 2 29 2 -12 -14z m-137 -97 c-4 -7 -8 -16 -8 -20 0 -5 -3 -8 -7 -8 -5 0 -7 3 -7 8 4 19 12 32 21 32 l9 0 -8 -12z m27 -23 l0 -15 -9 0 c-5 0 -11 7 -15 15 l-5 15 14 0 15 0 0 -15z m28 -24 l-3 -18 13 -16 14 -16 -21 2 -21 1 0 18 0 18 -9 0 c-5 0 -11 -6 -13 -13 l-3 -14 -19 19 -19 18 27 0 27 0 5 15 6 15 10 -6 9 -6 -3 -17z m24 -86 c4 -5 8 -13 8 -17 l0 -6 -22 5 -23 5 15 -11 15 -11 -11 0 -10 0 -3 -42 c-1 -23 -3 -44 -5 -45 -1 -1 -13 5 -25 14 l-23 16 16 9 c9 5 16 14 16 20 l0 11 -18 -16 -17 -16 -15 9 -15 10 15 0 14 0 -12 12 c-7 7 -12 15 -12 20 l0 7 18 -6 17 -7 -15 19 -15 19 18 -7 19 -7 21 15 22 15 -30 -3 c-16 -3 -22 -2 -12 0 l17 4 -5 10 -6 9 28 -12 c15 -7 31 -17 35 -23z m-203 -37 c-16 -30 -16 -31 -23 -19 l-6 9 16 16 c22 22 27 20 13 -6z m74 -14 l6 -6 -11 -18 -12 -18 -18 11 -18 12 0 12 0 13 23 0 c13 0 26 -3 30 -6z m-73 -64 l-15 -10 12 0 12 0 -5 -15 -6 -15 18 7 17 6 -6 -10 c-4 -6 -15 -13 -24 -15 l-18 -5 -1 31 -2 31 11 7 c6 4 14 5 16 2 3 -3 -1 -9 -9 -14z m-70 -50 l0 -7 -25 5 -25 4 0 -6 c0 -4 5 -16 11 -27 l11 -21 -24 4 -23 3 3 17 3 16 -11 7 -10 6 0 -10 0 -10 -15 5 -15 6 0 -12 0 -11 -9 5 -9 6 5 -22 c7 -31 36 -91 48 -100 l10 -8 -13 0 -13 0 -13 30 -12 30 -8 -7 -8 -8 2 10 c1 6 2 18 1 29 l-1 18 -20 -5 -20 -5 -7 10 -6 11 9 -6 10 -6 14 10 15 9 -15 0 -15 1 20 12 c11 6 22 12 25 13 3 0 13 4 23 8 l17 8 15 -12 15 -12 0 10 0 11 18 3 c20 5 42 -1 42 -12z m43 -37 l-6 -16 9 6 10 6 1 -20 2 -19 -8 0 c-5 0 -14 7 -21 15 l-12 15 -7 -4 -7 -5 0 20 0 19 9 0 8 0 -7 11 -6 11 20 -11 21 -11 -6 -17z m-136 -17 l0 -14 -14 5 c-7 3 -13 9 -13 14 l0 9 13 0 14 0 0 -14z m44 -48 c2 -21 -2 -42 -9 -50 l-7 -7 -2 35 -2 34 10 0 9 0 1 -12z m-245 -40 l-1 -23 13 3 12 2 0 -16 0 -15 10 6 10 6 -10 -27 -11 -27 5 -13 5 -13 -7 -5 -8 -5 -14 10 -15 11 13 5 12 5 -5 8 -6 9 -14 -6 -15 -5 0 21 0 21 13 0 12 0 -11 8 c-6 4 -13 14 -16 22 l-5 15 16 12 c9 7 17 13 17 13 1 0 1 -10 0 -22z m129 -8 l13 10 5 -19 4 -18 -18 4 c-11 3 -22 9 -24 14 l-6 8 -14 -5 -14 -6 6 22 6 21 14 -21 15 -21 13 11z m95 -41 c0 -14 -4 -11 -41 28 l-34 36 38 -28 c20 -15 37 -31 37 -36z m-670 31 l0 -10 12 3 12 2 2 -24 1 -23 -23 28 c-27 30 -28 34 -14 34 6 0 10 -4 10 -10z m-124 -22 l2 -18 -9 0 -9 0 0 -16 0 -15 -9 5 -9 6 2 -25 1 -25 13 -5 12 -4 24 9 24 9 6 -6 c3 -4 6 -19 6 -35 l0 -28 -17 1 -18 1 13 5 12 5 -1 16 -1 17 -4 -12 -5 -12 -15 6 -14 5 6 -18 6 -19 -10 15 -11 14 6 9 6 9 -24 -7 -24 -7 8 7 7 8 -17 20 -18 20 13 -7 12 -7 0 7 c0 4 -8 13 -17 20 l-18 13 13 1 13 0 -6 9 -5 10 10 6 10 6 0 -11 0 -11 10 6 c6 3 10 13 10 20 l0 14 -15 -5 -15 -6 0 12 0 11 22 -3 21 -3 3 -17z m222 4 c2 -7 8 -12 13 -12 l10 0 -7 13 -8 12 17 -14 17 -13 -6 -10 -6 -9 -15 5 -14 6 7 -12 c4 -7 11 -31 14 -55 l7 -42 -14 -5 -13 -5 0 10 0 10 -12 -7 -13 -7 16 19 17 19 -9 23 -8 22 -18 0 -18 -1 20 -15 20 -15 -18 -10 -17 -10 6 -11 7 -11 -16 6 -16 6 -10 -17 c-6 -9 -11 -14 -11 -9 0 4 6 16 13 28 l12 20 -25 19 -25 20 15 1 c8 1 21 1 28 0 l12 -2 0 35 0 36 22 -3 22 -4 4 -11z m140 -13 l27 -1 -30 -7 -30 -7 3 -19 3 -20 -10 15 -10 14 7 11 c4 5 6 19 5 30 l-2 20 5 -17 5 -18 27 -1z m293 0 l21 -21 -6 -21 -5 -22 -22 -13 -21 -13 6 9 6 10 -12 6 -13 6 12 6 12 5 -6 35 -6 34 7 0 c3 0 15 -9 27 -21z m179 -12 c0 -3 -6 -7 -12 -10 l-13 -4 -1 23 -2 23 14 -14 c8 -7 14 -16 14 -18z m-801 -22 l11 6 -6 -15 -6 -15 -11 2 c-13 2 -27 18 -27 31 l0 8 15 -12 14 -12 10 7z m351 -15 l-11 -20 26 10 c34 13 35 13 35 -6 l0 -16 18 4 18 5 0 -18 0 -19 -7 0 c-4 0 -9 6 -12 13 l-4 12 -21 -21 c-12 -12 -19 -24 -16 -26 2 -3 -3 -5 -11 -5 l-15 0 10 12 10 12 -7 6 c-3 4 -10 7 -15 7 l-9 0 6 -10 6 -10 -13 5 -14 5 1 34 0 34 7 -4 c4 -2 9 0 13 6 11 19 16 10 5 -10z m-440 -46 c0 -4 -7 1 -15 12 l-14 19 6 -25 6 -25 -23 28 -23 29 13 8 13 8 19 -23 c10 -13 18 -27 18 -31z m160 16 l16 0 1 -20 2 -20 -14 0 -14 0 -6 20 -6 20 -10 -5 -9 -6 0 17 0 18 12 -12 c7 -7 19 -12 28 -12z m369 -56 l-10 -12 -19 5 -20 5 4 7 c3 4 16 7 30 7 l25 0 -10 -12z m-285 -9 c-4 -8 -10 -15 -15 -15 l-9 0 0 15 0 15 15 0 14 0 -5 -15z"/>
<path d="M4671 1173 c1 -5 1 -14 0 -20 l-1 -13 -15 0 -15 0 0 -12 0 -11 -6 6 -7 7 12 14 12 14 -11 7 -10 6 -4 -13 c-2 -7 -7 -25 -10 -40 l-6 -28 9 0 c6 0 22 5 36 12 l25 11 0 14 0 13 10 0 10 0 0 20 0 20 -15 0 -15 0 1 -7z"/>
<path d="M4600 1127 l0 -17 -22 0 -21 0 -19 -17 -19 -17 6 17 7 16 -26 -12 -25 -12 -7 -29 -6 -28 12 -8 12 -8 -13 -4 -13 -4 8 -13 8 -12 14 12 c8 6 14 17 14 25 l0 13 -17 10 -18 10 17 6 18 7 -6 9 -5 9 6 0 c3 0 9 -10 14 -22 l8 -23 -9 -24 -9 -24 16 -17 15 -17 0 -17 0 -17 13 7 c6 4 2 -3 -10 -15 -24 -23 -28 -33 -16 -44 l6 -7 13 11 14 11 -5 7 -4 8 12 0 12 0 0 -23 0 -22 -7 4 -8 5 6 -15 6 -16 -23 -1 -24 -1 28 -10 27 -10 -5 -8 -5 -8 15 -6 15 -5 0 -15 0 -15 -16 -9 -17 -9 7 -12 7 -11 10 5 9 6 -6 -14 -5 -15 10 -7 11 -6 1 18 0 18 9 -20 8 -20 -5 -22 -5 -23 15 0 16 0 6 20 6 20 10 -5 9 -6 0 6 c0 3 -7 17 -16 30 l-16 24 5 13 5 13 1 -16 1 -17 15 -6 15 -5 0 -16 0 -15 15 0 15 0 -1 -7 c-1 -5 -1 -17 0 -28 l1 -20 32 0 33 0 2 -30 2 -30 -12 16 -12 16 -23 -4 -23 -3 6 12 c4 7 -1 4 -9 -6 -9 -11 -17 -17 -17 -13 -1 4 -3 12 -4 17 -1 6 -3 16 -4 23 l-2 12 -10 -24 -9 -24 11 -13 11 -13 24 10 c14 5 32 9 40 9 l14 0 0 -20 0 -20 14 0 14 0 5 13 5 12 1 -15 c0 -8 -4 -22 -9 -30 l-10 -15 0 10 -1 10 -15 -25 -15 -25 5 18 5 17 -10 0 -10 0 3 -21 3 -22 20 -11 c11 -6 25 -18 32 -26 l12 -15 1 13 0 13 15 -15 15 -15 0 -16 0 -16 18 -6 c9 -4 22 -14 29 -22 l12 -16 1 13 0 12 11 0 11 0 5 -20 5 -20 9 0 9 0 0 20 0 20 9 0 10 0 -15 36 -15 36 13 -5 13 -4 -3 -16 -3 -15 11 -7 10 -6 0 -19 0 -19 16 -15 15 -16 -9 0 c-5 0 -15 7 -22 15 l-13 16 -8 -13 -8 -12 25 -23 c26 -24 40 -30 29 -13 l-6 10 13 0 c7 0 23 3 36 6 l22 6 -1 -18 -1 -19 -5 13 c-2 6 -9 12 -14 12 l-8 0 6 -17 6 -16 -11 7 -12 7 6 -15 c3 -8 13 -17 21 -20 l16 -6 -9 13 c-5 7 -1 5 8 -6 l17 -19 11 7 10 6 0 -9 c0 -5 11 -14 25 -20 l25 -12 0 8 c0 4 -10 13 -21 20 l-21 14 11 11 12 12 8 -14 9 -13 10 17 10 18 11 -22 12 -21 -3 -18 -3 -17 17 1 16 2 -4 -12 -4 -11 25 -12 25 -11 6 9 5 9 -6 33 -6 32 10 -15 11 -15 0 20 0 21 -12 13 -13 14 11 4 12 4 -6 22 c-2 12 -9 27 -13 33 l-9 11 7 6 c3 4 10 7 15 7 l8 0 1 -22 1 -23 7 25 7 25 -10 7 -11 8 13 0 14 0 -4 13 c-3 6 -9 12 -14 12 -5 0 -16 5 -24 10 -8 5 -23 11 -32 12 -10 2 -27 12 -39 24 l-21 21 -8 -12 -8 -12 -11 18 -10 19 -1 -17 0 -17 -20 -6 -20 -6 0 -24 0 -23 15 -6 16 -6 -11 -20 -10 -20 -18 18 -18 17 8 3 c4 2 8 10 8 18 l0 15 -9 -5 -9 -6 -5 21 -6 21 -10 -7 -11 -6 5 -10 6 -9 -9 0 -10 0 5 -20 5 -20 9 6 9 5 -1 -33 0 -33 -9 21 c-5 12 -17 28 -28 35 l-19 14 -5 23 -6 22 9 0 c5 0 9 5 9 11 l0 10 -12 -7 -13 -8 14 17 c7 9 11 18 7 18 -3 1 -9 2 -13 3 -5 1 -14 5 -22 10 l-14 9 7 -11 7 -12 -12 0 -11 0 6 33 c3 17 7 38 8 45 2 15 18 16 18 1 l0 -10 9 6 10 5 7 -11 7 -12 -10 6 -11 7 -5 -20 -5 -20 17 -13 c10 -6 20 -19 24 -27 l6 -15 6 23 7 22 14 0 c7 0 15 -4 18 -9 l6 -9 -20 -5 -20 -5 0 -10 0 -10 16 2 16 3 10 17 10 17 -6 25 -6 24 -9 0 c-5 0 -16 6 -23 13 -7 6 -25 18 -40 26 l-26 13 -11 -6 -11 -7 -11 7 -11 6 13 9 14 9 -20 0 -20 0 12 8 12 8 -6 22 c-3 12 -8 22 -12 23 -3 0 -16 2 -28 3 l-22 3 5 -9 5 -8 -17 7 -17 6 17 12 16 13 -9 25 c-5 14 -15 28 -22 32 l-11 8 -7 -12 -8 -12 -27 10 -27 11 11 -20 11 -20 17 -1 17 0 -22 -9 c-28 -11 -29 -16 -3 -16 l20 0 5 17 c3 10 12 20 20 23 l14 5 -4 -12 c-2 -7 -6 -25 -10 -41 l-6 -30 -8 12 -8 13 -26 -10 -27 -11 0 14 c0 8 -4 16 -9 18 -4 2 -12 13 -15 26 l-7 22 10 0 11 0 0 16 0 16 15 -6 14 -5 15 15 15 14 -10 30 -11 29 -16 -6 -15 -6 6 18 7 18 -15 -13 -16 -13 13 -8 13 -9 -11 0 c-6 0 -18 8 -28 18 l-16 19 20 18 21 19 -4 -15 c-2 -8 -2 -11 0 -6 l5 7 11 -7 12 -7 -15 18 c-8 10 -15 24 -15 30 -1 6 -6 23 -13 39 l-12 28 -17 6 -17 7 -4 -12 -4 -12 -9 6 -9 5 12 22 c14 26 18 58 10 72 -4 6 -7 15 -8 22 l-2 12 14 -6 14 -5 -6 16 c-7 19 -13 20 -36 2 l-17 -13 11 -11 12 -12 -19 -1 -20 -1 13 -5 12 -5 0 -19 0 -19 16 0 16 0 -12 -14 -11 -15 -17 6 -17 5 15 -12 15 -12 -20 5 c-11 3 -28 8 -37 12 l-18 7 1 -18 1 -19 5 13 5 12 9 -6 10 -6 -18 -14 -18 -13 18 -1 17 0 0 -10 0 -10 23 0 22 -1 19 -14 20 -15 18 17 18 16 0 -16 0 -17 -16 0 -16 0 5 -12 4 -13 -9 -17 -9 -18 -15 0 -15 0 3 37 3 37 -16 4 -16 3 3 -32 4 -31 -16 12 -15 13 13 8 13 8 -17 17 -17 18 -5 -15 c-3 -8 -6 -22 -8 -32 l-3 -18 -13 22 -13 21 9 -6 10 -6 6 15 5 15 -9 0 -9 0 4 18 3 18 -14 18 -13 19 -16 -6 -15 -6 0 12 0 12 -10 -15 -11 -15 7 30 c4 17 9 33 11 37 l4 7 14 -5 14 -6 -5 -13 -5 -12 20 -6 21 -5 -6 10 -7 10 21 -6 21 -7 -8 29 -9 29 15 -1 16 -1 4 13 5 12 -11 0 -11 0 0 -11 0 -10 -9 6 -10 5 -14 -20 -15 -21 -5 15 -6 16 -26 -10 -25 -10 0 9 0 9 29 7 28 6 13 24 13 25 -6 7 -7 6 0 -16z m36 -302 l15 -15 -16 0 -17 0 5 -12 4 -13 19 0 19 0 13 -12 c7 -7 20 -13 28 -13 l15 0 -10 -19 -10 -18 6 -7 6 -6 -11 0 c-6 0 -13 4 -16 9 l-6 9 12 5 13 4 -32 17 -33 16 -17 -20 c-10 -11 -22 -20 -27 -20 l-9 0 22 24 23 24 -21 7 c-12 3 -21 10 -21 15 0 5 -3 15 -6 24 l-6 16 22 0 21 0 15 -15z m178 -40 l5 -15 -24 4 -25 5 5 -10 6 -9 9 5 9 5 5 -9 6 -9 -17 3 c-10 2 -21 4 -25 4 -5 1 -8 7 -8 15 l0 15 23 4 c12 2 23 5 23 6 1 0 4 -6 8 -14z m-74 -27 l0 -31 -7 6 c-3 4 -7 18 -8 32 l-1 25 8 0 8 0 0 -32z m5 -68 l6 -10 -15 0 c-8 0 -18 5 -21 10 l-6 10 15 0 c8 0 18 -4 21 -10z m105 -80 l0 -10 -16 0 -15 0 5 -8 5 -9 -14 0 c-20 0 -19 7 3 23 21 16 32 17 32 4z m85 -10 l-6 -10 -8 5 -8 5 -18 -20 -18 -20 11 -12 c6 -7 12 -26 14 -42 l3 -29 -15 -5 -15 -4 11 12 12 12 -5 19 -5 19 -9 0 -9 0 0 -45 0 -45 14 0 c8 0 18 -5 22 -12 l7 -11 -11 7 -12 7 0 -10 c0 -5 7 -16 15 -25 21 -21 19 -25 -12 -22 l-28 3 3 30 3 30 -33 1 -33 1 -3 10 -4 11 -8 -5 -8 -5 2 18 1 17 23 13 22 13 0 18 0 19 14 5 15 6 4 -7 c2 -4 3 -2 1 4 -4 21 34 53 64 54 l13 0 -6 -10z m15 -152 l0 -10 -16 6 c-9 3 -23 6 -32 6 l-17 0 14 9 13 9 19 -5 19 -5 0 -10z m253 -40 l6 -22 -21 -20 -20 -19 22 -12 23 -12 -12 -7 -11 -7 0 11 0 11 -9 -5 -9 -6 -5 13 -5 14 8 14 9 13 -12 9 -12 8 24 -6 24 -7 -7 11 -7 11 -16 0 -15 0 12 15 c17 21 27 19 33 -7z m79 -33 c4 -5 8 -14 8 -19 l0 -8 -14 11 -14 12 -5 -8 c-2 -4 -7 -20 -10 -34 l-7 -26 -15 0 -15 0 10 12 10 12 -8 8 -7 8 13 -7 12 -7 0 15 0 15 -11 7 -11 7 12 7 c16 10 43 7 52 -5z m-122 -80 l0 -15 -11 0 -10 0 5 9 6 9 -12 5 -13 5 18 1 17 1 0 -15z m30 -10 l9 5 6 -11 7 -11 -18 4 -19 3 -1 15 -1 15 4 -13 5 -12 8 5z m76 -50 l3 -35 -22 4 -22 3 -4 19 -3 18 18 -14 19 -15 -14 18 -13 17 -17 0 -16 1 19 10 18 11 9 -13 9 -14 0 19 0 19 7 -7 c4 -3 8 -22 9 -41z"/>
<path d="M4813 468 l0 -13 23 0 22 0 -10 13 c-6 6 -16 12 -23 12 l-12 0 0 -12z"/>
<path d="M252 1095 c-17 -8 -53 -31 -78 -52 l-46 -38 -14 -27 -14 -27 0 -296 0 -295 463 0 464 0 21 23 22 23 0 107 0 107 -330 0 -330 0 0 120 0 120 308 0 309 0 21 23 22 23 0 102 0 102 -392 0 -393 -1 -33 -14z m758 -130 l0 -85 -335 0 -335 0 0 -165 0 -165 335 0 335 0 0 -85 0 -85 -445 0 -446 0 3 290 3 290 31 30 31 31 39 14 39 14 373 1 372 0 0 -85z"/>
<path d="M1162 1087 l-22 -23 0 -217 0 -217 130 0 131 0 24 28 24 27 1 88 0 87 230 0 230 0 0 -120 0 -120 -357 0 -357 0 -28 -27 -28 -27 0 -103 0 -103 513 0 514 0 21 23 22 23 0 352 0 352 -513 0 -514 0 -21 -23z m988 -372 l0 -335 -495 0 -495 0 0 85 0 85 380 0 380 0 0 165 0 165 -265 0 -265 0 0 -115 0 -115 -115 0 -115 0 0 200 0 200 495 0 495 0 0 -335z"/>
<path d="M2308 1087 l-28 -23 0 -352 0 -352 105 0 105 0 167 145 c92 80 169 145 173 145 3 0 80 -65 172 -145 l166 -145 99 0 99 0 27 28 27 28 0 347 0 347 -133 0 -134 0 -21 -23 -21 -23 -3 -116 -3 -116 -113 99 -114 100 -16 -13 c-9 -7 -73 -62 -142 -122 l-125 -109 -3 162 -2 161 -128 0 -127 -1 -27 -22z m224 -211 l3 -174 140 123 c77 68 145 124 151 124 l12 1 143 -126 144 -125 3 175 2 176 110 0 110 0 0 -335 0 -335 -85 0 -85 0 -167 146 c-91 80 -172 148 -179 151 l-13 5 -33 -30 c-148 -131 -254 -223 -291 -252 l-25 -20 -86 0 -86 0 0 335 0 335 115 0 115 0 2 -174z"/>
<path d="M3508 1085 l-28 -24 0 -211 0 -210 355 0 355 0 0 -10 0 -10 -328 0 -329 0 -26 -30 -27 -30 0 -100 0 -100 413 0 412 0 40 10 40 9 53 55 52 54 0 149 0 148 -24 36 -25 36 -34 17 -35 16 -291 0 -291 0 0 110 0 110 -127 0 -128 -1 -27 -24z m222 -145 l0 -109 303 -3 302 -3 32 -24 32 -24 16 -33 15 -32 0 -117 0 -116 -14 -28 -15 -28 -28 -19 -28 -19 -417 -3 -418 -3 0 85 0 86 345 0 345 0 0 55 0 55 -345 0 -345 0 0 195 0 195 110 0 110 0 0 -110z"/>
<path d="M7102 1087 l-22 -23 0 -222 0 -222 -157 0 -157 0 -28 -27 -28 -27 0 -103 0 -103 498 0 499 0 21 23 22 23 0 107 0 107 -180 0 -180 0 0 245 0 245 -133 0 -134 0 -21 -23z m228 -287 l0 -250 180 0 180 0 0 -85 0 -85 -480 0 -480 0 0 85 0 85 185 0 185 0 0 250 0 250 115 0 115 0 0 -250z"/>
<path d="M5996 1066 l5 -14 -11 -7 -11 -7 -14 12 -15 12 0 -10 0 -11 21 -11 21 -12 -6 -14 -6 -15 9 6 10 5 6 -10 6 -10 10 5 c5 4 9 11 9 17 l0 10 -15 -6 -15 -5 0 9 c0 6 4 10 9 10 l9 0 5 20 5 20 -19 10 -19 10 6 -14z"/>
<path d="M4487 963 l-7 -6 11 -13 11 -14 -5 -14 -6 -14 6 -6 6 -6 13 18 c7 9 14 24 14 33 l0 17 -16 6 c-19 7 -19 7 -27 -1z"/>
<path d="M5902 948 c-7 -7 -12 -18 -12 -25 l0 -12 14 5 15 6 -2 19 c-2 23 0 22 -15 7z"/>
<path d="M5049 916 l-19 -20 0 15 -1 14 -9 -17 -10 -17 -4 -58 c-2 -32 -7 -67 -12 -78 l-8 -20 18 14 17 14 -2 -9 c-1 -5 -1 -15 0 -22 l1 -13 10 6 10 6 -7 12 -7 12 17 -14 17 -13 13 31 13 31 10 -10 9 -9 -2 62 c-1 34 -2 71 -2 83 l-1 21 -16 0 -16 0 -19 -21z m0 -32 l-13 -16 15 2 c7 1 19 2 26 1 l11 -1 -10 -33 -10 -34 -19 -11 c-23 -15 -25 -9 -4 12 l15 14 -9 24 -10 23 0 -13 -1 -13 -10 6 c-14 9 -12 21 6 39 20 21 30 21 13 0z"/>
<path d="M5800 934 c0 -5 5 -16 10 -24 l10 -15 10 15 10 15 0 -12 0 -13 11 0 11 0 -12 15 -13 15 -5 -5 -5 -5 -14 11 -13 11 0 -8z"/>
<path d="M5300 904 c0 -16 2 -16 24 -8 22 8 20 19 -4 21 l-20 2 0 -15z"/>
<path d="M5350 890 l0 -11 -12 7 -11 7 6 -17 7 -17 -10 6 -9 6 -11 -22 c-16 -29 -8 -33 33 -15 l36 14 -6 21 c-3 12 -9 24 -14 27 l-9 5 0 -11z"/>
<path d="M5790 891 l0 -12 -9 5 -9 6 -6 -15 -6 -15 20 -32 19 -32 -5 -8 c-3 -4 -10 -8 -15 -8 l-10 0 5 9 6 9 -20 -5 -20 -5 2 33 3 33 -19 4 -18 4 -10 -10 -10 -10 20 -20 c11 -11 18 -22 16 -25 -3 -2 -7 -16 -10 -31 l-4 -26 8 0 c5 0 14 10 20 23 l11 22 0 -23 1 -23 14 -15 15 -14 20 0 21 0 0 15 0 14 -15 -5 c-8 -4 -15 -4 -15 -1 0 3 7 7 15 11 l15 6 20 -20 20 -20 0 15 c0 26 -2 30 -12 27 -8 -2 -38 21 -38 30 0 2 11 5 25 6 l25 2 0 -15 0 -15 10 0 10 0 0 -24 0 -24 37 1 36 2 5 14 5 14 -14 -9 -14 -8 12 16 13 15 -18 14 -17 14 -28 -1 -29 -1 -5 13 -5 13 -14 -6 -14 -5 0 11 c0 6 3 10 8 10 4 -1 13 -1 20 0 l13 1 -6 11 -7 10 -12 -4 -12 -5 -14 21 c-8 12 -14 25 -15 29 0 3 -3 10 -7 14 l-8 7 0 -12z"/>
<path d="M6179 838 c-1 -2 -3 -13 -4 -25 l-2 -23 7 0 8 0 0 25 c0 21 -5 32 -9 23z"/>
<path d="M5116 823 c-3 -3 -6 -10 -6 -15 l0 -8 15 0 15 0 0 9 c0 6 -4 12 -9 15 l-8 5 -7 -6z"/>
<path d="M5342 823 l-13 -5 13 -16 c7 -10 8 -14 4 -10 l-9 8 -17 -28 -17 -27 10 -12 c13 -18 20 -16 36 8 l13 22 -16 -6 -16 -6 0 5 c0 3 7 12 15 20 l15 15 0 20 c0 10 -1 19 -2 18 -2 0 -9 -3 -16 -6z"/>
<path d="M4662 636 l-21 -25 10 -7 10 -6 14 18 c8 11 15 24 15 29 l0 10 11 -15 11 -15 -4 14 c-3 8 -9 16 -14 18 l-10 3 -22 -24z"/>
<path d="M4700 536 l0 -14 15 -5 14 -6 6 9 6 10 -6 10 c-3 6 -13 10 -21 10 l-14 0 0 -14z"/>
<path d="M6466 451 l-19 -7 -3 -35 c-2 -19 -6 -45 -9 -57 l-6 -24 11 7 10 6 0 19 0 19 19 6 19 6 4 24 5 24 -6 9 -6 9 -19 -6z m14 -37 l0 -15 -10 6 c-5 3 -10 13 -10 21 l0 15 10 -6 c6 -3 10 -13 10 -21z"/>
<path d="M6340 340 l-15 -10 14 0 13 0 -6 -15 -5 -15 17 -9 18 -10 10 7 c5 4 10 14 12 22 l3 15 -12 -12 c-7 -7 -17 -13 -22 -13 l-9 0 5 13 5 14 -7 11 -7 11 -14 -9z"/>
<path d="M5867 320 c3 -11 9 -20 13 -20 l8 0 -5 20 c-3 11 -9 20 -13 20 l-8 0 5 -20z"/>
</g>


</svg>