<svg version="1.0" xmlns="http://www.w3.org/2000/svg" width="1200" height="265" viewBox="0 0 12000 2650"><path d="M2507 2322l-27-28v-295l-32-27c-93-78-418-364-418-368 0-2 82-4 183-4h182l111 94 111 94 79-67c43-36 92-78 109-93l30-28h367l19 23c10 12 18 25 19 29 0 4-101 95-225 203l-225 196v299h-256l-27-28zM3287 2320l-27-30v-420h267l21 23 22 23v174h460v-240h-357l-358-1-27-24-28-24v-201h1037l21 23 22 23v704H3313l-26-30zM6807 2322l-27-28v-414h700v-30h-656l-22-25-22-25v-201l438 3 439 3 37 29c21 15 51 46 67 69l29 40v266l-9 24-10 25-35 27-35 27-41 5-42 6 89 86c49 47 100 98 113 114l23 27h-164l-164-1-113-109-112-110h-200v220h-256l-27-28zM7883 2323l-23-26v-207h33l-16-18-17-19v-360l21-27 21-27 39-19 38-20h866l23 24 22 24v212h-33l16 18 17 19v355l-20 28-20 29-34 20-33 21-439-1h-439l-22-26zM8992 2327l-22-23v-214h33l-16-18-17-19v-203h43l-21-23-22-23v-204h907l21 23 22 23v204h-263l21 23 22 23v194h177l21 23 22 23v214h-907l-21-23zM10017 2322l-27-28v-694h267l21 23 22 23v454h536l17 20 17 20v210h-826l-27-28zM10967 2322l-27-28v-444h43l-21-23-22-23v-204h917l21 23 22 23v204h-273l21 23 22 23v204h-420v250h-256l-27-28zM252 1095c-17-8-53-31-78-52l-46-38-14-27-14-27V360h927l21 23 22 23v214H410v240h617l21 23 22 23v204H678l-393-1-33-14zM1162 1087l-22-23V630h261l24 28 24 27 1 88v87h460V620h-714l-28-27-28-27V360h1027l21 23 22 23v704H1183l-21-23zM2308 1087l-28-23V360h210l167 145c92 80 169 145 173 145 3 0 80-65 172-145l166-145h198l27 28 27 28v694h-267l-21-23-21-23-3-116-3-116-113 99-114 100-16-13c-9-7-73-62-142-122l-125-109-3 162-2 161h-128l-127-1-27-22zM3508 1085l-28-24V640h710v-20h-657l-26-30-27-30V360h825l40 10 40 9 53 55 52 54v297l-24 36-25 36-34 17-35 16h-582v220h-127l-128-1-27-24zM7102 1087l-22-23V620h-314l-28-27-28-27V360h997l21 23 22 23v214h-360v490h-267l-21-23z"/><g fill="#00fe00"><path d="M5489 2593c-1-5-1-19 0-33l2-25-10 15-10 15h-18c-10 0-24 4-30 8l-13 8-10-6-10-6v18h-30v-9c0-4 4-8 9-8h9l7-36 6-37-12-8c-8-4-11-9-9-11 22-14 51-28 60-28h9l-6 18-7 17 25-27 25-27 20 4c10 2 21 4 23 4 2 1-3 9-12 19l-16 18 18 1 19 2 5-25 4-24h-28l7-12 7-11-16 6-17 6v-29h22l-13-16-12-15-13 28-12 28-1-13c-1-7-8-20-16-28l-15-15v31h-40v-21l12 7 11 7-5-15-6-15 11-1c7-1 30-3 52-5l40-4 12 16 12 16 13-14 13-14-14 8-14 8 5-14 6-14 11 3c6 1 29 3 51 4l40 1-11 14-12 13-11-9-11-9-30 25c-16 14-24 22-17 19l12-7v46l8-10 7-11 20 1h20v-30l19-3 19-4-6 21-5 21 16 1 17 1-12 5-13 5v28h-19l-5-17-5-18 2 19 2 19 22 8 22 8-5-13-5-12 26-28c14-15 25-31 25-37 0-5 4-9 9-9h10l-2-19-1-20-7 5-8 4-6-10-6-10h59l6 16c9 24 7 28-7 16l-13-11 1 37v37l-28 3-27 3 5 9 6 9 14-5 15-6 6 18c3 11 11 29 16 41l11 22-7 16-6 17 12-4 11-4 4-20c3-10 4-28 3-39s-3-30-4-42l-1-21-7 5-8 4v-21h30l1-22c1-13 2-32 3-43l1-20 20-3 20-4-7 7-8 8 11 14 11 13 22-1 21-1-12-5c-19-7-16-21 8-34l22-11-5 27-6 27 14 5 14 5-2 23-2 23-12-5-12-4-6 9-6 10 15 6 15 5-9 24-9 23 24 2 23 2 5-8 5-8-11-14-10-15 6 18 5 17h-8c-5 0-11-6-14-13l-5-14 7-11 7-12 20 14 19 14v14c1 7-4 17-10 21l-10 9 15-5 15-4 1-11c1-7 2-16 3-22 0-5 5-10 11-10h9l-5 15-6 15h23l9 23 9 22v-17l1-18h30v-20h51l-6-10-6-10 15 6c9 3 16 10 16 15v9l-22 1-23 1 18 5 17 4v21l-15-6-15-5 3 11 2 12-49 13c-28 7-52 11-54 9-2-3 1-14 8-25l11-21h-21v11c0 6-7 17-15 25l-15 15v-26l-8 11c-4 6-16 16-27 22l-21 10 1-26v-27l-12 2-13 3v-40h-22l11-14 12-14-13-5-13-4 17-20 17-19-19-17-20-17v20h-28l3 18c2 9 4 22 4 27l1 10 10-15 10-15v18c0 20-4 21-29 7l-18-9-1 32-1 31 8-13 9-13 4 8c3 5 4 19 3 32l-2 22h8c4 0 9-5 11-11l4-11 12 15 13 15-38 23c-21 13-41 25-45 27l-8 4v-29h-30l-6 19-6 19-12-17-13-17-17 6-16 6v-30l10 6 10 6v-31h25l-15-10-15-10h23l5-19 5-20-14-5-13-5 6 15 5 15-13-3-14-3v22c0 12-4 25-8 29l-7 7v-33l-11 3-11 2-5-13-5-12 19 6 18 6-14-10-14-10-11 4-11 4v48l6-4c4-2 12 3 19 11l13 15-16-5-15-6-7 20-6 21h-22l-22-1 19-14 20-15h-35l-5 15-6 15h-28v-20h23l-6-6-5-6-21 7-21 6v29h-10c-5 0-10-3-11-7zm-41-59c6-1 18-2 26-2l14-2 6-17 7-16-13-9c-7-4-17-7-23-7l-10 1 13 5c18 7 15 21-10 34l-21 11 7-17 6-18-15 13-15 12v33l8-10c4-5 13-10 20-11zm152-6c0-4-5-10-11-13l-10-7 5-14 5-14h-7c-4 0-14 5-22 10l-15 10h23l-5 18-4 18h41v-8zm-15-68l-6-10h31v-18l-20 5-20 5v28h21l-6-10z"/><path d="M5320 2559v-19h-51l6 9 5 10-8 5-9 5-17-12-17-13 6-27 7-27 11 7 10 6-7-11-7-12 23 4c13 3 26 5 31 5 4 1 12 13 17 27l10 25 7-4 8-5 12 14 13 13-13 8c-6 4-18 8-24 9l-13 2v-19zM5840 2570v-10h55l-15 10c-8 5-21 10-27 10h-13v-10z"/><path d="M5160 2511c0-5-3-16-6-25l-6-16h33l-7 12-7 11 12-7 11-7-5-10-6-9h-59v21l13-7 12-8-12 16-13 15 7 6 6 7h-23l-1-47-1-48-5 15c-3 8-13 23-21 33l-16 18 17-7 17-6v47l-9-14-9-14-16 6-16 6v-21l-12 10-13 10-12-13-13-14 16-15c8-9 20-16 25-16h9v-31l10 6 10 6-5 9-5 8 15 6 14 5-6-29-5-30h33l-7 12-7 11 16-6 16-6-6 15-5 14h7c3 0 15-4 25-10l19-10-9-30-9-30 9 5 8 5 5-14 6-15-12-4-11-3-27 13-27 13-6 15-5 15h-22l5-8 5-8-9-14-9-15-7 32-6 32-13-6-13-5 2 27 3 26-9-9-9-9-25 5-24 4-1 17-1 16-14-32c-16-38-21-40-41-15l-15 17 5-16 6-17-21 6-20 5 18-29c11-15 18-29 17-31-2-2-3-10-3-18v-15h30v-9c0-5 3-16 6-25l6-16h-11c-6 0-10 3-10 8 1 4 1 13 0 20l-1 12h-21l5-9 6-9-16-6c-22-9-22-9-40 25l-16 32 14 8c7 5 16 9 19 9s6 7 6 15v15h-11c-6-1-26-14-44-29l-34-29 11-6 10-6-4-20-4-20h18l-4-20-4-20h45l14 13 14 12-14-18-13-18 11-11 12-12v24h32l-6 16-6 15 10-6c6-3 10-13 10-21v-14h42l-5-13-5-13 12-15 11-16 30 19c17 10 26 18 20 18h-10l14 9 14 9-14 31-14 31-6-17-6-17-5 26-5 27 8-5 9-5v25l13-16c6-8 21-18 31-22l20-7-20 23-19 23 17-13 17-13 10 20c6 11 11 27 11 36v16l10-6 10-6-3-33-2-33-11 4-11 4-8-18c-5-10-9-23-10-28l-3-11 19-1 19-2 6 11 7 10-14 10-14 10 19-6 18-6-6 24-6 24 16 13 16 13 9-15c5-8 9-19 9-26v-12l-15 5-15 6 1-23 1-24 5 13 5 12h39l-7 11-7 12 14-5 14-5 13 16 13 16-6-12-6-13h31v29l-26 20c-15 12-24 21-20 21h7l-11 20-11 20 16 2c8 0 21 1 28 2 6 1 17 8 24 16l12 15-6-22-5-23-12-1c-6-1-14-1-18 0l-7 1 2-21 1-20 21 5c11 3 24 6 28 6h8l-6 23-7 22 13-12c7-7 17-13 22-13h8l-15 22c-9 12-16 26-16 31v8l9-6 10-5 5 9 6 9-6 17-7 17-7-13-8-12-19 18c-10 10-18 23-18 29v10l-32 3-33 4v-10zm-172-136c12-14 19-25 16-25h-5l6-10 7-11 14 12 14 12-6-17c-7-18-7-18-28-10l-16 6v28h-17l3-26 2-26-15 6c-8 3-19 6-25 6h-10l11 14 12 14-18 11-18 11 23 6 24 7-14 8-13 9h31l22-25zm-12-117l-1-23 13 3 12 2v-50l-20 12-20 13 2 10c1 5-3 20-10 33l-13 22h38l-1-22zM6139 2478c-1-13 0-34 1-47l2-23-13 7-12 8 7-12 8-12-12-15-13-14-12 17-12 16 4 17 5 17-17 17-16 16h-39v-20h52l-6-16c-3-9-6-18-6-20s-7-4-15-4-15-3-15-7c0-5-7-16-14-26l-14-18-31 16-31 16v-21h21l-7-12-7-11 10 6 11 7 6-15 5-15 16 7 17 6 10 26 9 26 15-20 14-19-5-14-5-13 10 6 10 6v-32l-17 9c-10 4-24 8-32 8l-14-1-8-23-9-23 9 6 10 5 6-10 6-10 9 5 9 6-6 17-7 17 17-14 17-13-7-11-6-10 11 7 10 6 5-12 5-13 1 19 1 18 15-12 15-12v8c1 5 8-3 16-18l15-28h19l1 20c1 11 3 25 4 30 1 6 3 15 4 21l1 10 9-5c4-3 11-20 15-37l6-31 15 12 15 12v-31l35 6 35 6v-35l16 6c9 3 20 6 25 6h9l-4 26c-3 14-10 32-17 40l-11 14h45l-7 7c-8 8-32 14-63 17l-21 1 1 10c1 6 7 13 12 17l10 8h-27l5 23 6 22-14 25c-8 14-14 21-15 16v-10l-14 19-13 18-19-7-19-7 25-19 24-18 8 4 8 5v-9c0-5-8-19-19-30l-18-22-6 6-6 6 12 19 11 18-7 8-8 7-8-13-9-14-9 6-9 6v-60l12 5 12 5 5-13 5-13-9-14-9-14v36l-10-6-10-6 5-9 5-9-32 10c-42 12-42 12-23-7l16-16-4-11c-2-6-10-11-19-13l-16-2-5 19-5 19 5 20 5 21 18-6 17-5 10 12 9 13-1 27c0 15 2 26 5 26s9 0 14 1l10 1-20 15-19 15 19 11 18 11-13 9c-8 5-17 9-21 9h-8l-1-22zm109-148l-3-9-13 8-13 8 7 17 7 18 9-16c5-9 8-21 6-26zm62-32v-23l-9 14-9 14-3-18-4-17-25 22c-14 12-20 19-15 16l11-5 14 10c8 5 21 9 28 9h12v-22z"/><path d="M5319 2460l-11-30-8 5-9 5-6-9-6-10 22-43 22-42-12-4c-6-2-11-8-11-13v-9l25 12 25 11v10c0 6 8 19 17 29 9 11 18 25 19 33l2 15h-18v14c0 7-7 19-15 26l-15 12 6 9 5 9h-22l-10-30zm32-27l14-17-13 8-12 7-8-19-7-20-14 15-13 14 21 6 21 5-6 9c-9 16 3 10 17-8zM5394 2434c3-9 6-20 6-26v-10l15 12 15 13-11 13c-6 8-16 14-21 14h-10l6-16zM5970 2430v-11l-22-9-23-9 45 2 45 2 7 10 7 9-5 8-5 8h-49v-10zM5670 2390v-20h9c6 0 12 3 14 8l5 7-14 13-14 13v-21zM6298 2381l4-31h14c19 0 17 10-5 39l-18 23 5-31zM5665 2351l-5-10 9-5 9-6 12 15 12 15h-15c-9 0-18-4-22-9zM2507 2322l-27-28v-295l-32-27c-93-78-418-364-418-368 0-2 82-4 183-4h182l111 94 111 94 79-67c43-36 92-78 109-93l30-28h367l19 23c10 12 18 25 19 29 0 4-101 95-225 203l-225 196v299h-256l-27-28zm223-184v-153l157-135c86-74 181-156 210-182l53-48h-303l-41 38c-56 50-155 134-176 149l-16 12-115-100-114-99h-147c-82 0-148 2-148 4s92 83 205 181l205 178v307h230v-152zM3287 2320l-27-30v-420h267l21 23 22 23v174h460v-240h-357l-358-1-27-24-28-24v-201h1037l21 23 22 23v704H3313l-26-30zm993-365v-335h-990v170h760v320h-540v-220h-220v400h990v-335zM4864 2325v-24l8 5c4 3 8 11 8 19s-4 16-8 19l-8 5v-24zM6807 2322l-27-28v-414h700v-30h-656l-22-25-22-25v-201l438 3 439 3 37 29c21 15 51 46 67 69l29 40v266l-9 24-10 25-35 27-35 27-41 5-42 6 89 86c49 47 100 98 113 114l23 27h-164l-164-1-113-109-112-110h-200v220h-256l-27-28zm223-142v-110h232l112 110 113 110h131c73 0 132-2 132-4s-51-54-112-115l-113-111h81l44-22 45-23 17-35 18-35v-220l-18-35-17-35-35-17-35-18h-825v170h700v110h-700v377l7 6 6 7h217v-110zM7883 2323l-23-26v-207h33l-16-18-17-19v-360l21-27 21-27 39-19 38-20h866l23 24 22 24v212h-33l16 18 17 19v355l-20 28-20 29-34 20-33 21-439-1h-439l-22-26zm877-58l35-21 17-34 18-35v-305h-730v-80h730v-170h-842l-34 16-35 17-19 25-20 25v337h720v70h-720v181l423-3 422-3 35-20zM8992 2327l-22-23v-214h33l-16-18-17-19v-203h43l-21-23-22-23v-204h907l21 23 22 23v204h-263l21 23 22 23v194h177l21 23 22 23v214h-907l-21-23zm868-127v-90h-870v180h870v-90zm-220-245v-85h-650v170h650v-85zm220-250v-85h-870v170h870v-85zM10017 2322l-27-28v-694h267l21 23 22 23v454h536l17 20 17 20v210h-826l-27-28zm793-117v-85h-570v-500h-230v670h800v-85zM10967 2322l-27-28v-444h43l-21-23-22-23v-204h917l21 23 22 23v204h-273l21 23 22 23v204h-420v250h-256l-27-28zm223-157v-125h420v-170h-650v420h230v-125zm650-460v-85h-880v170h880v-85zM4737 2294l-6-7 10-20 11-20-12-7-12-7 16-6c9-4 16-11 16-16v-9l-17 2-18 1 3-18 3-17-14-6-15-5 5-20 5-19h9c5 0 8 3 8 8-3 18 2 32 17 47l16 16 15-12 14-12-5-13-5-13 32 4c18 2 41 5 51 7l19 3 2-22c1-13 5-26 8-30l7-6 6 6 7 7-13 15-12 15h21l-5 15-6 15h22v-30h52l-12 15-12 15-8-5-7-4 3 24 2 25-21-4c-12-3-26-5-30-5l-8-1 6-10 6-10h-21v22l-12-5-13-4 3-18 3-17-11 7-11 7 5 15 6 16-11 13c-6 8-16 14-21 14h-10l5-19 5-20-14 6-13 5-8 21c-4 12-8 28-9 35l-2 12 11-7 10-6-6 17c-4 10-7 20-7 22 0 6-26 5-33-2z"/><path d="M4685 2221l-6-21-11 6-11 7 6-17 7-17-9 6-10 5-26-26-26-26 12-14 11-14h-37l-13-20-13-21 7-10 7-11 7 12 7 12 6-16 6-16-12-1c-7-1-20 0-30 1l-18 1 7-25 6-26h-24l12-15c7-8 18-15 24-14s17 1 25 0l13-1-12-15-13-15 8-8 8-7 4 13 5 12 26-1 27-1-27-9-27-10 6-15 5-14h-9c-5 0-16 12-23 26l-14 26-29 20-29 21 7-22 7-22-19-14-18-14 22 2 22 1-5 7-4 7 15 5 14 6-5-13-5-13 19-5 19-5-5-32-4-31h-23l15-10c8-5 19-10 23-10h8l-6 19-6 19 11 7 10 6v-47l-11-11-12-12 24 6c25 7 39 20 39 40v12l-17 4-18 5 18 1 17 1v29l20-4 20-4v12c0 7-7 21-15 31l-14 19 5 8c3 5 12 9 20 9h14v-31l-10 6-10 6v-6c0-4 8-14 17-23l17-17-7 17-6 17 10 6 9 6-6 11-7 11 11-7 12-7v20l-22 7-22 7 17 11 16 12-2 15c-2 8-7 20-11 28l-9 14 10-6 10-6 11 24 12 25-25-6-25-6 7 48c3 27 9 51 12 54 8 6 8 26-1 35l-6 7-7-21zm-21-62l-7-11 14-9 14-8-22 2-22 1 2 11c1 5 7 13 12 17 14 11 17 10 9-3zm21-118c-2-2-12 0-22 4-10 5-22 7-26 6l-8-1 5 9 6 9 24-11c14-7 23-14 21-16zm-50-11l6-10h-21v-40h21l8 22 8 21 6-17 7-18-6-9-5-9-10 5-9 6v-18l-1-18-10 18-10 17h-33l12 12 12 12v36h9c6 0 13-4 16-10zM4761 2163c0-12 4-34 9-48l10-27 17 13 18 14-17-26-17-27 17 2c20 1 32 15 32 39v17h-38l-10 13c-5 6-12 21-15 32l-5 20-1-22zM4846 2102l-5-8 20-12 20-13-11 21c-12 22-16 24-24 12z"/><path d="M4718 2058l-4-23 10-17 10-17-10-39c-6-21-8-44-6-50l4-12h28v-17c0-33 15 7 19 50l1 8 9-6 10-5 6 10 6 10h-21v11c0 7 8 18 18 26l17 13-10-1c-5-1-14-1-20 0l-10 1 15 10 15 10-17 14c-10 7-18 18-18 24v10l-16 6c-9 3-19 6-24 6h-9l-3-22zm51-21l14-22-16 14-17 13v-22h-20l2 24 2 24 11-4c6-3 17-14 24-27zm-9-92v-15h-21l6-10 6-10h-23l6 16c3 9 6 20 6 25s5 9 10 9h10v-15zM4810 2038c0-7 4-19 9-26l8-14 6 16 6 16h-24l15 10 15 10h-35v-12zM6210 1979c0-5 5-9 10-9 6 0 10-4 10-8v-8l-50 6-49 6 9-11 9-11-9-14-10-15v36l-9-5c-11-7-9-24 7-53l13-23h-8c-4 0-1-5 7-10l15-10h-20l4-51 3-50-18 3-19 3 1-17 2-18h-8c-4 0-11 8-14 17l-7 16 10 7 10 6-4 26-5 26 15 6 15 5v32l-10-6-10-6 5-10 6-9h-6c-3 0-16 9-28 20l-22 21-3-11c-2-6-1-18 3-28l6-16 10 14 11 15-6-18c-3-10-6-25-6-33v-13l-17 6-18 6 16-19 16-19v-35h-18l3 18 4 17-19 20-18 20 3 27 4 27-18 4-18 5v-37l-14 5-14 5-8-12-7-12 11 7 12 7v-22l11 7 11 7-7-22-6-21h22l-6 10-6 10h10c5 0 12-4 15-8l5-9-22-11c-12-6-29-10-38-10l-17 1-5 40-5 40-15 14-14 14-1-43c-1-23 1-50 4-60l5-18h59v-21l-20 6-20 6v-40l-10-6-10-6 5-10 6-9h-21v46l13 13 12 14-12-7-13-7v29l-17-3c-10-2-19-4-21-4-2-1 4-8 12-17 20-19 20-38 1-54-8-7-15-16-15-21v-9l33 1 32 1 40-15 40-15 10 9c5 5 13 9 18 9h8l-7-11-7-11 14-10 14-10-28 7-29 6 7-11 6-10h-10c-5 0-12 4-15 9l-6 9-27-7-27-7-4-15-4-14 12 15 12 15 5-12c2-7 9-13 14-13h10l-6 10-6 10h23l-6-35-7-35 16-1c29-3 33-4 42-13l8-9-14 8-14 8 6-17c4-10 7-20 7-22s12-4 26-4h26l-12 15-12 15h32v-38l-45-4-44-3 5 22 6 23-18 6c-11 3-25 8-33 10l-13 4 12 15 13 15-7 7-6 6v-25l-14 11-14 12 11-36 11-36 13 5 13 5v-14c0-24 2-29 16-50 16-23 18-35 5-35h-10l-3 18-4 17-2-42c0-24-4-48-7-53l-7-11 11-13 12-14-16-6-16-6 6-42c4-23 9-47 12-52l6-9-11 7-12 7v-10c0-5 5-13 10-16l11-7-12-14-11-14h40l5-12 4-13-16-12-16-12 33 9 32 9v-10c0-12 32-49 39-45l6 4 2-39 3-39-30 5-30 5v-25l-9 14-9 15-15-13-15-12-4 12-4 12-15 3-16 2-1-37-2-36-9-3-10-3 6-16 6-16-32 5-33 5-5-15-6-14 14-9c8-5 18-9 22-9h8l-7 12-7 11 20-5 20-5 17 9 16 9-6 11-7 11 11-7 12-7v36l9-14 9-13-5-18-5-19-11 5-12 4-17-31-18-30-22 6-23 6 18-12 19-11 11 11 11 11h38l-5 14-5 14h48v-58h-18l-4-24-5-25 16-15 15-16 13 22 12 23 1-15v-15l11 15 11 15-5-22-5-22 24 16 24 15v13c0 6 9 20 20 30l20 18 1-14c3-34 4-39 12-39h29l-7 18c-7 17-9 35-6 81l1 23 17-6 18-7-24 25-24 26 14 1c8 1 17 1 22 0 9-1 9 12 1 33l-6 16-10-6-11-7 5 9c2 5 10 22 18 38l15 29-13 5c-7 2-17 13-23 25l-10 22 15-19 16-20 7 7 6 7-16 18c-10 10-17 22-17 26v8l15-6 15-5v7c0 5-6 14-12 21l-13 12 20-6 20-7-20 17-20 16 15 10 15 9-18 11-17 10 20 28 19 28-18 17-19 18-29-18c-15-10-34-24-40-33l-13-15v11c0 6 7 16 15 23l16 13-12 8-13 7 14 17 14 16 1 33 2 33-19-5-19-5 3 14 3 14-12-3-13-2v22l15-6 15-5 1 27c1 15 0 39-1 53l-1 26h30l-5-9-5-8h20l11-22 11-23-14 18c-8 9-19 17-24 17h-10l5-30 4-30-12-15-12-15h43l-6 10-7 11 36-4 35-4-3 19-2 20-13 7-12 8 4 44 5 44 13-3 14-3-25 23c-14 13-26 29-28 36l-2 13 9-5 9-6 5 19 5 19-12 12-11 12 23-11 22-12v7c0 3-10 14-22 25l-23 18 27 1c14 0 33 3 42 6l15 6-5 11-4 12 47-1c27-1 52 1 56 3l9 5-27 28-26 27-2 22-1 21h-23v29l11-2c6-1 14-6 18-12l8-10v30l10-15 9-14-12-8-12-8 18-14 17-13v-43h30l-9 23-9 24h27l-5-9-5-8h21v-51l-10 6-10 6v-15c0-8 4-18 10-21l9-6 7 27 7 26 7-13 8-12-3-19-4-18h31l-5-14-5-14 24-11 24-11v10c0 6-4 10-9 10s-12 8-15 17l-7 17 20-18 19-17 7 11 7 11-12 14-12 15h10c5 0 15-6 21-14l11-13-15-13-16-13 16-17 16-18-18 2-18 1v-40l18-3 18-4 14 12 14 12-9 24-10 24h30l6-24c3-13 4-35 2-47l-3-24-22-10-23-10v-25h25l-15-11-15-10 30 3 29 3 7 25 7 25 1-20 1-20 9 15 10 14-6 11-6 10 13-12 13-12-17-26-18-27 6-5 6-6 15 13 15 13 7-7 6-6h-26l6-7 7-6-11-13-10-12 13-21 12-20-7-7-7-8-16 20-16 19 6-17 5-18h-7c-4 0-14 5-22 10l-15 10h25v28c0 16-3 31-6 35l-6 6-24-27-23-27 16-12 17-13-10-1c-5-1 9-7 31-14l40-12-3-17-3-16h7c4 0 17 8 28 18l21 17-15-20c-8-11-19-23-24-27l-10-7-13 17-12 17-1-32v-33h-13c-7 0-18 5-25 12l-12 12v-49l20-13 20-12 6 14 5 14h25c14-1 28 3 32 7l7 8-11 4-12 4 15 29 14 30h24l-10-8-10-7 1-45c1-25 2-50 3-57l1-11 36-21c19-12 38-21 41-21h5l-4 40-3 40 12 4 13 5v-19h23l-6 7-7 6 11 14 12 13 2 45 2 45h-24l1-22 1-23-12 2-13 3v-22l-13 10-13 11-11-7-12-8 7-11c4-6 16-13 27-15l20-5-19-8-20-9-4 12-4 12-11-7-12-6 7 8 8 8-9 11-9 11-2 45c-2 25-2 51-1 58l1 13 10-6 10-6-6 15c-3 8-12 17-20 20l-14 5v-18l-15 5c-8 4-15 10-15 16v9l11-7 11-6-11 21-12 21h13l13 1-17 13c-10 7-18 16-18 19v6l30-2 30-2v-7c0-5-4-8-8-8h-8l-2-26-2-25 12 7 11 7-7-11-7-12h8c16 0 28 15 30 38l3 22h-10c-6 0-10 5-10 10v10h22l5-20 5-20h29l-15-16c-20-20-20-19 5-21l21-2-5 13-5 14 11 12 12 13-14-8-14-8 6 22 6 23-14-6-13-5 4 25 4 24-21 9-22 8 12 7 12 8-16 24-15 24 7 1c5 0-2 4-15 10l-23 9 7 11 7 12-14-5-14-5v-11c0-5-3-13-7-17l-6-7 3 19c2 10 4 21 4 26 1 4 8 7 16 7h15v20l-32-7c-41-7-43-9-29-27l12-14-7-41-7-41h21l-5 23-5 22 9-11c4-6 15-13 24-16l16-6-4 26-4 27 21-42 21-43h20l-7-12-7-11 13 8 13 8-7-12-8-12-21 7c-12 4-25 11-28 16l-6 10-7-17-6-17-15 6-15 5v-22l-7 7c-4 3-8 13-9 22l-2 15 18-6 18-6 8 12 7 12-42-6-42-5 12 14 12 14 2 36 2 35-21-3-21-3-13 15-14 15 6-17 5-18h-9c-5 0-12 5-15 10l-7 11 12 14c7 8 10 16 6 16-23 5-32 4-43-4l-13-9v10c0 8 23 23 33 21 1 0 14 4 29 10l27 10 5-12 4-12 1 20 1 20-30 2-30 2v-20l-9 5-9 6-6-16-6-15-10 6-11 7 11 13 12 14-21-2-20-1 5-8 5-8h-20l-6 20-6 20-11-6-10-6 11 21 12 21-8 1c-4 1-15 1-23 0l-15-1-25 20-25 20h43l4-12 4-11h81v-26l-9 5-8 5v-26l31-14c16-7 31-12 33-10 1 2 7 15 14 29l12 25-6-22-5-23h32l-6 10-6 10h21v-20h41l-12-21-11-21 10-10 11-11 18 8c17 8 25 11 38 14 3 0 0 7-7 15l-13 13-12-4-13-5v33l13-7c6-4-1 5-16 20l-29 27-16-13-15-13 5 15 4 14-19 23-20 22-8-5-9-5 6 14 5 14-17 14-18 14 7-18 7-18-10 6-10 6v-10c0-6 4-11 9-11s11-7 15-15l5-15-8-22-8-22-12 22c-6 12-9 22-6 22s1 9-5 21l-12 21-13-6-13-5-6 15c-3 9-6 27-6 40v24h-20v-14c0-8-5-18-10-21l-10-6 2 8c1 4-3 18-10 30l-12 22-24-9-24-9-5 5c-3 3-21 7-41 8l-36 3v-8zm90-31v-9l-10 6-10 6v-6c0-4 10-15 23-25l22-18-8-8-7-8-15 20-15 19 1-10c3-21-1-35-10-35h-9l4 43c1 23 3 43 3 44 2 7 31-11 31-19zm-91-65l24-3-13 14-12 15 7 11 6 10 10-6 9-5-5-9-6-10 12-21 11-21-10 6-11 6-6-10-6-10-20 10-19 11 2-10 3-9-10-1-10-1 1 10c1 6 2 25 3 43l3 32 7-24 6-24 24-4zm178 12v-15l-14 11c-7 6-13 15-13 20v8l13-5 14-5v-14zm-139-98l3-15-23 6-22 6 12 4 12 4-6 10-7 11 14-5 14-5 3-16zm-24-28l-4-7 16-16 15-16h-32l-6 18c-4 9-11 20-17 24l-11 7 22-2 22-1-5-7zm-217-44l-6-14 9-6 10-6 1 18 1 18 5-18 5-17 9 5 9 6 17-11 18-12-17 6-18 5v-17l-22 6-21 5 8-12 7-13 24 5 24 4v-28l-10 6-10 6v-17h-30c-16 0-30 2-31 5 0 3-2 14-4 23l-3 18 8 5 8 5-5 20-5 20h24l-5-15zm111-86c-1-22 1-42 5-45l6-6-10-25-9-24 9 5 8 5 12-27 13-27-20 18-20 18-7-11-8-12-20 31-19 32 5 5 5 6 7-21 6-21h19v40h25l-14 9-13 9-8 41c-8 44-5 52 16 44l14-5-2-39zm-150 19l3-15h-27l-1 19-2 19 12-4c7-2 13-10 15-19zm72-108l-15-9 13-13c6-6 12-17 12-22v-10l-16 22-16 23-14-12-14-11v7c0 12 33 34 50 35h15l-15-10zm617-170l5-15-11 15-11 15v-26l-10 6c-5 3-10 11-10 16v10l17-3 16-3 4-15zm-567-39c0-4-4-12-9-20l-8-13-7 11c-4 6-11 11-15 11h-8l5-27 5-28 15-11 15-11-35 1-35 1 4 12 5 13 9-6 9-5v21h-25l13 9 13 8-3 14c-2 8-6 16-10 20l-8 5h35c19 0 35-2 35-5zm-80-15v-14l-20 5-20 5 6 9c3 5 12 9 20 9h14v-14zm671-76h10l-7 13-8 12 18-15 18-14-11-4c-7-2-18-1-26 2l-15 5 1 23 2 23 4-22 4-23h10zm-522-13c-2-1-20-12-39-25l-35-23 34 30c19 17 37 28 40 26 2-3 2-6 0-8zm-109-39v-10l-15 6-15 5v-30l13 2c6 1 21 1 32 0l20-1-15-10-15-10h25v-58l13-5 12-6-27 2-28 1-4 13-5 13h29v10c0 12-40 35-60 35h-15v12c0 6-3 14-7 18l-7 7 5 12 5 12 29-4 30-4v-10zm80-18v15l9-15 10-14-6-10c-3-5-7-26-9-48l-3-39 12 7 12 7-12-14c-7-7-13-19-13-27v-13l9 5 9 6 5-14 6-15-10-3-10-3-2-23-1-22-8-1c-28-5-34-5-40-2l-7 3 9 30 9 30h-20l6 10 6 10 11-6 11-7-7 11-6 10 10 27c5 14 12 39 15 56l5 29h-6c-4 0-13-8-20-17l-13-18 2 20c1 11 7 25 12 31l10 12 7-12 8-11v15zm-104-254l24-6v-32l-15 12-14 12-12-8-12-7 7 11 6 11-10 6-10 6 1 17 1 17 5-17 4-16 25-6zm80-11l-5-13 12 2c7 1 19 6 27 11l15 9-12-16-13-15 7-6 6-7h-38l15-10 15-9-17-18-18-17-5 6c-6 6-9 37-6 81l1 28 11-6 10-7-5-13zm-62-86l12 10 11-18 12-19-22 6c-12 2-28 9-34 15l-13 9 7 12 8 11 3-18 4-18 12 10zm15-71l14-23-22 19-21 19v-24l-10 6-10 6-9-23-10-23v19l-1 19 18 13c24 19 35 17 51-8z"/><path d="M5485 1948l-28-7-11 6-11 7 14-17c15-19 9-22-19-7l-18 10 5-19 5-18-29-6-28-5-11 9-10 8-3-41c-1-23-4-45-7-50l-5-8h33l-4 30c-3 17-3 30-1 30 9 0 33-29 34-42l1-13 8 30 8 30 1-34 1-35 14 20 15 19 22-14 23-14 4 12 4 12 23-21 23-21 6 25 6 26h31l-5-9-6-9 25-6 25-6-3-11-2-12 30-3c17-2 41-4 55-4h25l-10-8c-5-4-11-13-12-19l-3-13h23l-6-6-6-6 14-15 15-14 15 15 15 15-10 6c-5 3-10 10-10 16v9h31l-2-12c-1-7 2-28 6-46l8-34 8 14 9 13v-25h22l-6 15-5 15h20l-6 10-6 10-9-5-9-5-6 11-7 10 21 6 21 5v14c0 16 5 17 29 5l18-10v29l-11 1c-6 1-21 0-33-1l-23-1v21l23 1c12 1 29 1 37 0l15-2-14 10-15 9 10 14 9 14-17-18-16-18h-34l11 13 11 14-7 7-7 7-19-23-18-23 10 22 11 21-2 26-2 25-13-11-13-10-1-52-1-51-5 19-5 20-16-35-15-34-4 17-4 17 11 20c13 25 7 26-26 5l-24-17 6 17 6 16h-11c-6 0-11 4-11 9v9l28-2c15-2 33-5 41-7l15-4 4 19 4 18-14-8-13-8 14 17 13 17h-14c-8 0-19-5-26-12l-12-12v24h21l-3 23c-2 12-7 25-11 28l-8 6-24-5-24-4 6-14c3-8 9-14 15-14h9l-6 10-6 10h9c5 0 15-7 22-16l13-15-13 3-14 3-5-25-6-25-27-3-28-3v42l-10-6-10-6 7 17 6 17-21-5-22-6v7c0 3 9 12 20 19l20 12v-10c0-16 17-12 24 6l6 16-35-4-35-4v6c0 8-73 7-105-2zm55-37c0-6-8-15-18-20l-18-10-15 10-14 9h26l-7 12-7 11 11-7 12-7v42l15-15c8-8 15-19 15-25zm85-60c-2-9-4-18-4-21-2-6-21 23-21 31 0 3 6 6 14 6h14l-3-16zM6076 1934l-7-17 9-9 9-9 12 14 11 14-14 12-14 12-6-17zM6436 1925l-5-15h29v9c0 6-4 12-9 15l-9 6-6-15zM6041 1901l-11-19 17 2 17 3 3 10 4 11-10 6-10 7-10-20zM4513 1884l-6-16 10-33 10-32-8-16-9-15 6-16 6-16h14c17 0 17-4 1-38-11-25-13-36-8-84l1-18h43l-5-6-6-5 25-25 24-24 11 6 11 7-21 8-22 8v41h-48l-4 12c-2 6-2 24 0 40l5 30 19-5 20-6-5 19-5 19 18 6 17 5 16-5 15-6-16-40-15-39h-18l5 9 6 9-14 5-14 6-6-16-6-15 6-10 6-10 33 4 34 4-5-7-4-7 14-5 14-5 11 11 12 12-7-18-6-17 16 6 16 6-10 18-10 18 13 5 12 5-17 1-16 1-4-9-3-8-20 19-20 20 33-5 32-5 1 21c1 12 3 31 5 42 9 47 12 72 13 95l1 24 12-12c7-7 16-12 20-12h9l-11 20-11 20h-29l3 8c1 4-2 7-8 7h-10l1-13 2-13-18 16-18 16-7-10-6-11 15-6 16-6-6-9-5-9h21v-39l-11-6-10-7 5-14 5-14h-21l12-15 12-15h-14l10-13 11-13-8-12-8-13-13 16-12 15h20l-2 16-3 17-16 12c-9 7-17 16-17 20v7l15-12 15-12v21l-19 11c-11 5-26 10-33 10h-13l10-8c6-4 11-14 13-22l3-15-12 13-13 12h-36v40h-20v50h30v20h-41l6 10 6 10h-6c-3 0-8-7-12-16zM4476 1853c-3-3-6-10-6-15v-8h30v9c0 6-4 12-9 15l-8 5-7-6z"/><path d="M5303 1853l6-9h-22l-21 1-6-30-5-30-28-3-27-3v-9c0-5 3-15 6-24l6-16 9 6 9 5 1-8c0-4 2-16 4-26l3-18-14 12-14 11v-33l-10 6-10 6 5 9 5 9-10 6-10 6v-39l-12-4-12-4-3-50c-1-27-3-56-4-64s-1-25-1-37l2-23h42l-12 15-12 15h42v-14c0-8-5-18-10-21l-10-6 6-11 7-11-11 7-12 7v-22l14-5 15-6-6-14-5-14 13-1c8-1 17-1 22 0 4 0 7-4 7-10v-10l9 5 9 6 6-16 6-15-10 6-10 6v-32l-14 13-14 13 6 9 5 9-13-8-13-8-14 18-13 19v-25l-17 17-18 18-3-18-4-18 22-16c12-10 30-24 39-33l17-15 18 10 19 11 4-12c7-20 0-26-34-28l-31-2 6 15 5 15-12-7-12-8 3-21 3-22-20-3-20-3 15 10 15 11h-35v-30h21l9-22 9-23v23l1 22h20v-21l10 6 9 6-14-34-14-34 10-10 10-10-11-27-10-27-10 6-10 6 5 40 5 40-10-6-10-6-1 23c-1 13-1 26 0 31 0 4-2 7-6 7h-8l-1-73-1-72 19-16c10-9 18-19 18-23v-7l-8 5-8 5-13-21-12-20 10 7 11 6v-41h31l-6 10-6 10 15-6 16-6-2-23-2-23-13 5-13 5v-31l-14 5-14 5 5 17 4 18-20 1-21 2-10-19-10-18 15-6 15-5v21l15-12c15-12 47-70 39-70-2 0-13 6-25 13l-20 12-15-19c-8-11-14-28-14-38v-18h20v21l9-5c5-3 12-18 16-33l6-27 17-13 17-12-11-1c-6 0-14 3-18 7-3 4-13 8-21 9l-15 2 5-8 5-9-10-6c-13-8-13-25 1-25h10l-6 10-6 10h21v-10c0-5 0-13-1-16-1-7 22-24 33-24h7l-4 20-4 20 8 5 9 5 5-20 5-20h32v9c0 4-9 19-19 33l-19 24 19 1 19 2v-50l10 6 10 6 6-15 6-16h29l-16 16-16 17 12 8c7 4 16 6 19 4l7-4v27l-29-3-28-4v37l-16 6c-23 9-26 8-19-6l6-13-13 15-13 16-18-2-17-2 15 5 16 5-11 13-11 13 11 7 12 7 11-11 11-11h-25l6-10c3-5 13-10 20-10h14l-5 18-6 17 12-18 12-18 15 18c8 10 12 13 9 6l-6-11 6-16c9-24 18-20 31 13l11 29-14-5-14-5v50l18 8c9 4 22 8 27 9 6 0 16 4 24 9l14 9-7-11-7-12h21v28l-22 7c-13 4-31 8-41 8h-18l7 20 6 20-9-6-9-6v39h8c4 0 8-5 8-11v-10l16 15c17 18 28 21 19 6l-6-10h31v-35l-9 13-8 13-12-14-11-14 12-11 13-10 18 23 17 24-10 6-10 6v60l11-7 11-6-16 30-16 31 10 6 10 6v40l-10-6-10-6 5-10 6-9h-19l-11-30-10-31 10 7 11 6-4-18-4-19-17 1-17 2 5-8 5-9-10-6-10-6v37l-12 12-11 11 16 7 17 6v22c0 11-4 27-9 35l-9 14-22-6-21-5 12 14 11 14h-21l6 15 5 16 16-22 15-21 10 17 9 17-13 9-14 9h27l-9 13-9 12 2 60 2 60-10 12-9 11 11 7 10 6 8-5 9-5-5-31-4-31 13 3 14 3-1-22-1-23 14 11 13 11v-32h17l-4 38c-1 20-4 55-6 77l-3 40 10 17 10 17-7 8-8 7-9-13-8-14-15 6-15 6 5-20 5-19 11 7 10 6-6-15-5-16 9-11c5-6 6-9 3-6l-7 5-14-18c-8-9-12-12-9-5l6 12-9 5-10 6 5 25 4 25h-22l5 14 5 14-11 11c-6 6-15 11-19 11h-8v-40l-19 18c-10 9-18 19-17 22 1 11-25 50-34 50h-10v-30h-20l3 12c1 7 10 21 19 32l17 19-6 10-5 9-9-13-9-14v10c0 6 10 21 21 35l21 25-5-41-5-41 8-14 8-13 24 11 23 10-22 12-22 11 5 15 6 15h21l-6-6-6-6 14-14c7-8 18-14 25-14h10l-16 28-16 27 21-27c12-15 22-31 23-35 0-4 4-16 9-25l10-18h-21v20h-29l5-15c3-8 9-14 12-13 4 0 13 0 21-1l13-1-6-15-5-15h25l-2 29-2 30 12-5 11-4v32l-1 33 11 18 10 18-27 24c-16 13-28 29-28 35v11l16-16 17-16 13 5 13 5-6-15-5-14h32l-6-26-7-27 13 8 13 8-7-11-7-12h9c5 0 12 3 15 6l6 7-11 21-10 21 12-12 13-12 26 17c14 9 27 17 29 18 6 4-23 44-36 49l-12 5 11-21 11-21-11 6-11 7-11-7-11-6 13-9 14-9h-10c-5 0-17 5-25 10l-15 10h24l-5 14-5 13 15 15 15 16-15 18-16 19 6-17 5-17-10-6-9-6 1 8c1 4 1 14 0 21l-1 12h-20v-39l10-6c6-3 10-13 10-22v-15l-14 11-13 11-17-6-16-6 6 16 6 16-8 1c-5 0-25 2-44 4-49 3-50 4-50 16v10l19-6 19-6 6 9 6 10-15 12c-8 7-15 17-15 22v9l28-3 27-3v28l-14 5-14 5 6-10zm1-155l-6-9 22-6 21-6-3-26-3-26-19-3-19-4 5 20 6 21-16-6-15-6 5 31 4 31-9-6-10-6 7 11 7 11 14-5 15-6-6-10zm-38-17l-7-11-17 1-17 1 13 5 12 5v32l11-11 11-11-6-11zm10-213c-4 6-5 12-2 12s10-8 15-18l9-18-26 2-27 1 3 6c1 4 2 12 2 18v11l17-13 17-14-8 13zm-3-188l-5-20-9 6-9 5 5 9 5 8-12 5-13 5 22 1 21 1-5-20zm13-145l-6-16-9 5-9 6-4-12-4-12-17 7-17 6v21h60v23l6-6 6-6-6-16zm-76-77v-8l-22 1-23 1 17 5 17 4-5 17-6 17 11-15c6-8 11-18 11-22zm51-2c1-6 2-23 3-37l2-26h-46v27h30v21l-10-6-10-6v50l15-5c8-4 16-11 16-18zm-4-114l-1-19h-26v18l-10-6-10-6 6 15 6 16h37l-2-18zm11-44l-4-11-30-4-29-3 30 14c38 18 37 18 33 4zM5945 1849c-10-14-1-21 19-13l16 6-6 9c-7 12-21 11-29-2z"/><path d="M5437 1823c-4-3-7-12-7-20v-13l18-1 17-1-11-4-12-5 5-19 5-20h36l5 14 6 14 15-2c9-1 19-6 23-11l8-8-11 6-12 7-6-26c-8-31-5-37 18-28l16 6-7 11-6 10 15-6 16-6-5 20-5 19h10c6 0 17-3 26-6l16-6-6-9-5-9h10c5 0 13 4 16 10l6 9-20 18-20 17 4 7 5 7-15 12-15 12v-17l-10 15-11 15 7-28 6-27-29 3c-16 2-35 7-43 12-15 10-20 11-41 14l-10 1 6 10c7 11 2 13-8 3zM4487 1803l7-18-16 13-16 12-4-18c-3-10-4-33-3-51l3-32-14 5-14 5v-9c0-5 7-15 15-23l14-15-12-10c-7-5-19-12-27-14l-15-6 55 2 55 1v30l1 30-11 22-10 23h-25v19l21 6 20 7-3 16-3 15-13 5-12 4 7-19zM5320 1791c0-3 4-12 9-20l9-14 10 7 11 7-5 13-5 13h-14c-8 0-15-3-15-6zM6556 1721l-6-9 15-12 14-12-2 21-1 21h-8c-4 0-9-4-12-9zM4590 1685v-15h9c5 0 11 7 15 15l5 15h-29v-15zM5891 1626l-24-13 27-5 26-5v18c0 22 2 22-29 5zM4419 1618c0-7-2-22-5-33-2-11-2-34 1-52l6-32 31-6 31-7-13-8-12-7 16-6 16-6v-26l-11 15-10 15 7-37 6-37-16-23-16-22v22l-21-5-20-6 10-10 11-11 30 11 30 11v-6c0-10-20-38-20-29v7l-23-15-24-15-6 7-7 6v-51l27-7 27-6-14-9-14-9-8 5-8 5v-10c0-5 4-12 9-16l10-5-6-34-5-33 8-6 9-5 33 5 33 5-5 14-5 14h19l1-12c1-7 0-17-1-23l-2-10 7 7 7 6 27-8 28-8v27l-7-4c-3-2-12 0-19 4l-13 8 32 7 32 6-13 16-13 16 10 6c5 4 15 18 22 32l12 25-5-22-6-22 13-20c7-12 15-21 18-21h6l-4 35-4 35h23l-5-9-6-9 6-16c3-9 10-16 14-16h8l-5 23c-3 12-10 27-14 33l-9 11 6 6 6 6 13-5 12-5-4 25-5 26h-27l-4-17-5-18-1 27-1 27-16 9-16 9 16 6 17 7-6-9-5-10 12-8c7-4 19-8 26-9l13-2-7 21c-3 12-11 27-16 34l-10 12 7 13 6 13-17-20-17-20 7 20c4 11 8 24 9 30l2 10-22 3-23 3v16l21-2 22-1 12-17 12-17 6 7c4 3 7 10 7 15v9l-9-5-9-6-6 16c-3 9-6 20-6 25v9h30l-16 25c-9 14-20 25-25 25h-9v-26l-22-1-22-2-13 11-13 10v-13l-1-14-14 19-15 20-13-19-14-18-7 11-7 12h21v30h-15c-8 0-18-1-22-2l-8-3 3-30 2-30-13 23-13 23-6-7-6-6-11 20-11 20 15 5 14 6-6-15-5-14 13 5 14 5 2 31 2 32-20-19-20-18 7 17 6 17h-22l-1-12zm156-178v-45l-27-3-28-3v32l10-6c16-10 11 1-7 16l-17 14 8-12 7-13h-19l-4 33-4 34 41-1 40-1v-45zm40-47c-5-10-7-22-6-28l1-10-15 20-16 20 15 3 16 3v22l6-6 6-6-7-18zm-1-68l6-15-23 11c-32 17-33 19-10 19h21l6-15zm-113-24l1 14 5-12 5-13 20 11 20 11-7-12-8-13 20-16 20-16-6-20-6-21-50 14-50 15 12 4 11 4-8 30-9 31 14-12 15-12 1 13z"/><path d="M4530 1468v-8h14c8 0 17 4 21 9l5 10-20-2-20-1v-8zM4537 1263l-5-8 14-13 14-13v15c0 8-4 17-9 21l-10 5-4-7zM4483 1623l7-6-10-12-10-12h13c6 0 19-3 27-5 8-3 12-3 8-1l-7 4 6 16 6 16-11-7-12-7v21h-23l6-7zM5376 1622l-5-9 6-21 5-22 9 6c5 3 9 14 9 24v19l-9 6-10 5-5-8zM4622 1587l3-22 16-3 16-3 6 13 5 14-25 11-24 12 3-22zM4675 1579l-7-10 6-6 6-7 11 11 11 11-10 6-11 6-6-11zM4429 1483c-1-5-1-11 0-15 0-5-3-8-9-8h-10v-27h29l-5 9-5 8h15c18 0 19 2 10 24-6 16-23 22-25 9zM5146 1482l-4-7 13-25 14-25-2 23-1 22h-17l6 10c3 6 4 10 1 10s-7-3-10-8zM6500 1450v-24l12 12 12 12-12 12-12 12v-24zM6725 1429l4-21-19-5-19-5-5-15-6-14 14-15 14-14 5 13 5 12 1-15 1-16h40l-4 26-3 25-11-2-11-3 6 15 5 16 14-12 14-11v11c0 13-31 51-42 51h-7l4-21zM4435 1394l-16-25 20 10c11 6 22 15 26 20l5 10-9 5-9 6-17-26zM6130 1371c0-5 7-12 16-15l15-6-6-10-7-11 12-14 11-14 15 6 15 5-17 19-17 19h15l-12 15c-7 8-19 15-26 15h-14v-9zM6520 1334c0-7 27-34 35-34 3 0 1 9-5 20-10 18-30 28-30 14zM5322 1287l16-13-16-12-17-11 15-10 15-10-19-14-19-14 8-13 7-12 27 28c14 16 25 32 24 36l-3 8h20v14c0 18-6 21-45 30l-30 6 17-13zM6125 1286l-18-13 11-7 12-7v22l9-6 10-5 5 9 6 10-8 5-9 5-18-13zM6600 1240c0-5-3-9-7-8-5 0-16-2-25-6l-18-8v-38h-30v-70h30v-20h51l32-17 32-17-18-4-18-4-14 12-15 12v-27l-9 14c-5 8-16 16-25 17l-16 2-6-9-5-9-10 5-9 6v-23c1-13-2-38-6-57l-7-34 17 6 17 7 11-25c6-14 15-25 19-25h8l-5-15-6-15-18 10c-26 14-28 13-35-20l-7-30h-19l11 19 10 20-8 5-9 5-12-42c-7-23-23-63-37-89l-24-48 27-1 28-1-20-6-20-7-2-21-2-21 22 1 22 1 3-22 3-23h-9c-6 0-13 7-16 16l-6 16-15-6-15-5 1 7c1 4 1 13 0 20l-1 12h-19l-6-19-6-20-19-6-18-6-6-16-7-16 13-10 13-9-22 5-22 5-5-15c-9-22-8-23 14-23h20v-20h-11c-6 0-19 5-30 10l-19 11v-31l-12-1-13-1 23-6 23-7-16-20-15-20 6 16 5 16-21 6-22 6 6-16 6-15-15 5-14 6-15-15c-9-8-30-21-48-29s-28-14-23-15h10l-13-8-13-9 10-26 11-27h-8c-5 0-13 5-20 12l-12 12-1-17c-2-30-4-35-11-42l-7-7 4 31 4 32-9-6-9-5-5 9-6 9 17 5 18 5-18 1-18 1-6-17-7-17 12-4 12-4v-48h10c6 0 10-4 10-10v-10l-25 12-25 11 6 20 6 20-13-8-14-8 7 8 8 8-11 14c-6 7-17 13-24 13h-12l-1-15c-1-8-3-22-4-30l-1-14-8 5-8 4-6-10-7-11-11 16-12 15-21 4-20 4-1-33-1-33 21 6 20 5-7-11-7-12h21v20h28l27-1-19-14-18-14 7-11 8-12 9 13 9 14-6-22-6-22 18-10 18-10-20-1h-20l15-10 15-10h-26l-5 14-6 15-19-4-20-4 7 11 7 11-15-5-15-6-13 8-13 8 22 7c24 7 27 18 8 34l-14 11-6-6-6-6 6-14 5-14h-6c-4 0-17 9-29 20l-21 20-12-4-13-5-11 15c-7 8-19 14-26 14h-14v-50h-20v-30h-20v48l14 11 14 12-5 19-5 20h-9c-6 0-12-6-15-13l-5-14h-69v20l-7-6-6-7-11 9-11 9-42 3-43 3-12-12-13-13 15-10 15-11-17 6-18 5v-19h18c10 0 28-7 40-16l22-15v-24l-10 15-10 15v-33l-17-6-16-7-11 11-11 11 10-1c6-2 16-2 23-1l12 1v35l-9-14-8-13-7 11-7 11 8 1c4 0-3 5-16 10l-23 9 6 15 6 16-18-3-17-3 2 18 1 18-5-5-6-5-20 14-21 14-12-10-12-10-8 12-7 12 13-8 13-8-7 11-7 12h-30l9-16 9-17-4-18-5-19h22v30h20v-22l18 13 17 14-14-17-13-18-9 6-9 5v-52l-12 7-11 7 6-15 6-16-20 5-20 6 4 41 5 42-13 18-13 17-4-8c-3-4-8-16-11-25l-6-17 15 6 14 5v-9c0-5-4-13-9-18-4-6-11-26-15-45l-6-35 9 14 9 13 6-11 7-11-14-6-15-5 2-24 3-23-12 4-12 5-1-31-1-30h30l-7 12-7 11 14-9c8-5 25-10 39-12l25-3 3-10 4-9h29l-7 22-7 23 16-14 17-13-7-12-6-11 8 7 8 7 21-14c11-8 26-15 33-15h12l-6 18-7 17 18-17c9-10 22-18 27-18h10l8 22 8 22 7-27 6-27h59l6 10c3 6 11 10 16 10h10l-6-10-6-10h31v28l13 5 12 6-32-3-33-3 6 9 6 9 11-4 12-4 18 9 17 9v-23l1-23 10 18 11 18-6 14-5 14 10 3 11 4 1 27c2 33 3 33 18 6l11-21-11 6-11 7v-21h30v12c0 6 2 9 5 6 6-6-18-58-27-58h-8V83h30l1 11c1 6 0 19-1 29l-2 19 18-4 17-3 5-15 5-15-15 13-15 12 5-25 4-25h9c6 0 12 6 15 13l5 14h29l-13-15-12-15 33 17 32 17V89l13 8 12 7 23-3 22-2 6 15 6 16-12 15-12 15-9-6-9-5 7 17 6 17-13-8-13-8 6 11 7 10 24-11 24-11-5-14-5-13 26 5 26 5v-19h40v35l9-14 9-13 7 12 7 11 15-6 16-5-13 15-13 16 11 11 12 12v-17c0-22 8-21 33 1l20 17-7-13-7-12h21v30h19l-5 15-6 15 15-6 16-6-6-14-5-14h5c3 0 26 14 51 31l46 30v20l-8-5-8-5 1 22v22l-10 2c-5 1-12 10-16 20l-6 18 5 17 4 17 14-6 15-5-12-14-12-14 17 6c9 3 16 10 16 15s5 9 11 9h10l-7-12-7-11 11 7 12 7v-41h9c5 0 16 3 25 6l16 6-11 19-10 20 22 38 22 39 19 6 20 5 14-6 14-5v-41l8 7c4 4 7 13 7 19l1 12 11-2 12-3 25 31 25 30-5 14-6 15h12c6 0 18 7 27 16l16 15-12 25c-14 32-14 37 1 32l13-5 14 14 13 14-18 14-19 13-6-10-7-11-11 7c-6 4-11 11-11 17v9h45l-13 9c-8 4-14 12-15 17l-2 9-17-2-18-3v22l25-4 25-5 6 8c3 5 10 9 16 9h10l-10-13-11-13 9-13 8-14-5-14-5-13h12c16 0 34 21 38 45 2 11 9 27 15 35l12 15-18-14-17-14-8 7-7 8 18 10 18 10-11 13-10 12 29 6 29 6 4 36 4 36-8 5-9 6-12-10-12-10-27 5-28 5v38h40v31l10-6 10-6-10-18c-12-23-6-29 25-24l24 5 5 14 5 14-5 15c-4 8-10 15-14 15h-8l2 16 3 17 19 14 19 15-22-6-21-7-7 11-6 10h23l-12 15-12 15h30l5-12 4-13 8 7 7 7 2 83 1 83 9 6 8 7-11 6-11 7v-22l-9 6-10 6-11-21-10-20 6-24 6-25 13-5 13-5-5-20c-3-11-12-26-20-32l-14-12 6 32 5 32-5 9-6 9-12-5-13-4v-23c0-12 3-24 8-27l8-6-22-18-21-18 6 16 6 16-12 1c-7 1-16 1-21 0l-9-2 12 15 12 14-11 7-10 6 5 10c4 5 12 9 18 9h12l-15-10-15-10h24l4-17 5-18v30l1 30-12 20-12 20-16 3-17 2-5-20-5-20h-32v20h28l6 23c9 33 8 35-14 47l-20 11v-11zm-6-71l-6-11-8 13-8 12 5 15 6 14 9-16 9-16-7-11zm184 8l3-17-15 6-16 6v30l13-4 12-5 3-16zm-139-68l-12-23-9 24-9 23 13 8 13 8 8-8 9-9-13-23zm52-89c5 0 9 5 9 10v10h21l-6-11-7-10 18-14 19-14-22 2-23 1v16h-40v13c0 8 3 17 8 21l7 8 3-16 3-16h10zm-82-18l16-13-12 6-13 6v-21h-21l6 13c4 6-1 3-9-7l-16-20v18c0 9 5 27 12 39l11 22 5-15c3-8 12-21 21-28zm39 14l4-18-14 4-13 5-3 17-4 18 14-4 13-5 3-17zm-98-6v-20h-15c-17 0-18 2-9 24 3 9 10 16 15 16h9v-20zm100-84v-24l-14-11-14-12 2 25 1 24 8-5 7-4v12c0 6-8 18-17 26l-18 14 23-11 22-11v-23zm-49-58l-10-26 14-19 14-20-6-7-6-6h23v-47l-31 5-31 5 13 8 13 8 8-5c16-10 8 6-14 27l-23 22 14-8 13-8-6 30-7 30 7 27 7 27 9-9 9-9-10-25zm-43-29l17-1-12-5-13-5v-36l13-5 12-4-14-14-14-14 7 13 7 12h-13c-14 0-59-28-69-43l-7-9-9 3-8 4 12 35 12 35v-17l1-18h21l-6 10-6 10h31l1 20c1 18 3 26 9 48l2 7 5-12 5-13 16-1zm102 6l-12-14 30 9 30 8 7-6 6-6 9 14 10 15v-35h-60v-48l13-5 12-5-12-1c-6-1-14 3-18 9l-6 9-14-6-15-5v53l-9-5-9-6-4 18-5 17 30 2 29 2-12-14zm-137-97c-4-7-8-16-8-20 0-5-3-8-7-8-5 0-7 3-7 8 4 19 12 32 21 32h9l-8-12zm27-23v-15h-9c-5 0-11 7-15 15l-5 15h29v-15zm28-24l-3-18 13-16 14-16-21 2-21 1v36h-9c-5 0-11-6-13-13l-3-14-19 19-19 18h54l5 15 6 15 10-6 9-6-3-17zm24-86c4-5 8-13 8-17v-6l-22 5-23 5 15-11 15-11h-21l-3-42c-1-23-3-44-5-45-1-1-13 5-25 14l-23 16 16 9c9 5 16 14 16 20v11l-18-16-17-16-15 9-15 10h29l-12 12c-7 7-12 15-12 20v7l18-6 17-7-15 19-15 19 18-7 19-7 21 15 22 15-30-3c-16-3-22-2-12 0l17 4-5 10-6 9 28-12c15-7 31-17 35-23zm-203-37c-16-30-16-31-23-19l-6 9 16 16c22 22 27 20 13-6zm74-14l6-6-11-18-12-18-18 11-18 12v25h23c13 0 26-3 30-6zm-73-64l-15-10h24l-5-15-6-15 18 7 17 6-6-10c-4-6-15-13-24-15l-18-5-1 31-2 31 11 7c6 4 14 5 16 2 3-3-1-9-9-14zm-70-50v-7l-25 5-25 4v-6c0-4 5-16 11-27l11-21-24 4-23 3 3 17 3 16-11 7-10 6v-20l-15 5-15 6v-23l-9 5-9 6 5-22c7-31 36-91 48-100l10-8h-26l-13 30-12 30-8-7-8-8 2 10c1 6 2 18 1 29l-1 18-20-5-20-5-7 10-6 11 9-6 10-6 14 10 15 9h-15l-15 1 20 12c11 6 22 12 25 13 3 0 13 4 23 8l17 8 15-12 15-12v21l18 3c20 5 42-1 42-12zm43-37l-6-16 9 6 10 6 1-20 2-19h-8c-5 0-14 7-21 15l-12 15-7-4-7-5v39h17l-7 11-6 11 20-11 21-11-6-17zm-136-17v-14l-14 5c-7 3-13 9-13 14v9h27v-14zm44-48c2-21-2-42-9-50l-7-7-2 35-2 34h19l1-12zm-245-40l-1-23 13 3 12 2v-31l10 6 10 6-10-27-11-27 5-13 5-13-7-5-8-5-14 10-15 11 13 5 12 5-5 8-6 9-14-6-15-5v42h25l-11 8c-6 4-13 14-16 22l-5 15 16 12c9 7 17 13 17 13 1 0 1-10 0-22zm129-8l13 10 5-19 4-18-18 4c-11 3-22 9-24 14l-6 8-14-5-14-6 6 22 6 21 14-21 15-21 13 11zm95-41c0-14-4-11-41 28l-34 36 38-28c20-15 37-31 37-36zm-670 31v-10l12 3 12 2 2-24 1-23-23 28c-27 30-28 34-14 34 6 0 10-4 10-10zm-124-22l2-18h-18v-31l-9 5-9 6 2-25 1-25 13-5 12-4 24 9 24 9 6-6c3-4 6-19 6-35v-28l-17 1-18 1 13 5 12 5-1 16-1 17-4-12-5-12-15 6-14 5 6-18 6-19-10 15-11 14 6 9 6 9-24-7-24-7 8 7 7 8-17 20-18 20 13-7 12-7v7c0 4-8 13-17 20l-18 13 13 1h13l-6 9-5 10 10 6 10 6v-22l10 6c6 3 10 13 10 20v14l-15-5-15-6v23l22-3 21-3 3-17zm222 4c2-7 8-12 13-12h10l-7 13-8 12 17-14 17-13-6-10-6-9-15 5-14 6 7-12c4-7 11-31 14-55l7-42-14-5-13-5v20l-12-7-13-7 16 19 17 19-9 23-8 22h-18l-18-1 20-15 20-15-18-10-17-10 6-11 7-11-16 6-16 6-10-17c-6-9-11-14-11-9 0 4 6 16 13 28l12 20-25 19-25 20 15 1c8 1 21 1 28 0l12-2v71l22-3 22-4 4-11zm140-13l27-1-30-7-30-7 3-19 3-20-10 15-10 14 7 11c4 5 6 19 5 30l-2 20 5-17 5-18 27-1zm293 0l21-21-6-21-5-22-22-13-21-13 6 9 6 10-12 6-13 6 12 6 12 5-6 35-6 34h7c3 0 15-9 27-21zm179-12c0-3-6-7-12-10l-13-4-1 23-2 23 14-14c8-7 14-16 14-18zm-801-22l11 6-6-15-6-15-11 2c-13 2-27 18-27 31v8l15-12 14-12 10 7zm351-15l-11-20 26 10c34 13 35 13 35-6v-16l18 4 18 5v-37h-7c-4 0-9 6-12 13l-4 12-21-21c-12-12-19-24-16-26 2-3-3-5-11-5h-15l10 12 10 12-7 6c-3 4-10 7-15 7h-9l6-10 6-10-13 5-14 5 1 34v34l7-4c4-2 9 0 13 6 11 19 16 10 5-10zm-440-46c0-4-7 1-15 12l-14 19 6-25 6-25-23 28-23 29 13 8 13 8 19-23c10-13 18-27 18-31zm160 16h16l1-20 2-20h-28l-6 20-6 20-10-5-9-6v35l12-12c7-7 19-12 28-12zm369-56l-10-12-19 5-20 5 4 7c3 4 16 7 30 7h25l-10-12zm-285-9c-4-8-10-15-15-15h-9v30h29l-5-15zM4671 1173c1-5 1-14 0-20l-1-13h-30v-23l-6 6-7 7 12 14 12 14-11 7-10 6-4-13c-2-7-7-25-10-40l-6-28h9c6 0 22 5 36 12l25 11v27h20v40h-30l1-7z"/><path d="M4600 1127v-17h-43l-19-17-19-17 6 17 7 16-26-12-25-12-7-29-6-28 12-8 12-8-13-4-13-4 8-13 8-12 14 12c8 6 14 17 14 25v13l-17 10-18 10 17 6 18 7-6 9-5 9h6c3 0 9-10 14-22l8-23-9-24-9-24 16-17 15-17v-34l13 7c6 4 2-3-10-15-24-23-28-33-16-44l6-7 13 11 14 11-5 7-4 8h24v-45l-7 4-8 5 6-15 6-16-23-1-24-1 28-10 27-10-5-8-5-8 15-6 15-5v-30l-16-9-17-9 7-12 7-11 10 5 9 6-6-14-5-15 10-7 11-6 1 18v18l9-20 8-20-5-22-5-23h31l6 20 6 20 10-5 9-6v6c0 3-7 17-16 30l-16 24 5 13 5 13 1-16 1-17 15-6 15-5v-31h30l-1-7c-1-5-1-17 0-28l1-20h65l2-30 2-30-12 16-12 16-23-4-23-3 6 12c4 7-1 4-9-6-9-11-17-17-17-13-1 4-3 12-4 17-1 6-3 16-4 23l-2 12-10-24-9-24 11-13 11-13 24 10c14 5 32 9 40 9h14v-40h28l5 13 5 12 1-15c0-8-4-22-9-30l-10-15v10l-1 10-15-25-15-25 5 18 5 17h-20l3-21 3-22 20-11c11-6 25-18 32-26l12-15 1 13v13l15-15 15-15v-32l18-6c9-4 22-14 29-22l12-16 1 13v12h22l5-20 5-20h18v40h19l-15 36-15 36 13-5 13-4-3-16-3-15 11-7 10-6v-38l16-15 15-16h-9c-5 0-15 7-22 15l-13 16-8-13-8-12 25-23c26-24 40-30 29-13l-6 10h13c7 0 23 3 36 6l22 6-1-18-1-19-5 13c-2 6-9 12-14 12h-8l6-17 6-16-11 7-12 7 6-15c3-8 13-17 21-20l16-6-9 13c-5 7-1 5 8-6l17-19 11 7 10 6v-9c0-5 11-14 25-20l25-12v8c0 4-10 13-21 20l-21 14 11 11 12 12 8-14 9-13 10 17 10 18 11-22 12-21-3-18-3-17 17 1 16 2-4-12-4-11 25-12 25-11 6 9 5 9-6 33-6 32 10-15 11-15v41l-12 13-13 14 11 4 12 4-6 22c-2 12-9 27-13 33l-9 11 7 6c3 4 10 7 15 7h8l1-22 1-23 7 25 7 25-10 7-11 8h27l-4 13c-3 6-9 12-14 12s-16 5-24 10-23 11-32 12c-10 2-27 12-39 24l-21 21-8-12-8-12-11 18-10 19-1-17v-17l-20-6-20-6v-47l15-6 16-6-11-20-10-20-18 18-18 17 8 3c4 2 8 10 8 18v15l-9-5-9-6-5 21-6 21-10-7-11-6 5-10 6-9h-19l5-20 5-20 9 6 9 5-1-33v-33l-9 21c-5 12-17 28-28 35l-19 14-5 23-6 22h9c5 0 9 5 9 11v10l-12-7-13-8 14 17c7 9 11 18 7 18-3 1-9 2-13 3-5 1-14 5-22 10l-14 9 7-11 7-12h-23l6 33c3 17 7 38 8 45 2 15 18 16 18 1v-10l9 6 10 5 7-11 7-12-10 6-11 7-5-20-5-20 17-13c10-6 20-19 24-27l6-15 6 23 7 22h14c7 0 15-4 18-9l6-9-20-5-20-5v-20l16 2 16 3 10 17 10 17-6 25-6 24h-9c-5 0-16 6-23 13-7 6-25 18-40 26l-26 13-11-6-11-7-11 7-11 6 13 9 14 9h-40l12 8 12 8-6 22c-3 12-8 22-12 23-3 0-16 2-28 3l-22 3 5-9 5-8-17 7-17 6 17 12 16 13-9 25c-5 14-15 28-22 32l-11 8-7-12-8-12-27 10-27 11 11-20 11-20 17-1h17l-22-9c-28-11-29-16-3-16h20l5 17c3 10 12 20 20 23l14 5-4-12c-2-7-6-25-10-41l-6-30-8 12-8 13-26-10-27-11v14c0 8-4 16-9 18-4 2-12 13-15 26l-7 22h21v32l15-6 14-5 15 15 15 14-10 30-11 29-16-6-15-6 6 18 7 18-15-13-16-13 13-8 13-9h-11c-6 0-18 8-28 18l-16 19 20 18 21 19-4-15c-2-8-2-11 0-6l5 7 11-7 12-7-15 18c-8 10-15 24-15 30-1 6-6 23-13 39l-12 28-17 6-17 7-4-12-4-12-9 6-9 5 12 22c14 26 18 58 10 72-4 6-7 15-8 22l-2 12 14-6 14-5-6 16c-7 19-13 20-36 2l-17-13 11-11 12-12-19-1-20-1 13-5 12-5v-38h32l-12-14-11-15-17 6-17 5 15-12 15-12-20 5c-11 3-28 8-37 12l-18 7 1-18 1-19 5 13 5 12 9-6 10-6-18-14-18-13 18-1h17v-20h23l22-1 19-14 20-15 18 17 18 16v-33h-32l5-12 4-13-9-17-9-18h-30l3 37 3 37-16 4-16 3 3-32 4-31-16 12-15 13 13 8 13 8-17 17-17 18-5-15c-3-8-6-22-8-32l-3-18-13 22-13 21 9-6 10-6 6 15 5 15h-18l4 18 3 18-14 18-13 19-16-6-15-6v24l-10-15-11-15 7 30c4 17 9 33 11 37l4 7 14-5 14-6-5-13-5-12 20-6 21-5-6 10-7 10 21-6 21-7-8 29-9 29 15-1 16-1 4 13 5 12h-22v-21l-9 6-10 5-14-20-15-21-5 15-6 16-26-10-25-10v18l29 7 28 6 13 24 13 25-6 7-7 6v-16zm36-302l15-15h-33l5-12 4-13h38l13-12c7-7 20-13 28-13h15l-10-19-10-18 6-7 6-6h-11c-6 0-13 4-16 9l-6 9 12 5 13 4-32 17-33 16-17-20c-10-11-22-20-27-20h-9l22 24 23 24-21 7c-12 3-21 10-21 15s-3 15-6 24l-6 16h43l15-15zm178-40l5-15-24 4-25 5 5-10 6-9 9 5 9 5 5-9 6-9-17 3c-10 2-21 4-25 4-5 1-8 7-8 15v15l23 4c12 2 23 5 23 6 1 0 4-6 8-14zm-74-27v-31l-7 6c-3 4-7 18-8 32l-1 25h16v-32zm5-68l6-10h-15c-8 0-18 5-21 10l-6 10h15c8 0 18-4 21-10zm105-80v-10h-31l5-8 5-9h-14c-20 0-19 7 3 23 21 16 32 17 32 4zm85-10l-6-10-8 5-8 5-18-20-18-20 11-12c6-7 12-26 14-42l3-29-15-5-15-4 11 12 12 12-5 19-5 19h-18v-90h14c8 0 18-5 22-12l7-11-11 7-12 7v-10c0-5 7-16 15-25 21-21 19-25-12-22l-28 3 3 30 3 30-33 1-33 1-3 10-4 11-8-5-8-5 2 18 1 17 23 13 22 13v37l14 5 15 6 4-7c2-4 3-2 1 4-4 21 34 53 64 54h13l-6-10zm15-152v-10l-16 6c-9 3-23 6-32 6h-17l14 9 13 9 19-5 19-5v-10zm253-40l6-22-21-20-20-19 22-12 23-12-12-7-11-7v22l-9-5-9-6-5 13-5 14 8 14 9 13-12 9-12 8 24-6 24-7-7 11-7 11h-31l12 15c17 21 27 19 33-7zm79-33c4-5 8-14 8-19v-8l-14 11-14 12-5-8c-2-4-7-20-10-34l-7-26h-30l10 12 10 12-8 8-7 8 13-7 12-7v30l-11 7-11 7 12 7c16 10 43 7 52-5zm-122-80v-15h-21l5 9 6 9-12 5-13 5 18 1 17 1v-15zm30-10l9 5 6-11 7-11-18 4-19 3-1 15-1 15 4-13 5-12 8 5zm76-50l3-35-22 4-22 3-4 19-3 18 18-14 19-15-14 18-13 17h-17l-16 1 19 10 18 11 9-13 9-14v38l7-7c4-3 8-22 9-41z"/><path d="M4813 468v-13h45l-10 13c-6 6-16 12-23 12h-12v-12zM252 1095c-17-8-53-31-78-52l-46-38-14-27-14-27V360h927l21 23 22 23v214H410v240h617l21 23 22 23v204H678l-393-1-33-14zm758-130v-85H340V550h670V380H119l3 290 3 290 31 30 31 31 39 14 39 14 373 1h372v-85zM1162 1087l-22-23V630h261l24 28 24 27 1 88v87h460V620h-714l-28-27-28-27V360h1027l21 23 22 23v704H1183l-21-23zm988-372V380h-990v170h760v330h-530V650h-230v400h990V715zM2308 1087l-28-23V360h210l167 145c92 80 169 145 173 145 3 0 80-65 172-145l166-145h198l27 28 27 28v694h-267l-21-23-21-23-3-116-3-116-113 99-114 100-16-13c-9-7-73-62-142-122l-125-109-3 162-2 161h-128l-127-1-27-22zm224-211l3-174 140 123c77 68 145 124 151 124l12 1 143-126 144-125 3 175 2 176h220V380h-170l-167 146c-91 80-172 148-179 151l-13 5-33-30c-148-131-254-223-291-252l-25-20h-172v670h230l2-174zM3508 1085l-28-24V640h710v-20h-657l-26-30-27-30V360h825l40 10 40 9 53 55 52 54v297l-24 36-25 36-34 17-35 16h-582v220h-127l-128-1-27-24zm222-145V831l303-3 302-3 32-24 32-24 16-33 15-32V479l-14-28-15-28-28-19-28-19-417-3-418-3v171h690v110h-690v390h220V940zM7102 1087l-22-23V620h-314l-28-27-28-27V360h997l21 23 22 23v214h-360v490h-267l-21-23zm228-287V550h360V380h-960v170h370v500h230V800zM5996 1066l5-14-11-7-11-7-14 12-15 12v-21l21-11 21-12-6-14-6-15 9 6 10 5 6-10 6-10 10 5c5 4 9 11 9 17v10l-15-6-15-5v9c0 6 4 10 9 10h9l5 20 5 20-19 10-19 10 6-14zM4487 963l-7-6 11-13 11-14-5-14-6-14 6-6 6-6 13 18c7 9 14 24 14 33v17l-16 6c-19 7-19 7-27-1zM5902 948c-7-7-12-18-12-25v-12l14 5 15 6-2 19c-2 23 0 22-15 7zM5049 916l-19-20v15l-1 14-9-17-10-17-4-58c-2-32-7-67-12-78l-8-20 18 14 17 14-2-9c-1-5-1-15 0-22l1-13 10 6 10 6-7 12-7 12 17-14 17-13 13 31 13 31 10-10 9-9-2 62c-1 34-2 71-2 83l-1 21h-32l-19-21zm0-32l-13-16 15 2c7 1 19 2 26 1l11-1-10-33-10-34-19-11c-23-15-25-9-4 12l15 14-9 24-10 23v-13l-1-13-10 6c-14 9-12 21 6 39 20 21 30 21 13 0zM5800 934c0-5 5-16 10-24l10-15 10 15 10 15v-25h22l-12 15-13 15-5-5-5-5-14 11-13 11v-8zM5300 904c0-16 2-16 24-8s20 19-4 21l-20 2v-15zM5350 890v-11l-12 7-11 7 6-17 7-17-10 6-9 6-11-22c-16-29-8-33 33-15l36 14-6 21c-3 12-9 24-14 27l-9 5v-11zM5790 891v-12l-9 5-9 6-6-15-6-15 20-32 19-32-5-8c-3-4-10-8-15-8h-10l5 9 6 9-20-5-20-5 2 33 3 33-19 4-18 4-10-10-10-10 20-20c11-11 18-22 16-25-3-2-7-16-10-31l-4-26h8c5 0 14 10 20 23l11 22v-23l1-23 14-15 15-14h41v29l-15-5c-8-4-15-4-15-1s7 7 15 11l15 6 20-20 20-20v15c0 26-2 30-12 27-8-2-38 21-38 30 0 2 11 5 25 6l25 2v-30h20v-48l37 1 36 2 5 14 5 14-14-9-14-8 12 16 13 15-18 14-17 14-28-1-29-1-5 13-5 13-14-6-14-5v11c0 6 3 10 8 10 4-1 13-1 20 0l13 1-6 11-7 10-12-4-12-5-14 21c-8 12-14 25-15 29 0 3-3 10-7 14l-8 7v-12zM6179 838c-1-2-3-13-4-25l-2-23h15v25c0 21-5 32-9 23zM5116 823c-3-3-6-10-6-15v-8h30v9c0 6-4 12-9 15l-8 5-7-6zM5342 823l-13-5 13-16c7-10 8-14 4-10l-9 8-17-28-17-27 10-12c13-18 20-16 36 8l13 22-16-6-16-6v5c0 3 7 12 15 20l15 15v20c0 10-1 19-2 18-2 0-9-3-16-6zM4662 636l-21-25 10-7 10-6 14 18c8 11 15 24 15 29v10l11-15 11-15-4 14c-3 8-9 16-14 18l-10 3-22-24zM4700 536v-14l15-5 14-6 6 9 6 10-6 10c-3 6-13 10-21 10h-14v-14zM6466 451l-19-7-3-35c-2-19-6-45-9-57l-6-24 11 7 10 6v38l19 6 19 6 4 24 5 24-6 9-6 9-19-6zm14-37v-15l-10 6c-5 3-10 13-10 21v15l10-6c6-3 10-13 10-21zM6340 340l-15-10h27l-6-15-5-15 17-9 18-10 10 7c5 4 10 14 12 22l3 15-12-12c-7-7-17-13-22-13h-9l5 13 5 14-7 11-7 11-14-9zM5867 320c3-11 9-20 13-20h8l-5 20c-3 11-9 20-13 20h-8l5-20z"/></g></svg>