<!DOCTYPE svg PUBLIC "-//W3C//DTD SVG 20010904//EN" "http://www.w3.org/TR/2001/REC-SVG-20010904/DTD/svg10.dtd">
<svg version="1.0" xmlns="http://www.w3.org/2000/svg" width="512px" height="512px" viewBox="0 0 5120 5120" preserveAspectRatio="xMidYMid meet">
<g id="layer101" fill="#00ff00" stroke="none">
 <path d="M845 5111 c-384 -6 -402 -8 -456 -29 -172 -69 -307 -213 -362 -387 l-22 -70 0 -2030 c0 -1573 3 -2049 13 -2115 18 -122 57 -195 162 -300 105 -105 178 -145 300 -162 123 -18 4037 -18 4160 0 122 17 195 57 300 162 106 105 145 177 162 300 18 123 18 4027 1 4150 -18 121 -66 213 -163 310 -99 99 -190 147 -310 161 -97 12 -3131 20 -3785 10z m3697 -400 c67 -8 120 -45 152 -107 21 -39 21 -41 24 -1849 1 -995 -1 -1905 -5 -2021 -8 -210 -8 -211 -36 -247 -15 -20 -47 -48 -71 -62 l-44 -26 -2009 3 -2008 3 -43 24 c-24 15 -55 45 -73 72 l-30 48 3 2008 3 2008 21 39 c29 56 82 96 140 105 60 11 3896 12 3976 2z"/>
 <path d="M1790 3910 c-262 -20 -525 -97 -761 -222 -53 -28 -107 -59 -120 -69 -23 -18 -21 -18 96 -12 203 10 418 -32 615 -120 108 -49 263 -144 254 -158 -3 -5 -19 -9 -36 -9 -49 0 -148 -29 -223 -65 -135 -66 -241 -170 -310 -309 -50 -99 -49 -104 28 -95 34 4 94 4 132 -1 39 -5 75 -10 80 -10 6 -1 -15 -9 -45 -19 -104 -33 -181 -82 -271 -171 -70 -70 -94 -102 -127 -170 -47 -98 -72 -190 -72 -273 l0 -57 48 24 c53 27 133 51 201 60 l44 7 -50 -40 c-55 -43 -132 -141 -168 -211 -85 -168 -96 -393 -27 -560 48 -117 35 -117 158 10 123 127 219 208 349 292 172 112 406 213 600 258 85 20 276 50 317 50 l24 0 -9 -72 c-18 -137 19 -307 94 -435 43 -73 158 -188 231 -231 256 -151 576 -124 807 68 l57 47 70 -17 c94 -24 191 -62 282 -110 42 -22 77 -38 78 -37 2 1 -8 29 -21 62 -45 109 -134 223 -230 292 l-30 21 79 -14 c43 -8 127 -32 187 -53 60 -22 109 -36 109 -33 0 30 -242 290 -313 337 -26 16 -27 21 -27 100 0 717 -409 1405 -1030 1733 -309 163 -700 240 -1070 212z"/>
 </g>

</svg>