<!DOCTYPE svg PUBLIC "-//W3C//DTD SVG 20010904//EN" "http://www.w3.org/TR/2001/REC-SVG-20010904/DTD/svg10.dtd">
<svg version="1.0" xmlns="http://www.w3.org/2000/svg" width="512px" height="512px" viewBox="0 0 5120 5120" preserveAspectRatio="xMidYMid meet">
<g id="layer101" fill="#00ff00" stroke="none">
 <path d="M1430 4785 l0 -335 -610 0 -610 0 0 -1787 1 -1788 163 -435 163 -435 2292 -3 2291 -2 0 1558 0 1557 -668 668 -667 667 -505 0 -505 0 -335 335 -335 335 -337 0 -338 0 0 -335z m983 -864 l249 -251 611 0 612 0 393 -392 392 -391 0 -1218 0 -1219 -1840 0 -1840 0 0 1610 0 1610 503 2 502 3 3 323 2 324 83 -76 c45 -41 194 -188 330 -325z"/>
 <path d="M2215 2668 c-3 -7 -4 -310 -3 -673 l3 -660 223 -3 222 -2 0 675 0 675 -220 0 c-167 0 -222 -3 -225 -12z"/>
 <path d="M3447 2674 c-4 -4 -7 -308 -7 -676 l0 -668 225 0 225 0 -2 673 -3 672 -216 3 c-118 1 -218 -1 -222 -4z"/>
 </g>

</svg>