<svg version="1.0" xmlns="http://www.w3.org/2000/svg" width="512" height="512" viewBox="0 0 5120 5120"><path d="M228 5096c-72-30-128-74-167-132-66-100-61 94-59-2419L5 265l27-57C66 135 135 66 208 32l57-27h4590l57 27c73 34 142 103 176 176l27 57v4590l-27 57c-34 73-103 142-176 176l-57 27-2285 2-2285 3-57-24zm2003-1366c355-36 662-167 921-394 340-297 564-778 570-1227l1-118 48-36c53-40 171-162 209-214 21-31 22-34 4-27-74 31-289 84-300 74-2-3 23-25 55-51 33-25 79-71 102-102 40-54 91-146 84-153-2-2-26 8-54 22-74 38-141 63-227 86l-76 20-48-43c-93-83-255-147-374-147-265 1-511 197-572 456-12 50-15 96-11 168l5 99-74-7c-195-16-417-81-604-176-163-83-273-164-414-302-83-81-122-114-128-105-22 34-51 131-60 202-23 173 40 344 176 479l80 79-62-6c-53-6-114-23-184-52-15-6-18-2-18 27 0 55 27 148 67 227 67 134 201 245 352 291 74 23 53 32-92 39l-119 6 37 72c87 168 260 287 451 309 30 4 54 10 54 13 0 15-169 117-254 154-146 63-258 88-431 95l-150 7 65 37c183 104 427 178 660 201 78 8 214 6 311-3z" fill="#0f0"/></svg>