<svg version="1.0" xmlns="http://www.w3.org/2000/svg" width="512" height="512" viewBox="0 0 5120 5120"><g fill="#0f0"><path d="M750 5104c-304-65-573-295-690-589-63-159-60-54-60-1955C0 1017 2 821 16 752 79 449 310 177 605 60 764-3 659 0 2560 0c1543 0 1739 2 1808 16 303 63 575 294 692 589 63 159 60 54 60 1955s3 1796-60 1955c-117 295-389 526-692 589-69 14-264 16-1815 15-1447 0-1749-3-1803-15zm2650-375c594-23 671-40 800-175 93-97 123-179 154-416 37-282 45-882 16-1208-17-189-47-348-79-415-50-106-154-202-261-240-57-20-251-40-540-57-306-17-1550-17-1855 0-326 19-492 37-556 62-144 57-245 181-282 345-89 392-87 1359 3 1711 25 98 52 147 118 216 105 110 185 139 432 157 80 6 188 13 240 17 288 21 1332 22 1810 3zm-774-2766c67-23 154-110 178-178 9-27 22-104 28-170 14-156 4-571-15-640-30-107-78-168-170-217-35-19-58-23-137-23-84 0-101 3-145 27-59 31-105 77-133 133-40 80-44 133-40 495 4 393 6 402 85 490 44 50 82 75 133 91 46 14 165 10 216-8zm662-7c26-13 71-45 99-70s54-46 57-46 6 29 6 65v65h210V740h-210v950l-35 39c-40 44-80 64-121 59-53-6-54-10-54-550V740h-211l3 563c3 625 2 616 70 657 47 28 125 27 186-4zm-1418-318v-333l149-490 149-490-115-3c-64-1-117-1-119 1s-40 142-84 313c-96 366-89 344-99 324-4-8-46-156-92-327l-83-313h-124c-114 0-124 1-117 18 40 103 242 730 270 837l35 140v655h230v-332z"/><path d="M1907 4280c-41-13-58-29-81-80-20-44-21-62-24-602l-3-558h231v489c0 294 4 500 10 515 8 21 16 26 45 26 28 0 45-9 85-48l50-48v-934h230v1230h-230v-122l-50 45c-85 77-189 111-263 87zM3030 4281c-44-14-90-41-131-78l-39-35v102h-230V2620h230v522l51-46c120-108 274-97 336 24 37 73 45 192 40 605-4 411-9 444-70 508-45 48-121 68-187 48zm-11-230c37-37 42-88 39-419-3-343-6-361-59-391-29-16-59-11-106 19l-33 20v745l33 23c40 28 100 29 126 3zM3699 4276c-110-29-186-101-222-209-19-56-21-92-25-360-5-404 10-501 91-585 124-129 354-134 477-11 82 82 93 125 98 377l4 212h-442v123c0 137 11 189 45 223 26 26 81 32 117 13 30-16 48-71 48-149v-70h236l-3 93c-5 107-24 176-63 230-77 104-223 150-361 113zm189-871c-3-86-7-109-24-132-27-35-74-50-112-34-47 20-65 62-70 173l-5 98h215l-4-105zM1260 3565v-705h-260v-240h780v240h-270v1410h-250v-705zM2447 1770c-15-12-31-38-37-58-13-49-13-665 0-714 29-104 171-104 200 0 13 49 13 665 0 714-14 48-52 78-100 78-22 0-48-8-63-20z"/></g></svg>